ISO-10303-21;
HEADER;
/* Generated by software containing ST-Developer
 * from STEP Tools, Inc. (www.steptools.com) 
 */
/* OPTION: using custom renumber hook */

FILE_DESCRIPTION(
/* description */ ('STEP AP214',
'CAx-IF Rec.Pracs.---User Defined Attributes---1.5---2016-08-15'),
/* implementation_level */ '2;1');

FILE_NAME(
/* name */ 'BPL-700 Assembly - bottom_plate-1__Body1',
/* time_stamp */ '2026-09-05T23:29:19Z',
/* author */ (''),
/* organization */ (''),
/* preprocessor_version */ 'ST-DEVELOPER v20',
/* originating_system */ 'ONSHAPE BY PTC INC, 1.220',
/* authorisation */ '  ');

FILE_SCHEMA (('AUTOMOTIVE_DESIGN {1 0 10303 214 3 1 1}'));
ENDSEC;

DATA;
#10=PROPERTY_DEFINITION_REPRESENTATION(#14,#12);
#11=PROPERTY_DEFINITION_REPRESENTATION(#15,#13);
#12=REPRESENTATION('',(#16),#759);
#13=REPRESENTATION('',(#17),#759);
#14=PROPERTY_DEFINITION('pmi validation property','',#764);
#15=PROPERTY_DEFINITION('pmi validation property','',#764);
#16=VALUE_REPRESENTATION_ITEM('number of annotations',COUNT_MEASURE(0.));
#17=VALUE_REPRESENTATION_ITEM('number of views',COUNT_MEASURE(0.));
#18=SHAPE_REPRESENTATION_RELATIONSHIP('','',#467,#19);
#19=ADVANCED_BREP_SHAPE_REPRESENTATION('',(#465),#759);
#20=CIRCLE('',#477,0.0035687);
#21=CIRCLE('',#478,0.0035687);
#22=CIRCLE('',#480,0.0035687);
#23=CIRCLE('',#481,0.0035687);
#24=CIRCLE('',#483,0.0035687);
#25=CIRCLE('',#484,0.0035687);
#26=CIRCLE('',#486,0.0035687);
#27=CIRCLE('',#487,0.0035687);
#28=CIRCLE('',#489,0.0035687);
#29=CIRCLE('',#490,0.0035687);
#30=CIRCLE('',#493,0.0079375);
#31=CIRCLE('',#494,0.0079375);
#32=CIRCLE('',#495,0.0079375);
#33=CIRCLE('',#496,0.0079375);
#34=CIRCLE('',#497,0.009525);
#35=CIRCLE('',#498,0.009525);
#36=CIRCLE('',#499,0.0015875);
#37=CIRCLE('',#500,0.0015875);
#38=CIRCLE('',#502,0.0079375);
#39=CIRCLE('',#503,0.0079375);
#40=CIRCLE('',#504,0.0079375);
#41=CIRCLE('',#505,0.0079375);
#42=CIRCLE('',#506,0.009525);
#43=CIRCLE('',#507,0.009525);
#44=CIRCLE('',#508,0.0015875);
#45=CIRCLE('',#509,0.0015875);
#46=CYLINDRICAL_SURFACE('',#476,0.0035687);
#47=CYLINDRICAL_SURFACE('',#479,0.0035687);
#48=CYLINDRICAL_SURFACE('',#482,0.0035687);
#49=CYLINDRICAL_SURFACE('',#485,0.0035687);
#50=CYLINDRICAL_SURFACE('',#488,0.0035687);
#51=CYLINDRICAL_SURFACE('',#510,0.0015875);
#52=CYLINDRICAL_SURFACE('',#511,0.0015875);
#53=CYLINDRICAL_SURFACE('',#512,0.009525);
#54=CYLINDRICAL_SURFACE('',#513,0.009525);
#55=CYLINDRICAL_SURFACE('',#514,0.0079375);
#56=CYLINDRICAL_SURFACE('',#515,0.0079375);
#57=CYLINDRICAL_SURFACE('',#516,0.0079375);
#58=CYLINDRICAL_SURFACE('',#517,0.0079375);
#59=ORIENTED_EDGE('',*,*,#159,.T.);
#60=ORIENTED_EDGE('',*,*,#160,.F.);
#61=ORIENTED_EDGE('',*,*,#161,.F.);
#62=ORIENTED_EDGE('',*,*,#162,.T.);
#63=ORIENTED_EDGE('',*,*,#163,.T.);
#64=ORIENTED_EDGE('',*,*,#164,.F.);
#65=ORIENTED_EDGE('',*,*,#165,.F.);
#66=ORIENTED_EDGE('',*,*,#160,.T.);
#67=ORIENTED_EDGE('',*,*,#166,.F.);
#68=ORIENTED_EDGE('',*,*,#167,.F.);
#69=ORIENTED_EDGE('',*,*,#168,.T.);
#70=ORIENTED_EDGE('',*,*,#164,.T.);
#71=ORIENTED_EDGE('',*,*,#169,.F.);
#72=ORIENTED_EDGE('',*,*,#170,.F.);
#73=ORIENTED_EDGE('',*,*,#171,.T.);
#74=ORIENTED_EDGE('',*,*,#167,.T.);
#75=ORIENTED_EDGE('',*,*,#172,.F.);
#76=ORIENTED_EDGE('',*,*,#173,.F.);
#77=ORIENTED_EDGE('',*,*,#174,.T.);
#78=ORIENTED_EDGE('',*,*,#170,.T.);
#79=ORIENTED_EDGE('',*,*,#175,.T.);
#80=ORIENTED_EDGE('',*,*,#176,.F.);
#81=ORIENTED_EDGE('',*,*,#177,.F.);
#82=ORIENTED_EDGE('',*,*,#173,.T.);
#83=ORIENTED_EDGE('',*,*,#178,.T.);
#84=ORIENTED_EDGE('',*,*,#179,.F.);
#85=ORIENTED_EDGE('',*,*,#180,.F.);
#86=ORIENTED_EDGE('',*,*,#176,.T.);
#87=ORIENTED_EDGE('',*,*,#181,.F.);
#88=ORIENTED_EDGE('',*,*,#182,.T.);
#89=ORIENTED_EDGE('',*,*,#183,.F.);
#90=ORIENTED_EDGE('',*,*,#184,.T.);
#91=ORIENTED_EDGE('',*,*,#185,.F.);
#92=ORIENTED_EDGE('',*,*,#186,.T.);
#93=ORIENTED_EDGE('',*,*,#187,.F.);
#94=ORIENTED_EDGE('',*,*,#188,.T.);
#95=ORIENTED_EDGE('',*,*,#189,.F.);
#96=ORIENTED_EDGE('',*,*,#190,.T.);
#97=ORIENTED_EDGE('',*,*,#191,.F.);
#98=ORIENTED_EDGE('',*,*,#162,.F.);
#99=ORIENTED_EDGE('',*,*,#192,.T.);
#100=ORIENTED_EDGE('',*,*,#179,.T.);
#101=ORIENTED_EDGE('',*,*,#161,.T.);
#102=ORIENTED_EDGE('',*,*,#165,.T.);
#103=ORIENTED_EDGE('',*,*,#168,.F.);
#104=ORIENTED_EDGE('',*,*,#171,.F.);
#105=ORIENTED_EDGE('',*,*,#174,.F.);
#106=ORIENTED_EDGE('',*,*,#177,.T.);
#107=ORIENTED_EDGE('',*,*,#180,.T.);
#108=ORIENTED_EDGE('',*,*,#192,.F.);
#109=ORIENTED_EDGE('',*,*,#193,.T.);
#110=ORIENTED_EDGE('',*,*,#194,.T.);
#111=ORIENTED_EDGE('',*,*,#195,.T.);
#112=ORIENTED_EDGE('',*,*,#196,.T.);
#113=ORIENTED_EDGE('',*,*,#197,.F.);
#114=ORIENTED_EDGE('',*,*,#198,.F.);
#115=ORIENTED_EDGE('',*,*,#199,.F.);
#116=ORIENTED_EDGE('',*,*,#200,.F.);
#117=ORIENTED_EDGE('',*,*,#190,.F.);
#118=ORIENTED_EDGE('',*,*,#188,.F.);
#119=ORIENTED_EDGE('',*,*,#186,.F.);
#120=ORIENTED_EDGE('',*,*,#184,.F.);
#121=ORIENTED_EDGE('',*,*,#182,.F.);
#122=ORIENTED_EDGE('',*,*,#159,.F.);
#123=ORIENTED_EDGE('',*,*,#191,.T.);
#124=ORIENTED_EDGE('',*,*,#178,.F.);
#125=ORIENTED_EDGE('',*,*,#175,.F.);
#126=ORIENTED_EDGE('',*,*,#172,.T.);
#127=ORIENTED_EDGE('',*,*,#169,.T.);
#128=ORIENTED_EDGE('',*,*,#166,.T.);
#129=ORIENTED_EDGE('',*,*,#163,.F.);
#130=ORIENTED_EDGE('',*,*,#201,.F.);
#131=ORIENTED_EDGE('',*,*,#202,.F.);
#132=ORIENTED_EDGE('',*,*,#203,.F.);
#133=ORIENTED_EDGE('',*,*,#204,.F.);
#134=ORIENTED_EDGE('',*,*,#205,.F.);
#135=ORIENTED_EDGE('',*,*,#206,.F.);
#136=ORIENTED_EDGE('',*,*,#207,.T.);
#137=ORIENTED_EDGE('',*,*,#208,.T.);
#138=ORIENTED_EDGE('',*,*,#189,.T.);
#139=ORIENTED_EDGE('',*,*,#187,.T.);
#140=ORIENTED_EDGE('',*,*,#185,.T.);
#141=ORIENTED_EDGE('',*,*,#183,.T.);
#142=ORIENTED_EDGE('',*,*,#181,.T.);
#143=ORIENTED_EDGE('',*,*,#200,.T.);
#144=ORIENTED_EDGE('',*,*,#208,.F.);
#145=ORIENTED_EDGE('',*,*,#199,.T.);
#146=ORIENTED_EDGE('',*,*,#207,.F.);
#147=ORIENTED_EDGE('',*,*,#206,.T.);
#148=ORIENTED_EDGE('',*,*,#198,.T.);
#149=ORIENTED_EDGE('',*,*,#205,.T.);
#150=ORIENTED_EDGE('',*,*,#197,.T.);
#151=ORIENTED_EDGE('',*,*,#204,.T.);
#152=ORIENTED_EDGE('',*,*,#196,.F.);
#153=ORIENTED_EDGE('',*,*,#203,.T.);
#154=ORIENTED_EDGE('',*,*,#195,.F.);
#155=ORIENTED_EDGE('',*,*,#202,.T.);
#156=ORIENTED_EDGE('',*,*,#194,.F.);
#157=ORIENTED_EDGE('',*,*,#201,.T.);
#158=ORIENTED_EDGE('',*,*,#193,.F.);
#159=EDGE_CURVE('',#209,#210,#251,.T.);
#160=EDGE_CURVE('',#211,#210,#252,.T.);
#161=EDGE_CURVE('',#212,#211,#253,.F.);
#162=EDGE_CURVE('',#212,#209,#254,.T.);
#163=EDGE_CURVE('',#210,#213,#255,.T.);
#164=EDGE_CURVE('',#214,#213,#256,.T.);
#165=EDGE_CURVE('',#211,#214,#257,.T.);
#166=EDGE_CURVE('',#215,#213,#258,.T.);
#167=EDGE_CURVE('',#216,#215,#259,.T.);
#168=EDGE_CURVE('',#216,#214,#260,.T.);
#169=EDGE_CURVE('',#217,#215,#261,.T.);
#170=EDGE_CURVE('',#218,#217,#262,.T.);
#171=EDGE_CURVE('',#218,#216,#263,.T.);
#172=EDGE_CURVE('',#219,#217,#264,.F.);
#173=EDGE_CURVE('',#220,#219,#265,.T.);
#174=EDGE_CURVE('',#220,#218,#266,.T.);
#175=EDGE_CURVE('',#219,#221,#267,.T.);
#176=EDGE_CURVE('',#222,#221,#268,.T.);
#177=EDGE_CURVE('',#220,#222,#269,.T.);
#178=EDGE_CURVE('',#221,#223,#270,.T.);
#179=EDGE_CURVE('',#224,#223,#271,.T.);
#180=EDGE_CURVE('',#222,#224,#272,.T.);
#181=EDGE_CURVE('',#225,#225,#20,.F.);
#182=EDGE_CURVE('',#226,#226,#21,.F.);
#183=EDGE_CURVE('',#227,#227,#22,.F.);
#184=EDGE_CURVE('',#228,#228,#23,.F.);
#185=EDGE_CURVE('',#229,#229,#24,.F.);
#186=EDGE_CURVE('',#230,#230,#25,.F.);
#187=EDGE_CURVE('',#231,#231,#26,.F.);
#188=EDGE_CURVE('',#232,#232,#27,.F.);
#189=EDGE_CURVE('',#233,#233,#28,.F.);
#190=EDGE_CURVE('',#234,#234,#29,.F.);
#191=EDGE_CURVE('',#209,#223,#273,.T.);
#192=EDGE_CURVE('',#212,#224,#274,.T.);
#193=EDGE_CURVE('',#235,#235,#30,.T.);
#194=EDGE_CURVE('',#236,#236,#31,.T.);
#195=EDGE_CURVE('',#237,#237,#32,.T.);
#196=EDGE_CURVE('',#238,#238,#33,.T.);
#197=EDGE_CURVE('',#239,#239,#34,.F.);
#198=EDGE_CURVE('',#240,#240,#35,.F.);
#199=EDGE_CURVE('',#241,#241,#36,.T.);
#200=EDGE_CURVE('',#242,#242,#37,.T.);
#201=EDGE_CURVE('',#243,#243,#38,.T.);
#202=EDGE_CURVE('',#244,#244,#39,.T.);
#203=EDGE_CURVE('',#245,#245,#40,.T.);
#204=EDGE_CURVE('',#246,#246,#41,.T.);
#205=EDGE_CURVE('',#247,#247,#42,.T.);
#206=EDGE_CURVE('',#248,#248,#43,.T.);
#207=EDGE_CURVE('',#249,#249,#44,.T.);
#208=EDGE_CURVE('',#250,#250,#45,.T.);
#209=VERTEX_POINT('',#645);
#210=VERTEX_POINT('',#646);
#211=VERTEX_POINT('',#648);
#212=VERTEX_POINT('',#650);
#213=VERTEX_POINT('',#654);
#214=VERTEX_POINT('',#656);
#215=VERTEX_POINT('',#660);
#216=VERTEX_POINT('',#662);
#217=VERTEX_POINT('',#666);
#218=VERTEX_POINT('',#668);
#219=VERTEX_POINT('',#672);
#220=VERTEX_POINT('',#674);
#221=VERTEX_POINT('',#678);
#222=VERTEX_POINT('',#680);
#223=VERTEX_POINT('',#684);
#224=VERTEX_POINT('',#686);
#225=VERTEX_POINT('',#690);
#226=VERTEX_POINT('',#692);
#227=VERTEX_POINT('',#695);
#228=VERTEX_POINT('',#697);
#229=VERTEX_POINT('',#700);
#230=VERTEX_POINT('',#702);
#231=VERTEX_POINT('',#705);
#232=VERTEX_POINT('',#707);
#233=VERTEX_POINT('',#710);
#234=VERTEX_POINT('',#712);
#235=VERTEX_POINT('',#718);
#236=VERTEX_POINT('',#720);
#237=VERTEX_POINT('',#722);
#238=VERTEX_POINT('',#724);
#239=VERTEX_POINT('',#726);
#240=VERTEX_POINT('',#728);
#241=VERTEX_POINT('',#730);
#242=VERTEX_POINT('',#732);
#243=VERTEX_POINT('',#735);
#244=VERTEX_POINT('',#737);
#245=VERTEX_POINT('',#739);
#246=VERTEX_POINT('',#741);
#247=VERTEX_POINT('',#743);
#248=VERTEX_POINT('',#745);
#249=VERTEX_POINT('',#747);
#250=VERTEX_POINT('',#749);
#251=LINE('',#644,#275);
#252=LINE('',#647,#276);
#253=LINE('',#649,#277);
#254=LINE('',#651,#278);
#255=LINE('',#653,#279);
#256=LINE('',#655,#280);
#257=LINE('',#657,#281);
#258=LINE('',#659,#282);
#259=LINE('',#661,#283);
#260=LINE('',#663,#284);
#261=LINE('',#665,#285);
#262=LINE('',#667,#286);
#263=LINE('',#669,#287);
#264=LINE('',#671,#288);
#265=LINE('',#673,#289);
#266=LINE('',#675,#290);
#267=LINE('',#677,#291);
#268=LINE('',#679,#292);
#269=LINE('',#681,#293);
#270=LINE('',#683,#294);
#271=LINE('',#685,#295);
#272=LINE('',#687,#296);
#273=LINE('',#714,#297);
#274=LINE('',#715,#298);
#275=VECTOR('',#522,1.);
#276=VECTOR('',#523,1.);
#277=VECTOR('',#524,1.);
#278=VECTOR('',#525,1.);
#279=VECTOR('',#528,1.);
#280=VECTOR('',#529,1.);
#281=VECTOR('',#530,1.);
#282=VECTOR('',#533,1.);
#283=VECTOR('',#534,1.);
#284=VECTOR('',#535,1.);
#285=VECTOR('',#538,1.);
#286=VECTOR('',#539,1.);
#287=VECTOR('',#540,1.);
#288=VECTOR('',#543,1.);
#289=VECTOR('',#544,1.);
#290=VECTOR('',#545,1.);
#291=VECTOR('',#548,1.);
#292=VECTOR('',#549,1.);
#293=VECTOR('',#550,1.);
#294=VECTOR('',#553,1.);
#295=VECTOR('',#554,1.);
#296=VECTOR('',#555,1.);
#297=VECTOR('',#588,1.);
#298=VECTOR('',#589,1.);
#299=EDGE_LOOP('',(#59,#60,#61,#62));
#300=EDGE_LOOP('',(#63,#64,#65,#66));
#301=EDGE_LOOP('',(#67,#68,#69,#70));
#302=EDGE_LOOP('',(#71,#72,#73,#74));
#303=EDGE_LOOP('',(#75,#76,#77,#78));
#304=EDGE_LOOP('',(#79,#80,#81,#82));
#305=EDGE_LOOP('',(#83,#84,#85,#86));
#306=EDGE_LOOP('',(#87));
#307=EDGE_LOOP('',(#88));
#308=EDGE_LOOP('',(#89));
#309=EDGE_LOOP('',(#90));
#310=EDGE_LOOP('',(#91));
#311=EDGE_LOOP('',(#92));
#312=EDGE_LOOP('',(#93));
#313=EDGE_LOOP('',(#94));
#314=EDGE_LOOP('',(#95));
#315=EDGE_LOOP('',(#96));
#316=EDGE_LOOP('',(#97,#98,#99,#100));
#317=EDGE_LOOP('',(#101,#102,#103,#104,#105,#106,#107,#108));
#318=EDGE_LOOP('',(#109));
#319=EDGE_LOOP('',(#110));
#320=EDGE_LOOP('',(#111));
#321=EDGE_LOOP('',(#112));
#322=EDGE_LOOP('',(#113));
#323=EDGE_LOOP('',(#114));
#324=EDGE_LOOP('',(#115));
#325=EDGE_LOOP('',(#116));
#326=EDGE_LOOP('',(#117));
#327=EDGE_LOOP('',(#118));
#328=EDGE_LOOP('',(#119));
#329=EDGE_LOOP('',(#120));
#330=EDGE_LOOP('',(#121));
#331=EDGE_LOOP('',(#122,#123,#124,#125,#126,#127,#128,#129));
#332=EDGE_LOOP('',(#130));
#333=EDGE_LOOP('',(#131));
#334=EDGE_LOOP('',(#132));
#335=EDGE_LOOP('',(#133));
#336=EDGE_LOOP('',(#134));
#337=EDGE_LOOP('',(#135));
#338=EDGE_LOOP('',(#136));
#339=EDGE_LOOP('',(#137));
#340=EDGE_LOOP('',(#138));
#341=EDGE_LOOP('',(#139));
#342=EDGE_LOOP('',(#140));
#343=EDGE_LOOP('',(#141));
#344=EDGE_LOOP('',(#142));
#345=EDGE_LOOP('',(#143));
#346=EDGE_LOOP('',(#144));
#347=EDGE_LOOP('',(#145));
#348=EDGE_LOOP('',(#146));
#349=EDGE_LOOP('',(#147));
#350=EDGE_LOOP('',(#148));
#351=EDGE_LOOP('',(#149));
#352=EDGE_LOOP('',(#150));
#353=EDGE_LOOP('',(#151));
#354=EDGE_LOOP('',(#152));
#355=EDGE_LOOP('',(#153));
#356=EDGE_LOOP('',(#154));
#357=EDGE_LOOP('',(#155));
#358=EDGE_LOOP('',(#156));
#359=EDGE_LOOP('',(#157));
#360=EDGE_LOOP('',(#158));
#361=FACE_BOUND('',#299,.T.);
#362=FACE_BOUND('',#300,.T.);
#363=FACE_BOUND('',#301,.T.);
#364=FACE_BOUND('',#302,.T.);
#365=FACE_BOUND('',#303,.T.);
#366=FACE_BOUND('',#304,.T.);
#367=FACE_BOUND('',#305,.T.);
#368=FACE_BOUND('',#306,.T.);
#369=FACE_BOUND('',#307,.T.);
#370=FACE_BOUND('',#308,.T.);
#371=FACE_BOUND('',#309,.T.);
#372=FACE_BOUND('',#310,.T.);
#373=FACE_BOUND('',#311,.T.);
#374=FACE_BOUND('',#312,.T.);
#375=FACE_BOUND('',#313,.T.);
#376=FACE_BOUND('',#314,.T.);
#377=FACE_BOUND('',#315,.T.);
#378=FACE_BOUND('',#316,.T.);
#379=FACE_BOUND('',#317,.T.);
#380=FACE_BOUND('',#318,.T.);
#381=FACE_BOUND('',#319,.T.);
#382=FACE_BOUND('',#320,.T.);
#383=FACE_BOUND('',#321,.T.);
#384=FACE_BOUND('',#322,.T.);
#385=FACE_BOUND('',#323,.T.);
#386=FACE_BOUND('',#324,.T.);
#387=FACE_BOUND('',#325,.T.);
#388=FACE_BOUND('',#326,.T.);
#389=FACE_BOUND('',#327,.T.);
#390=FACE_BOUND('',#328,.T.);
#391=FACE_BOUND('',#329,.T.);
#392=FACE_BOUND('',#330,.T.);
#393=FACE_BOUND('',#331,.T.);
#394=FACE_BOUND('',#332,.T.);
#395=FACE_BOUND('',#333,.T.);
#396=FACE_BOUND('',#334,.T.);
#397=FACE_BOUND('',#335,.T.);
#398=FACE_BOUND('',#336,.T.);
#399=FACE_BOUND('',#337,.T.);
#400=FACE_BOUND('',#338,.T.);
#401=FACE_BOUND('',#339,.T.);
#402=FACE_BOUND('',#340,.T.);
#403=FACE_BOUND('',#341,.T.);
#404=FACE_BOUND('',#342,.T.);
#405=FACE_BOUND('',#343,.T.);
#406=FACE_BOUND('',#344,.T.);
#407=FACE_BOUND('',#345,.T.);
#408=FACE_BOUND('',#346,.T.);
#409=FACE_BOUND('',#347,.T.);
#410=FACE_BOUND('',#348,.T.);
#411=FACE_BOUND('',#349,.T.);
#412=FACE_BOUND('',#350,.T.);
#413=FACE_BOUND('',#351,.T.);
#414=FACE_BOUND('',#352,.T.);
#415=FACE_BOUND('',#353,.T.);
#416=FACE_BOUND('',#354,.T.);
#417=FACE_BOUND('',#355,.T.);
#418=FACE_BOUND('',#356,.T.);
#419=FACE_BOUND('',#357,.T.);
#420=FACE_BOUND('',#358,.T.);
#421=FACE_BOUND('',#359,.T.);
#422=FACE_BOUND('',#360,.T.);
#423=PLANE('',#469);
#424=PLANE('',#470);
#425=PLANE('',#471);
#426=PLANE('',#472);
#427=PLANE('',#473);
#428=PLANE('',#474);
#429=PLANE('',#475);
#430=PLANE('',#491);
#431=PLANE('',#492);
#432=PLANE('',#501);
#433=ADVANCED_FACE('',(#361),#423,.F.);
#434=ADVANCED_FACE('',(#362),#424,.F.);
#435=ADVANCED_FACE('',(#363),#425,.T.);
#436=ADVANCED_FACE('',(#364),#426,.T.);
#437=ADVANCED_FACE('',(#365),#427,.T.);
#438=ADVANCED_FACE('',(#366),#428,.F.);
#439=ADVANCED_FACE('',(#367),#429,.F.);
#440=ADVANCED_FACE('',(#368,#369),#46,.F.);
#441=ADVANCED_FACE('',(#370,#371),#47,.F.);
#442=ADVANCED_FACE('',(#372,#373),#48,.F.);
#443=ADVANCED_FACE('',(#374,#375),#49,.F.);
#444=ADVANCED_FACE('',(#376,#377),#50,.F.);
#445=ADVANCED_FACE('',(#378),#430,.T.);
#446=ADVANCED_FACE('',(#379,#380,#381,#382,#383,#384,#385,#386,#387,#388,
#389,#390,#391,#392),#431,.T.);
#447=ADVANCED_FACE('',(#393,#394,#395,#396,#397,#398,#399,#400,#401,#402,
#403,#404,#405,#406),#432,.F.);
#448=ADVANCED_FACE('',(#407,#408),#51,.F.);
#449=ADVANCED_FACE('',(#409,#410),#52,.F.);
#450=ADVANCED_FACE('',(#411,#412),#53,.F.);
#451=ADVANCED_FACE('',(#413,#414),#54,.F.);
#452=ADVANCED_FACE('',(#415,#416),#55,.F.);
#453=ADVANCED_FACE('',(#417,#418),#56,.F.);
#454=ADVANCED_FACE('',(#419,#420),#57,.F.);
#455=ADVANCED_FACE('',(#421,#422),#58,.F.);
#456=CLOSED_SHELL('',(#433,#434,#435,#436,#437,#438,#439,#440,#441,#442,
#443,#444,#445,#446,#447,#448,#449,#450,#451,#452,#453,#454,#455));
#457=STYLED_ITEM('',(#458),#465);
#458=PRESENTATION_STYLE_ASSIGNMENT((#459));
#459=SURFACE_STYLE_USAGE(.BOTH.,#460);
#460=SURFACE_SIDE_STYLE('',(#461));
#461=SURFACE_STYLE_FILL_AREA(#462);
#462=FILL_AREA_STYLE('',(#463));
#463=FILL_AREA_STYLE_COLOUR('',#464);
#464=COLOUR_RGB('',0.43921568627451,0.474509803921569,0.501960784313726);
#465=MANIFOLD_SOLID_BREP('bottom_plate:1__Body1',#456);
#466=SHAPE_DEFINITION_REPRESENTATION(#764,#467);
#467=SHAPE_REPRESENTATION('bottom_plate:1__Body1',(#468),#759);
#468=AXIS2_PLACEMENT_3D('',#642,#518,#519);
#469=AXIS2_PLACEMENT_3D('',#643,#520,#521);
#470=AXIS2_PLACEMENT_3D('',#652,#526,#527);
#471=AXIS2_PLACEMENT_3D('',#658,#531,#532);
#472=AXIS2_PLACEMENT_3D('',#664,#536,#537);
#473=AXIS2_PLACEMENT_3D('',#670,#541,#542);
#474=AXIS2_PLACEMENT_3D('',#676,#546,#547);
#475=AXIS2_PLACEMENT_3D('',#682,#551,#552);
#476=AXIS2_PLACEMENT_3D('',#688,#556,#557);
#477=AXIS2_PLACEMENT_3D('',#689,#558,#559);
#478=AXIS2_PLACEMENT_3D('',#691,#560,#561);
#479=AXIS2_PLACEMENT_3D('',#693,#562,#563);
#480=AXIS2_PLACEMENT_3D('',#694,#564,#565);
#481=AXIS2_PLACEMENT_3D('',#696,#566,#567);
#482=AXIS2_PLACEMENT_3D('',#698,#568,#569);
#483=AXIS2_PLACEMENT_3D('',#699,#570,#571);
#484=AXIS2_PLACEMENT_3D('',#701,#572,#573);
#485=AXIS2_PLACEMENT_3D('',#703,#574,#575);
#486=AXIS2_PLACEMENT_3D('',#704,#576,#577);
#487=AXIS2_PLACEMENT_3D('',#706,#578,#579);
#488=AXIS2_PLACEMENT_3D('',#708,#580,#581);
#489=AXIS2_PLACEMENT_3D('',#709,#582,#583);
#490=AXIS2_PLACEMENT_3D('',#711,#584,#585);
#491=AXIS2_PLACEMENT_3D('',#713,#586,#587);
#492=AXIS2_PLACEMENT_3D('',#716,#590,#591);
#493=AXIS2_PLACEMENT_3D('',#717,#592,#593);
#494=AXIS2_PLACEMENT_3D('',#719,#594,#595);
#495=AXIS2_PLACEMENT_3D('',#721,#596,#597);
#496=AXIS2_PLACEMENT_3D('',#723,#598,#599);
#497=AXIS2_PLACEMENT_3D('',#725,#600,#601);
#498=AXIS2_PLACEMENT_3D('',#727,#602,#603);
#499=AXIS2_PLACEMENT_3D('',#729,#604,#605);
#500=AXIS2_PLACEMENT_3D('',#731,#606,#607);
#501=AXIS2_PLACEMENT_3D('',#733,#608,#609);
#502=AXIS2_PLACEMENT_3D('',#734,#610,#611);
#503=AXIS2_PLACEMENT_3D('',#736,#612,#613);
#504=AXIS2_PLACEMENT_3D('',#738,#614,#615);
#505=AXIS2_PLACEMENT_3D('',#740,#616,#617);
#506=AXIS2_PLACEMENT_3D('',#742,#618,#619);
#507=AXIS2_PLACEMENT_3D('',#744,#620,#621);
#508=AXIS2_PLACEMENT_3D('',#746,#622,#623);
#509=AXIS2_PLACEMENT_3D('',#748,#624,#625);
#510=AXIS2_PLACEMENT_3D('',#750,#626,#627);
#511=AXIS2_PLACEMENT_3D('',#751,#628,#629);
#512=AXIS2_PLACEMENT_3D('',#752,#630,#631);
#513=AXIS2_PLACEMENT_3D('',#753,#632,#633);
#514=AXIS2_PLACEMENT_3D('',#754,#634,#635);
#515=AXIS2_PLACEMENT_3D('',#755,#636,#637);
#516=AXIS2_PLACEMENT_3D('',#756,#638,#639);
#517=AXIS2_PLACEMENT_3D('',#757,#640,#641);
#518=DIRECTION('',(0.,0.,1.));
#519=DIRECTION('',(1.,0.,0.));
#520=DIRECTION('',(1.98679854084673E-16,0.,-1.));
#521=DIRECTION('',(-1.,0.,-1.98679854084673E-16));
#522=DIRECTION('',(-1.,0.,-1.98679854084673E-16));
#523=DIRECTION('',(0.,1.,0.));
#524=DIRECTION('',(1.,0.,0.));
#525=DIRECTION('',(0.,1.,0.));
#526=DIRECTION('',(0.707106781186548,0.,-0.707106781186547));
#527=DIRECTION('',(-0.707106781186547,0.,-0.707106781186548));
#528=DIRECTION('',(-0.707106781186547,0.,-0.707106781186548));
#529=DIRECTION('',(0.,1.,0.));
#530=DIRECTION('',(-0.707106781186548,0.,-0.707106781186548));
#531=DIRECTION('',(-1.,0.,-1.98679854084673E-16));
#532=DIRECTION('',(-1.98679854084673E-16,0.,1.));
#533=DIRECTION('',(0.,0.,1.));
#534=DIRECTION('',(0.,1.,0.));
#535=DIRECTION('',(-1.98679854084673E-16,0.,1.));
#536=DIRECTION('',(-0.707106781186548,0.,-0.707106781186547));
#537=DIRECTION('',(-0.707106781186547,0.,0.707106781186548));
#538=DIRECTION('',(-0.707106781186548,0.,0.707106781186548));
#539=DIRECTION('',(0.,1.,0.));
#540=DIRECTION('',(-0.707106781186547,0.,0.707106781186548));
#541=DIRECTION('',(9.93399270423368E-17,0.,-1.));
#542=DIRECTION('',(-1.,0.,-9.93399270423368E-17));
#543=DIRECTION('',(1.,0.,0.));
#544=DIRECTION('',(0.,1.,0.));
#545=DIRECTION('',(-1.,0.,-9.93399270423368E-17));
#546=DIRECTION('',(-0.707106781186548,0.,0.707106781186547));
#547=DIRECTION('',(0.707106781186547,0.,0.707106781186548));
#548=DIRECTION('',(0.707106781186547,0.,0.707106781186548));
#549=DIRECTION('',(0.,1.,0.));
#550=DIRECTION('',(0.707106781186548,0.,0.707106781186548));
#551=DIRECTION('',(-1.,0.,-1.98679854084673E-16));
#552=DIRECTION('',(-1.98679854084673E-16,0.,1.));
#553=DIRECTION('',(-1.98679854084673E-16,0.,1.));
#554=DIRECTION('',(0.,1.,0.));
#555=DIRECTION('',(0.,0.,1.));
#556=DIRECTION('',(0.,1.,0.));
#557=DIRECTION('',(0.,0.,1.));
#558=DIRECTION('',(0.,1.,0.));
#559=DIRECTION('',(0.,0.,1.));
#560=DIRECTION('',(0.,1.,0.));
#561=DIRECTION('',(0.,0.,1.));
#562=DIRECTION('',(0.,1.,0.));
#563=DIRECTION('',(0.,0.,1.));
#564=DIRECTION('',(0.,1.,0.));
#565=DIRECTION('',(0.,0.,1.));
#566=DIRECTION('',(0.,1.,0.));
#567=DIRECTION('',(0.,0.,1.));
#568=DIRECTION('',(0.,1.,0.));
#569=DIRECTION('',(0.,0.,1.));
#570=DIRECTION('',(0.,1.,0.));
#571=DIRECTION('',(0.,0.,1.));
#572=DIRECTION('',(0.,1.,0.));
#573=DIRECTION('',(0.,0.,1.));
#574=DIRECTION('',(0.,1.,0.));
#575=DIRECTION('',(0.,0.,1.));
#576=DIRECTION('',(0.,1.,0.));
#577=DIRECTION('',(0.,0.,1.));
#578=DIRECTION('',(0.,1.,0.));
#579=DIRECTION('',(0.,0.,1.));
#580=DIRECTION('',(0.,1.,0.));
#581=DIRECTION('',(0.,0.,1.));
#582=DIRECTION('',(0.,1.,0.));
#583=DIRECTION('',(0.,0.,1.));
#584=DIRECTION('',(0.,1.,0.));
#585=DIRECTION('',(0.,0.,1.));
#586=DIRECTION('',(0.707106781186547,0.,0.707106781186548));
#587=DIRECTION('',(0.707106781186548,0.,-0.707106781186547));
#588=DIRECTION('',(0.707106781186548,0.,-0.707106781186548));
#589=DIRECTION('',(0.707106781186548,0.,-0.707106781186547));
#590=DIRECTION('',(0.,-1.,0.));
#591=DIRECTION('',(1.,0.,0.));
#592=DIRECTION('',(0.,1.,0.));
#593=DIRECTION('',(0.,0.,1.));
#594=DIRECTION('',(0.,1.,0.));
#595=DIRECTION('',(0.,0.,1.));
#596=DIRECTION('',(0.,1.,0.));
#597=DIRECTION('',(0.,0.,1.));
#598=DIRECTION('',(0.,1.,0.));
#599=DIRECTION('',(0.,0.,1.));
#600=DIRECTION('',(0.,1.,0.));
#601=DIRECTION('',(0.,0.,1.));
#602=DIRECTION('',(0.,1.,0.));
#603=DIRECTION('',(0.,0.,1.));
#604=DIRECTION('',(0.,-1.,0.));
#605=DIRECTION('',(0.,0.,-1.));
#606=DIRECTION('',(0.,-1.,0.));
#607=DIRECTION('',(0.,0.,-1.));
#608=DIRECTION('',(0.,-1.,0.));
#609=DIRECTION('',(1.,0.,0.));
#610=DIRECTION('',(0.,1.,0.));
#611=DIRECTION('',(0.,0.,1.));
#612=DIRECTION('',(0.,1.,0.));
#613=DIRECTION('',(0.,0.,1.));
#614=DIRECTION('',(0.,1.,0.));
#615=DIRECTION('',(0.,0.,1.));
#616=DIRECTION('',(0.,1.,0.));
#617=DIRECTION('',(0.,0.,1.));
#618=DIRECTION('',(0.,1.,0.));
#619=DIRECTION('',(0.,0.,1.));
#620=DIRECTION('',(0.,1.,0.));
#621=DIRECTION('',(0.,0.,1.));
#622=DIRECTION('',(0.,-1.,0.));
#623=DIRECTION('',(0.,0.,-1.));
#624=DIRECTION('',(0.,-1.,0.));
#625=DIRECTION('',(0.,0.,-1.));
#626=DIRECTION('',(0.,-1.,0.));
#627=DIRECTION('',(0.,0.,-1.));
#628=DIRECTION('',(0.,-1.,0.));
#629=DIRECTION('',(0.,0.,-1.));
#630=DIRECTION('',(0.,1.,0.));
#631=DIRECTION('',(0.,0.,1.));
#632=DIRECTION('',(0.,1.,0.));
#633=DIRECTION('',(0.,0.,1.));
#634=DIRECTION('',(0.,1.,0.));
#635=DIRECTION('',(0.,0.,1.));
#636=DIRECTION('',(0.,1.,0.));
#637=DIRECTION('',(0.,0.,1.));
#638=DIRECTION('',(0.,1.,0.));
#639=DIRECTION('',(0.,0.,1.));
#640=DIRECTION('',(0.,1.,0.));
#641=DIRECTION('',(0.,0.,1.));
#642=CARTESIAN_POINT('',(0.,0.,0.));
#643=CARTESIAN_POINT('',(-4.16333634234433E-17,-0.009525,0.09525));
#644=CARTESIAN_POINT('',(-4.16333634234433E-17,0.,0.09525));
#645=CARTESIAN_POINT('',(0.06985,0.,0.09525));
#646=CARTESIAN_POINT('',(-0.06985,0.,0.09525));
#647=CARTESIAN_POINT('',(-0.06985,-0.009525,0.09525));
#648=CARTESIAN_POINT('',(-0.06985,-0.009525,0.09525));
#649=CARTESIAN_POINT('',(0.,-0.009525,0.09525));
#650=CARTESIAN_POINT('',(0.06985,-0.009525,0.09525));
#651=CARTESIAN_POINT('',(0.06985,-0.009525,0.09525));
#652=CARTESIAN_POINT('',(-0.08255,-0.009525,0.08255));
#653=CARTESIAN_POINT('',(-0.08255,0.,0.08255));
#654=CARTESIAN_POINT('',(-0.09525,0.,0.06985));
#655=CARTESIAN_POINT('',(-0.09525,-0.009525,0.06985));
#656=CARTESIAN_POINT('',(-0.09525,-0.009525,0.06985));
#657=CARTESIAN_POINT('',(-0.06985,-0.009525,0.09525));
#658=CARTESIAN_POINT('',(-0.09525,-0.009525,0.));
#659=CARTESIAN_POINT('',(-0.09525,0.,0.));
#660=CARTESIAN_POINT('',(-0.09525,0.,-0.06985));
#661=CARTESIAN_POINT('',(-0.09525,-0.009525,-0.06985));
#662=CARTESIAN_POINT('',(-0.09525,-0.009525,-0.06985));
#663=CARTESIAN_POINT('',(-0.09525,-0.009525,0.));
#664=CARTESIAN_POINT('',(-0.08255,-0.009525,-0.08255));
#665=CARTESIAN_POINT('',(-0.06985,0.,-0.09525));
#666=CARTESIAN_POINT('',(-0.06985,0.,-0.09525));
#667=CARTESIAN_POINT('',(-0.06985,-0.009525,-0.09525));
#668=CARTESIAN_POINT('',(-0.06985,-0.009525,-0.09525));
#669=CARTESIAN_POINT('',(-0.08255,-0.009525,-0.08255));
#670=CARTESIAN_POINT('',(2.77555756156289E-17,-0.009525,-0.09525));
#671=CARTESIAN_POINT('',(0.,0.,-0.09525));
#672=CARTESIAN_POINT('',(0.06985,0.,-0.09525));
#673=CARTESIAN_POINT('',(0.06985,-0.009525,-0.09525));
#674=CARTESIAN_POINT('',(0.06985,-0.009525,-0.09525));
#675=CARTESIAN_POINT('',(2.77555756156289E-17,-0.009525,-0.09525));
#676=CARTESIAN_POINT('',(0.08255,-0.009525,-0.08255));
#677=CARTESIAN_POINT('',(0.08255,0.,-0.08255));
#678=CARTESIAN_POINT('',(0.09525,0.,-0.06985));
#679=CARTESIAN_POINT('',(0.09525,-0.009525,-0.06985));
#680=CARTESIAN_POINT('',(0.09525,-0.009525,-0.06985));
#681=CARTESIAN_POINT('',(0.06985,-0.009525,-0.09525));
#682=CARTESIAN_POINT('',(0.09525,-0.009525,1.38777878078145E-17));
#683=CARTESIAN_POINT('',(0.09525,0.,1.38777878078145E-17));
#684=CARTESIAN_POINT('',(0.09525,0.,0.06985));
#685=CARTESIAN_POINT('',(0.09525,-0.009525,0.06985));
#686=CARTESIAN_POINT('',(0.09525,-0.009525,0.06985));
#687=CARTESIAN_POINT('',(0.09525,-0.009525,0.));
#688=CARTESIAN_POINT('',(-0.0635,-0.009525,0.0635));
#689=CARTESIAN_POINT('',(-0.0635,0.,0.0635));
#690=CARTESIAN_POINT('',(-0.0635,0.,0.0670687));
#691=CARTESIAN_POINT('',(-0.0635,-0.009525,0.0635));
#692=CARTESIAN_POINT('',(-0.0635,-0.009525,0.0670687));
#693=CARTESIAN_POINT('',(0.0635,-0.009525,0.0635));
#694=CARTESIAN_POINT('',(0.0635,0.,0.0635));
#695=CARTESIAN_POINT('',(0.0635,0.,0.0670687));
#696=CARTESIAN_POINT('',(0.0635,-0.009525,0.0635));
#697=CARTESIAN_POINT('',(0.0635,-0.009525,0.0670687));
#698=CARTESIAN_POINT('',(0.0635,-0.009525,-0.0635));
#699=CARTESIAN_POINT('',(0.0635,0.,-0.0635));
#700=CARTESIAN_POINT('',(0.0635,0.,-0.0599313));
#701=CARTESIAN_POINT('',(0.0635,-0.009525,-0.0635));
#702=CARTESIAN_POINT('',(0.0635,-0.009525,-0.0599313));
#703=CARTESIAN_POINT('',(-0.0635,-0.009525,-0.0635));
#704=CARTESIAN_POINT('',(-0.0635,0.,-0.0635));
#705=CARTESIAN_POINT('',(-0.0635,0.,-0.0599313));
#706=CARTESIAN_POINT('',(-0.0635,-0.009525,-0.0635));
#707=CARTESIAN_POINT('',(-0.0635,-0.009525,-0.0599313));
#708=CARTESIAN_POINT('',(0.,-0.009525,2.18519851605858E-19));
#709=CARTESIAN_POINT('',(0.,0.,2.18519851605858E-19));
#710=CARTESIAN_POINT('',(0.,0.,0.0035687));
#711=CARTESIAN_POINT('',(0.,-0.009525,2.18519851605858E-19));
#712=CARTESIAN_POINT('',(0.,-0.009525,0.0035687));
#713=CARTESIAN_POINT('',(0.08255,-0.009525,0.08255));
#714=CARTESIAN_POINT('',(0.06985,0.,0.09525));
#715=CARTESIAN_POINT('',(0.08255,-0.009525,0.08255));
#716=CARTESIAN_POINT('',(0.,-0.009525,0.));
#717=CARTESIAN_POINT('',(0.0398931182138373,-0.009525,-0.0165242706095246));
#718=CARTESIAN_POINT('',(0.0398931182138373,-0.009525,-0.0085867706095246));
#719=CARTESIAN_POINT('',(-0.0398931182138373,-0.009525,0.0165242706095246));
#720=CARTESIAN_POINT('',(-0.0398931182138373,-0.009525,0.0244617706095246));
#721=CARTESIAN_POINT('',(-0.0165242706095246,-0.009525,-0.0398931182138373));
#722=CARTESIAN_POINT('',(-0.0165242706095246,-0.009525,-0.0319556182138373));
#723=CARTESIAN_POINT('',(0.0165242706095246,-0.009525,0.0398931182138373));
#724=CARTESIAN_POINT('',(0.0165242706095246,-0.009525,0.0478306182138373));
#725=CARTESIAN_POINT('',(0.0398931182138373,-0.009525,0.0165242706095246));
#726=CARTESIAN_POINT('',(0.0398931182138373,-0.009525,0.0260492706095246));
#727=CARTESIAN_POINT('',(-0.0398931182138373,-0.009525,-0.0165242706095246));
#728=CARTESIAN_POINT('',(-0.0398931182138373,-0.009525,-0.0069992706095246));
#729=CARTESIAN_POINT('',(-0.0134703841816037,-0.009525,0.0134703841816037));
#730=CARTESIAN_POINT('',(-0.0134703841816037,-0.009525,0.0118828841816037));
#731=CARTESIAN_POINT('',(0.0134703841816037,-0.009525,-0.0134703841816037));
#732=CARTESIAN_POINT('',(0.0134703841816037,-0.009525,-0.0150578841816037));
#733=CARTESIAN_POINT('',(0.,0.,0.));
#734=CARTESIAN_POINT('',(0.0398931182138373,1.7347234759768E-18,-0.0165242706095246));
#735=CARTESIAN_POINT('',(0.0398931182138373,1.7347234759768E-18,-0.0085867706095246));
#736=CARTESIAN_POINT('',(-0.0398931182138373,1.7347234759768E-18,0.0165242706095246));
#737=CARTESIAN_POINT('',(-0.0398931182138373,1.7347234759768E-18,0.0244617706095246));
#738=CARTESIAN_POINT('',(-0.0165242706095246,1.7347234759768E-18,-0.0398931182138373));
#739=CARTESIAN_POINT('',(-0.0165242706095246,1.7347234759768E-18,-0.0319556182138373));
#740=CARTESIAN_POINT('',(0.0165242706095246,1.7347234759768E-18,0.0398931182138373));
#741=CARTESIAN_POINT('',(0.0165242706095246,1.7347234759768E-18,0.0478306182138373));
#742=CARTESIAN_POINT('',(0.0398931182138373,0.,0.0165242706095246));
#743=CARTESIAN_POINT('',(0.0398931182138373,0.,0.0260492706095246));
#744=CARTESIAN_POINT('',(-0.0398931182138373,0.,-0.0165242706095246));
#745=CARTESIAN_POINT('',(-0.0398931182138373,0.,-0.0069992706095246));
#746=CARTESIAN_POINT('',(-0.0134703841816037,0.,0.0134703841816037));
#747=CARTESIAN_POINT('',(-0.0134703841816037,0.,0.0118828841816037));
#748=CARTESIAN_POINT('',(0.0134703841816037,0.,-0.0134703841816037));
#749=CARTESIAN_POINT('',(0.0134703841816037,0.,-0.0150578841816037));
#750=CARTESIAN_POINT('',(0.0134703841816037,0.038481,-0.0134703841816037));
#751=CARTESIAN_POINT('',(-0.0134703841816037,0.038481,0.0134703841816037));
#752=CARTESIAN_POINT('',(-0.0398931182138373,-0.021336,-0.0165242706095246));
#753=CARTESIAN_POINT('',(0.0398931182138373,-0.021336,0.0165242706095246));
#754=CARTESIAN_POINT('',(0.0165242706095246,-0.009525,0.0398931182138373));
#755=CARTESIAN_POINT('',(-0.0165242706095246,-0.009525,-0.0398931182138373));
#756=CARTESIAN_POINT('',(-0.0398931182138373,-0.009525,0.0165242706095246));
#757=CARTESIAN_POINT('',(0.0398931182138373,-0.009525,-0.0165242706095246));
#758=MECHANICAL_DESIGN_GEOMETRIC_PRESENTATION_REPRESENTATION('',(#457),
#759);
#759=(
GEOMETRIC_REPRESENTATION_CONTEXT(3)
GLOBAL_UNCERTAINTY_ASSIGNED_CONTEXT((#760))
GLOBAL_UNIT_ASSIGNED_CONTEXT((#763,#762,#761))
REPRESENTATION_CONTEXT('bottom_plate:1__Body1',
'TOP_LEVEL_ASSEMBLY_PART')
);
#760=UNCERTAINTY_MEASURE_WITH_UNIT(LENGTH_MEASURE(1.E-8),#763,
'DISTANCE_ACCURACY_VALUE','Maximum Tolerance applied to model');
#761=(
NAMED_UNIT(*)
SI_UNIT($,.STERADIAN.)
SOLID_ANGLE_UNIT()
);
#762=(
NAMED_UNIT(*)
PLANE_ANGLE_UNIT()
SI_UNIT($,.RADIAN.)
);
#763=(
LENGTH_UNIT()
NAMED_UNIT(*)
SI_UNIT($,.METRE.)
);
#764=PRODUCT_DEFINITION_SHAPE('','',#765);
#765=PRODUCT_DEFINITION('','',#767,#766);
#766=PRODUCT_DEFINITION_CONTEXT('',#773,'design');
#767=PRODUCT_DEFINITION_FORMATION_WITH_SPECIFIED_SOURCE('','',#769,
 .NOT_KNOWN.);
#768=PRODUCT_RELATED_PRODUCT_CATEGORY('','',(#769));
#769=PRODUCT('bottom_plate:1__Body1','bottom_plate:1__Body1',
'bottom_plate:1__Body1',(#771));
#770=PRODUCT_CATEGORY('','');
#771=PRODUCT_CONTEXT('',#773,'mechanical');
#772=APPLICATION_PROTOCOL_DEFINITION('international standard',
'automotive_design',2010,#773);
#773=APPLICATION_CONTEXT(
'core data for automotive mechanical design processes');
ENDSEC;
END-ISO-10303-21;
