ISO-10303-21;
HEADER;
/* Generated by software containing ST-Developer
 * from STEP Tools, Inc. (www.steptools.com) 
 */
/* OPTION: using custom renumber hook */

FILE_DESCRIPTION(
/* description */ ('STEP AP214',
'CAx-IF Rec.Pracs.---User Defined Attributes---1.5---2016-08-15'),
/* implementation_level */ '2;1');

FILE_NAME(
/* name */ 'BPL-700 Assembly - top_plate-1__Body1',
/* time_stamp */ '2026-09-05T23:29:19Z',
/* author */ (''),
/* organization */ (''),
/* preprocessor_version */ 'ST-DEVELOPER v20',
/* originating_system */ 'ONSHAPE BY PTC INC, 1.220',
/* authorisation */ '  ');

FILE_SCHEMA (('AUTOMOTIVE_DESIGN {1 0 10303 214 3 1 1}'));
ENDSEC;

DATA;
#10=PROPERTY_DEFINITION_REPRESENTATION(#14,#12);
#11=PROPERTY_DEFINITION_REPRESENTATION(#15,#13);
#12=REPRESENTATION('',(#16),#487);
#13=REPRESENTATION('',(#17),#487);
#14=PROPERTY_DEFINITION('pmi validation property','',#492);
#15=PROPERTY_DEFINITION('pmi validation property','',#492);
#16=VALUE_REPRESENTATION_ITEM('number of annotations',COUNT_MEASURE(0.));
#17=VALUE_REPRESENTATION_ITEM('number of views',COUNT_MEASURE(0.));
#18=SHAPE_REPRESENTATION_RELATIONSHIP('','',#307,#19);
#19=ADVANCED_BREP_SHAPE_REPRESENTATION('',(#305),#487);
#20=CIRCLE('',#317,0.0035687);
#21=CIRCLE('',#318,0.0035687);
#22=CIRCLE('',#320,0.0035687);
#23=CIRCLE('',#321,0.0035687);
#24=CIRCLE('',#323,0.0035687);
#25=CIRCLE('',#324,0.0035687);
#26=CIRCLE('',#326,0.0035687);
#27=CIRCLE('',#327,0.0035687);
#28=CIRCLE('',#330,0.0555625);
#29=CIRCLE('',#332,0.0555625);
#30=CYLINDRICAL_SURFACE('',#316,0.0035687);
#31=CYLINDRICAL_SURFACE('',#319,0.0035687);
#32=CYLINDRICAL_SURFACE('',#322,0.0035687);
#33=CYLINDRICAL_SURFACE('',#325,0.0035687);
#34=CYLINDRICAL_SURFACE('',#333,0.0555625);
#35=ORIENTED_EDGE('',*,*,#103,.T.);
#36=ORIENTED_EDGE('',*,*,#104,.F.);
#37=ORIENTED_EDGE('',*,*,#105,.F.);
#38=ORIENTED_EDGE('',*,*,#106,.T.);
#39=ORIENTED_EDGE('',*,*,#107,.T.);
#40=ORIENTED_EDGE('',*,*,#108,.F.);
#41=ORIENTED_EDGE('',*,*,#109,.F.);
#42=ORIENTED_EDGE('',*,*,#104,.T.);
#43=ORIENTED_EDGE('',*,*,#110,.F.);
#44=ORIENTED_EDGE('',*,*,#111,.F.);
#45=ORIENTED_EDGE('',*,*,#112,.T.);
#46=ORIENTED_EDGE('',*,*,#108,.T.);
#47=ORIENTED_EDGE('',*,*,#113,.F.);
#48=ORIENTED_EDGE('',*,*,#114,.F.);
#49=ORIENTED_EDGE('',*,*,#115,.T.);
#50=ORIENTED_EDGE('',*,*,#111,.T.);
#51=ORIENTED_EDGE('',*,*,#116,.F.);
#52=ORIENTED_EDGE('',*,*,#117,.F.);
#53=ORIENTED_EDGE('',*,*,#118,.T.);
#54=ORIENTED_EDGE('',*,*,#114,.T.);
#55=ORIENTED_EDGE('',*,*,#119,.T.);
#56=ORIENTED_EDGE('',*,*,#120,.F.);
#57=ORIENTED_EDGE('',*,*,#121,.F.);
#58=ORIENTED_EDGE('',*,*,#117,.T.);
#59=ORIENTED_EDGE('',*,*,#122,.T.);
#60=ORIENTED_EDGE('',*,*,#123,.F.);
#61=ORIENTED_EDGE('',*,*,#124,.F.);
#62=ORIENTED_EDGE('',*,*,#120,.T.);
#63=ORIENTED_EDGE('',*,*,#125,.F.);
#64=ORIENTED_EDGE('',*,*,#126,.T.);
#65=ORIENTED_EDGE('',*,*,#127,.F.);
#66=ORIENTED_EDGE('',*,*,#128,.T.);
#67=ORIENTED_EDGE('',*,*,#129,.F.);
#68=ORIENTED_EDGE('',*,*,#130,.T.);
#69=ORIENTED_EDGE('',*,*,#131,.F.);
#70=ORIENTED_EDGE('',*,*,#132,.T.);
#71=ORIENTED_EDGE('',*,*,#133,.F.);
#72=ORIENTED_EDGE('',*,*,#106,.F.);
#73=ORIENTED_EDGE('',*,*,#134,.T.);
#74=ORIENTED_EDGE('',*,*,#123,.T.);
#75=ORIENTED_EDGE('',*,*,#105,.T.);
#76=ORIENTED_EDGE('',*,*,#109,.T.);
#77=ORIENTED_EDGE('',*,*,#112,.F.);
#78=ORIENTED_EDGE('',*,*,#115,.F.);
#79=ORIENTED_EDGE('',*,*,#118,.F.);
#80=ORIENTED_EDGE('',*,*,#121,.T.);
#81=ORIENTED_EDGE('',*,*,#124,.T.);
#82=ORIENTED_EDGE('',*,*,#134,.F.);
#83=ORIENTED_EDGE('',*,*,#135,.F.);
#84=ORIENTED_EDGE('',*,*,#132,.F.);
#85=ORIENTED_EDGE('',*,*,#130,.F.);
#86=ORIENTED_EDGE('',*,*,#128,.F.);
#87=ORIENTED_EDGE('',*,*,#126,.F.);
#88=ORIENTED_EDGE('',*,*,#103,.F.);
#89=ORIENTED_EDGE('',*,*,#133,.T.);
#90=ORIENTED_EDGE('',*,*,#122,.F.);
#91=ORIENTED_EDGE('',*,*,#119,.F.);
#92=ORIENTED_EDGE('',*,*,#116,.T.);
#93=ORIENTED_EDGE('',*,*,#113,.T.);
#94=ORIENTED_EDGE('',*,*,#110,.T.);
#95=ORIENTED_EDGE('',*,*,#107,.F.);
#96=ORIENTED_EDGE('',*,*,#136,.T.);
#97=ORIENTED_EDGE('',*,*,#131,.T.);
#98=ORIENTED_EDGE('',*,*,#129,.T.);
#99=ORIENTED_EDGE('',*,*,#127,.T.);
#100=ORIENTED_EDGE('',*,*,#125,.T.);
#101=ORIENTED_EDGE('',*,*,#135,.T.);
#102=ORIENTED_EDGE('',*,*,#136,.F.);
#103=EDGE_CURVE('',#137,#138,#163,.T.);
#104=EDGE_CURVE('',#139,#138,#164,.T.);
#105=EDGE_CURVE('',#140,#139,#165,.F.);
#106=EDGE_CURVE('',#140,#137,#166,.T.);
#107=EDGE_CURVE('',#138,#141,#167,.T.);
#108=EDGE_CURVE('',#142,#141,#168,.T.);
#109=EDGE_CURVE('',#139,#142,#169,.T.);
#110=EDGE_CURVE('',#143,#141,#170,.T.);
#111=EDGE_CURVE('',#144,#143,#171,.T.);
#112=EDGE_CURVE('',#144,#142,#172,.T.);
#113=EDGE_CURVE('',#145,#143,#173,.T.);
#114=EDGE_CURVE('',#146,#145,#174,.T.);
#115=EDGE_CURVE('',#146,#144,#175,.T.);
#116=EDGE_CURVE('',#147,#145,#176,.F.);
#117=EDGE_CURVE('',#148,#147,#177,.T.);
#118=EDGE_CURVE('',#148,#146,#178,.T.);
#119=EDGE_CURVE('',#147,#149,#179,.T.);
#120=EDGE_CURVE('',#150,#149,#180,.T.);
#121=EDGE_CURVE('',#148,#150,#181,.T.);
#122=EDGE_CURVE('',#149,#151,#182,.T.);
#123=EDGE_CURVE('',#152,#151,#183,.T.);
#124=EDGE_CURVE('',#150,#152,#184,.T.);
#125=EDGE_CURVE('',#153,#153,#20,.F.);
#126=EDGE_CURVE('',#154,#154,#21,.F.);
#127=EDGE_CURVE('',#155,#155,#22,.F.);
#128=EDGE_CURVE('',#156,#156,#23,.F.);
#129=EDGE_CURVE('',#157,#157,#24,.F.);
#130=EDGE_CURVE('',#158,#158,#25,.F.);
#131=EDGE_CURVE('',#159,#159,#26,.F.);
#132=EDGE_CURVE('',#160,#160,#27,.F.);
#133=EDGE_CURVE('',#137,#151,#185,.T.);
#134=EDGE_CURVE('',#140,#152,#186,.T.);
#135=EDGE_CURVE('',#161,#161,#28,.T.);
#136=EDGE_CURVE('',#162,#162,#29,.T.);
#137=VERTEX_POINT('',#413);
#138=VERTEX_POINT('',#414);
#139=VERTEX_POINT('',#416);
#140=VERTEX_POINT('',#418);
#141=VERTEX_POINT('',#422);
#142=VERTEX_POINT('',#424);
#143=VERTEX_POINT('',#428);
#144=VERTEX_POINT('',#430);
#145=VERTEX_POINT('',#434);
#146=VERTEX_POINT('',#436);
#147=VERTEX_POINT('',#440);
#148=VERTEX_POINT('',#442);
#149=VERTEX_POINT('',#446);
#150=VERTEX_POINT('',#448);
#151=VERTEX_POINT('',#452);
#152=VERTEX_POINT('',#454);
#153=VERTEX_POINT('',#458);
#154=VERTEX_POINT('',#460);
#155=VERTEX_POINT('',#463);
#156=VERTEX_POINT('',#465);
#157=VERTEX_POINT('',#468);
#158=VERTEX_POINT('',#470);
#159=VERTEX_POINT('',#473);
#160=VERTEX_POINT('',#475);
#161=VERTEX_POINT('',#481);
#162=VERTEX_POINT('',#484);
#163=LINE('',#412,#187);
#164=LINE('',#415,#188);
#165=LINE('',#417,#189);
#166=LINE('',#419,#190);
#167=LINE('',#421,#191);
#168=LINE('',#423,#192);
#169=LINE('',#425,#193);
#170=LINE('',#427,#194);
#171=LINE('',#429,#195);
#172=LINE('',#431,#196);
#173=LINE('',#433,#197);
#174=LINE('',#435,#198);
#175=LINE('',#437,#199);
#176=LINE('',#439,#200);
#177=LINE('',#441,#201);
#178=LINE('',#443,#202);
#179=LINE('',#445,#203);
#180=LINE('',#447,#204);
#181=LINE('',#449,#205);
#182=LINE('',#451,#206);
#183=LINE('',#453,#207);
#184=LINE('',#455,#208);
#185=LINE('',#477,#209);
#186=LINE('',#478,#210);
#187=VECTOR('',#338,1.);
#188=VECTOR('',#339,1.);
#189=VECTOR('',#340,1.);
#190=VECTOR('',#341,1.);
#191=VECTOR('',#344,1.);
#192=VECTOR('',#345,1.);
#193=VECTOR('',#346,1.);
#194=VECTOR('',#349,1.);
#195=VECTOR('',#350,1.);
#196=VECTOR('',#351,1.);
#197=VECTOR('',#354,1.);
#198=VECTOR('',#355,1.);
#199=VECTOR('',#356,1.);
#200=VECTOR('',#359,1.);
#201=VECTOR('',#360,1.);
#202=VECTOR('',#361,1.);
#203=VECTOR('',#364,1.);
#204=VECTOR('',#365,1.);
#205=VECTOR('',#366,1.);
#206=VECTOR('',#369,1.);
#207=VECTOR('',#370,1.);
#208=VECTOR('',#371,1.);
#209=VECTOR('',#398,1.);
#210=VECTOR('',#399,1.);
#211=EDGE_LOOP('',(#35,#36,#37,#38));
#212=EDGE_LOOP('',(#39,#40,#41,#42));
#213=EDGE_LOOP('',(#43,#44,#45,#46));
#214=EDGE_LOOP('',(#47,#48,#49,#50));
#215=EDGE_LOOP('',(#51,#52,#53,#54));
#216=EDGE_LOOP('',(#55,#56,#57,#58));
#217=EDGE_LOOP('',(#59,#60,#61,#62));
#218=EDGE_LOOP('',(#63));
#219=EDGE_LOOP('',(#64));
#220=EDGE_LOOP('',(#65));
#221=EDGE_LOOP('',(#66));
#222=EDGE_LOOP('',(#67));
#223=EDGE_LOOP('',(#68));
#224=EDGE_LOOP('',(#69));
#225=EDGE_LOOP('',(#70));
#226=EDGE_LOOP('',(#71,#72,#73,#74));
#227=EDGE_LOOP('',(#75,#76,#77,#78,#79,#80,#81,#82));
#228=EDGE_LOOP('',(#83));
#229=EDGE_LOOP('',(#84));
#230=EDGE_LOOP('',(#85));
#231=EDGE_LOOP('',(#86));
#232=EDGE_LOOP('',(#87));
#233=EDGE_LOOP('',(#88,#89,#90,#91,#92,#93,#94,#95));
#234=EDGE_LOOP('',(#96));
#235=EDGE_LOOP('',(#97));
#236=EDGE_LOOP('',(#98));
#237=EDGE_LOOP('',(#99));
#238=EDGE_LOOP('',(#100));
#239=EDGE_LOOP('',(#101));
#240=EDGE_LOOP('',(#102));
#241=FACE_BOUND('',#211,.T.);
#242=FACE_BOUND('',#212,.T.);
#243=FACE_BOUND('',#213,.T.);
#244=FACE_BOUND('',#214,.T.);
#245=FACE_BOUND('',#215,.T.);
#246=FACE_BOUND('',#216,.T.);
#247=FACE_BOUND('',#217,.T.);
#248=FACE_BOUND('',#218,.T.);
#249=FACE_BOUND('',#219,.T.);
#250=FACE_BOUND('',#220,.T.);
#251=FACE_BOUND('',#221,.T.);
#252=FACE_BOUND('',#222,.T.);
#253=FACE_BOUND('',#223,.T.);
#254=FACE_BOUND('',#224,.T.);
#255=FACE_BOUND('',#225,.T.);
#256=FACE_BOUND('',#226,.T.);
#257=FACE_BOUND('',#227,.T.);
#258=FACE_BOUND('',#228,.T.);
#259=FACE_BOUND('',#229,.T.);
#260=FACE_BOUND('',#230,.T.);
#261=FACE_BOUND('',#231,.T.);
#262=FACE_BOUND('',#232,.T.);
#263=FACE_BOUND('',#233,.T.);
#264=FACE_BOUND('',#234,.T.);
#265=FACE_BOUND('',#235,.T.);
#266=FACE_BOUND('',#236,.T.);
#267=FACE_BOUND('',#237,.T.);
#268=FACE_BOUND('',#238,.T.);
#269=FACE_BOUND('',#239,.T.);
#270=FACE_BOUND('',#240,.T.);
#271=PLANE('',#309);
#272=PLANE('',#310);
#273=PLANE('',#311);
#274=PLANE('',#312);
#275=PLANE('',#313);
#276=PLANE('',#314);
#277=PLANE('',#315);
#278=PLANE('',#328);
#279=PLANE('',#329);
#280=PLANE('',#331);
#281=ADVANCED_FACE('',(#241),#271,.F.);
#282=ADVANCED_FACE('',(#242),#272,.F.);
#283=ADVANCED_FACE('',(#243),#273,.T.);
#284=ADVANCED_FACE('',(#244),#274,.T.);
#285=ADVANCED_FACE('',(#245),#275,.T.);
#286=ADVANCED_FACE('',(#246),#276,.F.);
#287=ADVANCED_FACE('',(#247),#277,.F.);
#288=ADVANCED_FACE('',(#248,#249),#30,.F.);
#289=ADVANCED_FACE('',(#250,#251),#31,.F.);
#290=ADVANCED_FACE('',(#252,#253),#32,.F.);
#291=ADVANCED_FACE('',(#254,#255),#33,.F.);
#292=ADVANCED_FACE('',(#256),#278,.T.);
#293=ADVANCED_FACE('',(#257,#258,#259,#260,#261,#262),#279,.T.);
#294=ADVANCED_FACE('',(#263,#264,#265,#266,#267,#268),#280,.F.);
#295=ADVANCED_FACE('',(#269,#270),#34,.F.);
#296=CLOSED_SHELL('',(#281,#282,#283,#284,#285,#286,#287,#288,#289,#290,
#291,#292,#293,#294,#295));
#297=STYLED_ITEM('',(#298),#305);
#298=PRESENTATION_STYLE_ASSIGNMENT((#299));
#299=SURFACE_STYLE_USAGE(.BOTH.,#300);
#300=SURFACE_SIDE_STYLE('',(#301));
#301=SURFACE_STYLE_FILL_AREA(#302);
#302=FILL_AREA_STYLE('',(#303));
#303=FILL_AREA_STYLE_COLOUR('',#304);
#304=COLOUR_RGB('',0.43921568627451,0.474509803921569,0.501960784313726);
#305=MANIFOLD_SOLID_BREP('top_plate:1__Body1',#296);
#306=SHAPE_DEFINITION_REPRESENTATION(#492,#307);
#307=SHAPE_REPRESENTATION('top_plate:1__Body1',(#308),#487);
#308=AXIS2_PLACEMENT_3D('',#410,#334,#335);
#309=AXIS2_PLACEMENT_3D('',#411,#336,#337);
#310=AXIS2_PLACEMENT_3D('',#420,#342,#343);
#311=AXIS2_PLACEMENT_3D('',#426,#347,#348);
#312=AXIS2_PLACEMENT_3D('',#432,#352,#353);
#313=AXIS2_PLACEMENT_3D('',#438,#357,#358);
#314=AXIS2_PLACEMENT_3D('',#444,#362,#363);
#315=AXIS2_PLACEMENT_3D('',#450,#367,#368);
#316=AXIS2_PLACEMENT_3D('',#456,#372,#373);
#317=AXIS2_PLACEMENT_3D('',#457,#374,#375);
#318=AXIS2_PLACEMENT_3D('',#459,#376,#377);
#319=AXIS2_PLACEMENT_3D('',#461,#378,#379);
#320=AXIS2_PLACEMENT_3D('',#462,#380,#381);
#321=AXIS2_PLACEMENT_3D('',#464,#382,#383);
#322=AXIS2_PLACEMENT_3D('',#466,#384,#385);
#323=AXIS2_PLACEMENT_3D('',#467,#386,#387);
#324=AXIS2_PLACEMENT_3D('',#469,#388,#389);
#325=AXIS2_PLACEMENT_3D('',#471,#390,#391);
#326=AXIS2_PLACEMENT_3D('',#472,#392,#393);
#327=AXIS2_PLACEMENT_3D('',#474,#394,#395);
#328=AXIS2_PLACEMENT_3D('',#476,#396,#397);
#329=AXIS2_PLACEMENT_3D('',#479,#400,#401);
#330=AXIS2_PLACEMENT_3D('',#480,#402,#403);
#331=AXIS2_PLACEMENT_3D('',#482,#404,#405);
#332=AXIS2_PLACEMENT_3D('',#483,#406,#407);
#333=AXIS2_PLACEMENT_3D('',#485,#408,#409);
#334=DIRECTION('',(0.,0.,1.));
#335=DIRECTION('',(1.,0.,0.));
#336=DIRECTION('',(1.98679854084673E-16,0.,-1.));
#337=DIRECTION('',(-1.,0.,-1.98679854084673E-16));
#338=DIRECTION('',(-1.,0.,-1.98679854084673E-16));
#339=DIRECTION('',(0.,1.,0.));
#340=DIRECTION('',(1.,0.,0.));
#341=DIRECTION('',(0.,1.,0.));
#342=DIRECTION('',(0.707106781186548,0.,-0.707106781186547));
#343=DIRECTION('',(-0.707106781186547,0.,-0.707106781186548));
#344=DIRECTION('',(-0.707106781186547,0.,-0.707106781186548));
#345=DIRECTION('',(0.,1.,0.));
#346=DIRECTION('',(-0.707106781186548,0.,-0.707106781186548));
#347=DIRECTION('',(-1.,0.,-1.98679854084673E-16));
#348=DIRECTION('',(-1.98679854084673E-16,0.,1.));
#349=DIRECTION('',(0.,0.,1.));
#350=DIRECTION('',(0.,1.,0.));
#351=DIRECTION('',(-1.98679854084673E-16,0.,1.));
#352=DIRECTION('',(-0.707106781186548,0.,-0.707106781186547));
#353=DIRECTION('',(-0.707106781186547,0.,0.707106781186548));
#354=DIRECTION('',(-0.707106781186548,0.,0.707106781186548));
#355=DIRECTION('',(0.,1.,0.));
#356=DIRECTION('',(-0.707106781186547,0.,0.707106781186548));
#357=DIRECTION('',(9.93399270423368E-17,0.,-1.));
#358=DIRECTION('',(-1.,0.,-9.93399270423368E-17));
#359=DIRECTION('',(1.,0.,0.));
#360=DIRECTION('',(0.,1.,0.));
#361=DIRECTION('',(-1.,0.,-9.93399270423368E-17));
#362=DIRECTION('',(-0.707106781186548,0.,0.707106781186547));
#363=DIRECTION('',(0.707106781186547,0.,0.707106781186548));
#364=DIRECTION('',(0.707106781186547,0.,0.707106781186548));
#365=DIRECTION('',(0.,1.,0.));
#366=DIRECTION('',(0.707106781186548,0.,0.707106781186548));
#367=DIRECTION('',(-1.,0.,-1.98679854084673E-16));
#368=DIRECTION('',(-1.98679854084673E-16,0.,1.));
#369=DIRECTION('',(-1.98679854084673E-16,0.,1.));
#370=DIRECTION('',(0.,1.,0.));
#371=DIRECTION('',(0.,0.,1.));
#372=DIRECTION('',(0.,1.,0.));
#373=DIRECTION('',(0.,0.,1.));
#374=DIRECTION('',(0.,1.,0.));
#375=DIRECTION('',(0.,0.,1.));
#376=DIRECTION('',(0.,1.,0.));
#377=DIRECTION('',(0.,0.,1.));
#378=DIRECTION('',(0.,1.,0.));
#379=DIRECTION('',(0.,0.,1.));
#380=DIRECTION('',(0.,1.,0.));
#381=DIRECTION('',(0.,0.,1.));
#382=DIRECTION('',(0.,1.,0.));
#383=DIRECTION('',(0.,0.,1.));
#384=DIRECTION('',(0.,1.,0.));
#385=DIRECTION('',(0.,0.,1.));
#386=DIRECTION('',(0.,1.,0.));
#387=DIRECTION('',(0.,0.,1.));
#388=DIRECTION('',(0.,1.,0.));
#389=DIRECTION('',(0.,0.,1.));
#390=DIRECTION('',(0.,1.,0.));
#391=DIRECTION('',(0.,0.,1.));
#392=DIRECTION('',(0.,1.,0.));
#393=DIRECTION('',(0.,0.,1.));
#394=DIRECTION('',(0.,1.,0.));
#395=DIRECTION('',(0.,0.,1.));
#396=DIRECTION('',(0.707106781186547,0.,0.707106781186548));
#397=DIRECTION('',(0.707106781186548,0.,-0.707106781186547));
#398=DIRECTION('',(0.707106781186548,0.,-0.707106781186548));
#399=DIRECTION('',(0.707106781186548,0.,-0.707106781186547));
#400=DIRECTION('',(0.,-1.,0.));
#401=DIRECTION('',(1.,0.,0.));
#402=DIRECTION('',(0.,-1.,0.));
#403=DIRECTION('',(0.,0.,-1.));
#404=DIRECTION('',(0.,-1.,0.));
#405=DIRECTION('',(1.,0.,0.));
#406=DIRECTION('',(0.,-1.,0.));
#407=DIRECTION('',(0.,0.,-1.));
#408=DIRECTION('',(0.,-1.,0.));
#409=DIRECTION('',(0.,0.,-1.));
#410=CARTESIAN_POINT('',(0.,0.,0.));
#411=CARTESIAN_POINT('',(-1.38777878078145E-17,-0.009525,0.09525));
#412=CARTESIAN_POINT('',(-1.38777878078145E-17,0.,0.09525));
#413=CARTESIAN_POINT('',(0.06985,0.,0.09525));
#414=CARTESIAN_POINT('',(-0.06985,0.,0.09525));
#415=CARTESIAN_POINT('',(-0.06985,-0.009525,0.09525));
#416=CARTESIAN_POINT('',(-0.06985,-0.009525,0.09525));
#417=CARTESIAN_POINT('',(0.,-0.009525,0.09525));
#418=CARTESIAN_POINT('',(0.06985,-0.009525,0.09525));
#419=CARTESIAN_POINT('',(0.06985,-0.009525,0.09525));
#420=CARTESIAN_POINT('',(-0.08255,-0.009525,0.08255));
#421=CARTESIAN_POINT('',(-0.08255,0.,0.08255));
#422=CARTESIAN_POINT('',(-0.09525,0.,0.06985));
#423=CARTESIAN_POINT('',(-0.09525,-0.009525,0.06985));
#424=CARTESIAN_POINT('',(-0.09525,-0.009525,0.06985));
#425=CARTESIAN_POINT('',(-0.06985,-0.009525,0.09525));
#426=CARTESIAN_POINT('',(-0.09525,-0.009525,0.));
#427=CARTESIAN_POINT('',(-0.09525,0.,0.));
#428=CARTESIAN_POINT('',(-0.09525,0.,-0.06985));
#429=CARTESIAN_POINT('',(-0.09525,-0.009525,-0.06985));
#430=CARTESIAN_POINT('',(-0.09525,-0.009525,-0.06985));
#431=CARTESIAN_POINT('',(-0.09525,-0.009525,0.));
#432=CARTESIAN_POINT('',(-0.08255,-0.009525,-0.08255));
#433=CARTESIAN_POINT('',(-0.06985,0.,-0.09525));
#434=CARTESIAN_POINT('',(-0.06985,0.,-0.09525));
#435=CARTESIAN_POINT('',(-0.06985,-0.009525,-0.09525));
#436=CARTESIAN_POINT('',(-0.06985,-0.009525,-0.09525));
#437=CARTESIAN_POINT('',(-0.08255,-0.009525,-0.08255));
#438=CARTESIAN_POINT('',(2.77555756156289E-17,-0.009525,-0.09525));
#439=CARTESIAN_POINT('',(0.,0.,-0.09525));
#440=CARTESIAN_POINT('',(0.06985,0.,-0.09525));
#441=CARTESIAN_POINT('',(0.06985,-0.009525,-0.09525));
#442=CARTESIAN_POINT('',(0.06985,-0.009525,-0.09525));
#443=CARTESIAN_POINT('',(2.77555756156289E-17,-0.009525,-0.09525));
#444=CARTESIAN_POINT('',(0.08255,-0.009525,-0.08255));
#445=CARTESIAN_POINT('',(0.08255,0.,-0.08255));
#446=CARTESIAN_POINT('',(0.09525,0.,-0.06985));
#447=CARTESIAN_POINT('',(0.09525,-0.009525,-0.06985));
#448=CARTESIAN_POINT('',(0.09525,-0.009525,-0.06985));
#449=CARTESIAN_POINT('',(0.06985,-0.009525,-0.09525));
#450=CARTESIAN_POINT('',(0.09525,-0.009525,2.77555756156289E-17));
#451=CARTESIAN_POINT('',(0.09525,0.,2.77555756156289E-17));
#452=CARTESIAN_POINT('',(0.09525,0.,0.06985));
#453=CARTESIAN_POINT('',(0.09525,-0.009525,0.06985));
#454=CARTESIAN_POINT('',(0.09525,-0.009525,0.06985));
#455=CARTESIAN_POINT('',(0.09525,-0.009525,0.));
#456=CARTESIAN_POINT('',(-0.0635,-0.009525,0.0635));
#457=CARTESIAN_POINT('',(-0.0635,0.,0.0635));
#458=CARTESIAN_POINT('',(-0.0635,0.,0.0670687));
#459=CARTESIAN_POINT('',(-0.0635,-0.009525,0.0635));
#460=CARTESIAN_POINT('',(-0.0635,-0.009525,0.0670687));
#461=CARTESIAN_POINT('',(0.0635,-0.009525,0.0635));
#462=CARTESIAN_POINT('',(0.0635,0.,0.0635));
#463=CARTESIAN_POINT('',(0.0635,0.,0.0670687));
#464=CARTESIAN_POINT('',(0.0635,-0.009525,0.0635));
#465=CARTESIAN_POINT('',(0.0635,-0.009525,0.0670687));
#466=CARTESIAN_POINT('',(0.0635,-0.009525,-0.0635));
#467=CARTESIAN_POINT('',(0.0635,0.,-0.0635));
#468=CARTESIAN_POINT('',(0.0635,0.,-0.0599313));
#469=CARTESIAN_POINT('',(0.0635,-0.009525,-0.0635));
#470=CARTESIAN_POINT('',(0.0635,-0.009525,-0.0599313));
#471=CARTESIAN_POINT('',(-0.0635,-0.009525,-0.0635));
#472=CARTESIAN_POINT('',(-0.0635,0.,-0.0635));
#473=CARTESIAN_POINT('',(-0.0635,0.,-0.0599313));
#474=CARTESIAN_POINT('',(-0.0635,-0.009525,-0.0635));
#475=CARTESIAN_POINT('',(-0.0635,-0.009525,-0.0599313));
#476=CARTESIAN_POINT('',(0.08255,-0.009525,0.08255));
#477=CARTESIAN_POINT('',(0.06985,0.,0.09525));
#478=CARTESIAN_POINT('',(0.08255,-0.009525,0.08255));
#479=CARTESIAN_POINT('',(0.,-0.009525,0.));
#480=CARTESIAN_POINT('',(0.,-0.009525,3.40222188888124E-18));
#481=CARTESIAN_POINT('',(0.,-0.009525,-0.0555625));
#482=CARTESIAN_POINT('',(0.,0.,0.));
#483=CARTESIAN_POINT('',(0.,0.,3.40222188888124E-18));
#484=CARTESIAN_POINT('',(0.,0.,-0.0555625));
#485=CARTESIAN_POINT('',(0.,0.045593,3.40222188888124E-18));
#486=MECHANICAL_DESIGN_GEOMETRIC_PRESENTATION_REPRESENTATION('',(#297),
#487);
#487=(
GEOMETRIC_REPRESENTATION_CONTEXT(3)
GLOBAL_UNCERTAINTY_ASSIGNED_CONTEXT((#488))
GLOBAL_UNIT_ASSIGNED_CONTEXT((#491,#490,#489))
REPRESENTATION_CONTEXT('top_plate:1__Body1','TOP_LEVEL_ASSEMBLY_PART')
);
#488=UNCERTAINTY_MEASURE_WITH_UNIT(LENGTH_MEASURE(1.E-8),#491,
'DISTANCE_ACCURACY_VALUE','Maximum Tolerance applied to model');
#489=(
NAMED_UNIT(*)
SI_UNIT($,.STERADIAN.)
SOLID_ANGLE_UNIT()
);
#490=(
NAMED_UNIT(*)
PLANE_ANGLE_UNIT()
SI_UNIT($,.RADIAN.)
);
#491=(
LENGTH_UNIT()
NAMED_UNIT(*)
SI_UNIT($,.METRE.)
);
#492=PRODUCT_DEFINITION_SHAPE('','',#493);
#493=PRODUCT_DEFINITION('','',#495,#494);
#494=PRODUCT_DEFINITION_CONTEXT('',#501,'design');
#495=PRODUCT_DEFINITION_FORMATION_WITH_SPECIFIED_SOURCE('','',#497,
 .NOT_KNOWN.);
#496=PRODUCT_RELATED_PRODUCT_CATEGORY('','',(#497));
#497=PRODUCT('top_plate:1__Body1','top_plate:1__Body1',
'top_plate:1__Body1',(#499));
#498=PRODUCT_CATEGORY('','');
#499=PRODUCT_CONTEXT('',#501,'mechanical');
#500=APPLICATION_PROTOCOL_DEFINITION('international standard',
'automotive_design',2010,#501);
#501=APPLICATION_CONTEXT(
'core data for automotive mechanical design processes');
ENDSEC;
END-ISO-10303-21;
