ISO-10303-21;
HEADER;
/* Generated by software containing ST-Developer
 * from STEP Tools, Inc. (www.steptools.com) 
 */
/* OPTION: using custom renumber hook */

FILE_DESCRIPTION(
/* description */ ('STEP AP214',
'CAx-IF Rec.Pracs.---User Defined Attributes---1.5---2016-08-15'),
/* implementation_level */ '2;1');

FILE_NAME(
/* name */ 'BPL-700 Assembly - center_solenoid-1__Body1',
/* time_stamp */ '2026-09-05T23:29:19Z',
/* author */ (''),
/* organization */ (''),
/* preprocessor_version */ 'ST-DEVELOPER v20',
/* originating_system */ 'ONSHAPE BY PTC INC, 1.220',
/* authorisation */ '  ');

FILE_SCHEMA (('AUTOMOTIVE_DESIGN {1 0 10303 214 3 1 1}'));
ENDSEC;

DATA;
#10=PROPERTY_DEFINITION_REPRESENTATION(#14,#12);
#11=PROPERTY_DEFINITION_REPRESENTATION(#15,#13);
#12=REPRESENTATION('',(#16),#167);
#13=REPRESENTATION('',(#17),#167);
#14=PROPERTY_DEFINITION('pmi validation property','',#172);
#15=PROPERTY_DEFINITION('pmi validation property','',#172);
#16=VALUE_REPRESENTATION_ITEM('number of annotations',COUNT_MEASURE(0.));
#17=VALUE_REPRESENTATION_ITEM('number of views',COUNT_MEASURE(0.));
#18=SHAPE_REPRESENTATION_RELATIONSHIP('','',#102,#19);
#19=ADVANCED_BREP_SHAPE_REPRESENTATION('',(#100),#167);
#20=CYLINDRICAL_SURFACE('',#109,0.0025527);
#21=CYLINDRICAL_SURFACE('',#110,0.015875);
#22=CYLINDRICAL_SURFACE('',#116,0.0307975);
#23=VERTEX_LOOP('',#46);
#24=CONICAL_SURFACE('',#107,0.0025527,1.02974425867665);
#25=ORIENTED_EDGE('',*,*,#37,.T.);
#26=ORIENTED_EDGE('',*,*,#38,.T.);
#27=ORIENTED_EDGE('',*,*,#39,.F.);
#28=ORIENTED_EDGE('',*,*,#39,.T.);
#29=ORIENTED_EDGE('',*,*,#38,.F.);
#30=ORIENTED_EDGE('',*,*,#40,.T.);
#31=ORIENTED_EDGE('',*,*,#37,.F.);
#32=ORIENTED_EDGE('',*,*,#41,.F.);
#33=ORIENTED_EDGE('',*,*,#40,.F.);
#34=ORIENTED_EDGE('',*,*,#42,.T.);
#35=ORIENTED_EDGE('',*,*,#42,.F.);
#36=ORIENTED_EDGE('',*,*,#41,.T.);
#37=EDGE_CURVE('',#43,#43,#50,.T.);
#38=EDGE_CURVE('',#44,#44,#51,.T.);
#39=EDGE_CURVE('',#45,#45,#52,.T.);
#40=EDGE_CURVE('',#47,#47,#53,.T.);
#41=EDGE_CURVE('',#48,#48,#54,.F.);
#42=EDGE_CURVE('',#49,#49,#55,.F.);
#43=VERTEX_POINT('',#148);
#44=VERTEX_POINT('',#150);
#45=VERTEX_POINT('',#153);
#46=VERTEX_POINT('',#154);
#47=VERTEX_POINT('',#158);
#48=VERTEX_POINT('',#161);
#49=VERTEX_POINT('',#164);
#50=CIRCLE('',#105,0.015875);
#51=CIRCLE('',#106,0.0025527);
#52=CIRCLE('',#108,0.0025527);
#53=CIRCLE('',#111,0.015875);
#54=CIRCLE('',#113,0.0307975);
#55=CIRCLE('',#115,0.0307975);
#56=EDGE_LOOP('',(#25));
#57=EDGE_LOOP('',(#26));
#58=EDGE_LOOP('',(#27));
#59=EDGE_LOOP('',(#28));
#60=EDGE_LOOP('',(#29));
#61=EDGE_LOOP('',(#30));
#62=EDGE_LOOP('',(#31));
#63=EDGE_LOOP('',(#32));
#64=EDGE_LOOP('',(#33));
#65=EDGE_LOOP('',(#34));
#66=EDGE_LOOP('',(#35));
#67=EDGE_LOOP('',(#36));
#68=FACE_BOUND('',#56,.T.);
#69=FACE_BOUND('',#57,.T.);
#70=FACE_BOUND('',#58,.T.);
#71=FACE_BOUND('',#23,.T.);
#72=FACE_BOUND('',#59,.T.);
#73=FACE_BOUND('',#60,.T.);
#74=FACE_BOUND('',#61,.T.);
#75=FACE_BOUND('',#62,.T.);
#76=FACE_BOUND('',#63,.T.);
#77=FACE_BOUND('',#64,.T.);
#78=FACE_BOUND('',#65,.T.);
#79=FACE_BOUND('',#66,.T.);
#80=FACE_BOUND('',#67,.T.);
#81=PLANE('',#104);
#82=PLANE('',#112);
#83=PLANE('',#114);
#84=ADVANCED_FACE('',(#68,#69),#81,.F.);
#85=ADVANCED_FACE('',(#70,#71),#24,.F.);
#86=ADVANCED_FACE('',(#72,#73),#20,.F.);
#87=ADVANCED_FACE('',(#74,#75),#21,.T.);
#88=ADVANCED_FACE('',(#76,#77),#82,.T.);
#89=ADVANCED_FACE('',(#78),#83,.T.);
#90=ADVANCED_FACE('',(#79,#80),#22,.T.);
#91=CLOSED_SHELL('',(#84,#85,#86,#87,#88,#89,#90));
#92=STYLED_ITEM('',(#93),#100);
#93=PRESENTATION_STYLE_ASSIGNMENT((#94));
#94=SURFACE_STYLE_USAGE(.BOTH.,#95);
#95=SURFACE_SIDE_STYLE('',(#96));
#96=SURFACE_STYLE_FILL_AREA(#97);
#97=FILL_AREA_STYLE('',(#98));
#98=FILL_AREA_STYLE_COLOUR('',#99);
#99=COLOUR_RGB('',0.43921568627451,0.474509803921569,0.501960784313726);
#100=MANIFOLD_SOLID_BREP('center_solenoid:1__Body1',#91);
#101=SHAPE_DEFINITION_REPRESENTATION(#172,#102);
#102=SHAPE_REPRESENTATION('center_solenoid:1__Body1',(#103),#167);
#103=AXIS2_PLACEMENT_3D('',#145,#117,#118);
#104=AXIS2_PLACEMENT_3D('',#146,#119,#120);
#105=AXIS2_PLACEMENT_3D('',#147,#121,#122);
#106=AXIS2_PLACEMENT_3D('',#149,#123,#124);
#107=AXIS2_PLACEMENT_3D('',#151,#125,#126);
#108=AXIS2_PLACEMENT_3D('',#152,#127,#128);
#109=AXIS2_PLACEMENT_3D('',#155,#129,#130);
#110=AXIS2_PLACEMENT_3D('',#156,#131,#132);
#111=AXIS2_PLACEMENT_3D('',#157,#133,#134);
#112=AXIS2_PLACEMENT_3D('',#159,#135,#136);
#113=AXIS2_PLACEMENT_3D('',#160,#137,#138);
#114=AXIS2_PLACEMENT_3D('',#162,#139,#140);
#115=AXIS2_PLACEMENT_3D('',#163,#141,#142);
#116=AXIS2_PLACEMENT_3D('',#165,#143,#144);
#117=DIRECTION('',(0.,0.,1.));
#118=DIRECTION('',(1.,0.,0.));
#119=DIRECTION('',(0.,0.,1.));
#120=DIRECTION('',(1.,0.,0.));
#121=DIRECTION('',(0.,0.,-1.));
#122=DIRECTION('',(-1.,0.,0.));
#123=DIRECTION('',(0.,0.,1.));
#124=DIRECTION('',(1.,0.,0.));
#125=DIRECTION('',(0.,0.,-1.));
#126=DIRECTION('',(-1.,0.,0.));
#127=DIRECTION('',(0.,0.,1.));
#128=DIRECTION('',(1.,0.,0.));
#129=DIRECTION('',(0.,0.,1.));
#130=DIRECTION('',(1.,0.,0.));
#131=DIRECTION('',(0.,0.,-1.));
#132=DIRECTION('',(-1.,0.,0.));
#133=DIRECTION('',(0.,0.,-1.));
#134=DIRECTION('',(-1.,0.,0.));
#135=DIRECTION('',(0.,0.,-1.));
#136=DIRECTION('',(1.,0.,0.));
#137=DIRECTION('',(0.,0.,-1.));
#138=DIRECTION('',(-1.,0.,0.));
#139=DIRECTION('',(0.,0.,1.));
#140=DIRECTION('',(1.,0.,0.));
#141=DIRECTION('',(0.,0.,-1.));
#142=DIRECTION('',(-1.,0.,0.));
#143=DIRECTION('',(0.,0.,-1.));
#144=DIRECTION('',(-1.,0.,0.));
#145=CARTESIAN_POINT('',(0.,0.,0.));
#146=CARTESIAN_POINT('',(0.,0.,0.));
#147=CARTESIAN_POINT('',(0.,-9.72063396823212E-19,0.));
#148=CARTESIAN_POINT('',(-0.015875,-9.72063396823212E-19,0.));
#149=CARTESIAN_POINT('',(0.,0.,0.));
#150=CARTESIAN_POINT('',(0.0025527,0.,0.));
#151=CARTESIAN_POINT('',(0.,0.,0.0080000094));
#152=CARTESIAN_POINT('',(0.,0.,0.0080000094));
#153=CARTESIAN_POINT('',(0.0025527,0.,0.0080000094));
#154=CARTESIAN_POINT('',(4.33680868994202E-19,0.,0.00953382630219167));
#155=CARTESIAN_POINT('',(0.,0.,0.));
#156=CARTESIAN_POINT('',(0.,-9.72063396823212E-19,0.1016));
#157=CARTESIAN_POINT('',(0.,-9.72063396823212E-19,0.1016));
#158=CARTESIAN_POINT('',(-0.015875,-9.72063396823212E-19,0.1016));
#159=CARTESIAN_POINT('',(0.,0.,0.1016));
#160=CARTESIAN_POINT('',(0.,1.88580298983703E-18,0.1016));
#161=CARTESIAN_POINT('',(-0.0307975,1.88580298983703E-18,0.1016));
#162=CARTESIAN_POINT('',(0.,0.,0.111125));
#163=CARTESIAN_POINT('',(0.,1.88580298983703E-18,0.111125));
#164=CARTESIAN_POINT('',(-0.0307975,1.88580298983703E-18,0.111125));
#165=CARTESIAN_POINT('',(0.,1.88580298983703E-18,0.1016));
#166=MECHANICAL_DESIGN_GEOMETRIC_PRESENTATION_REPRESENTATION('',(#92),#167);
#167=(
GEOMETRIC_REPRESENTATION_CONTEXT(3)
GLOBAL_UNCERTAINTY_ASSIGNED_CONTEXT((#168))
GLOBAL_UNIT_ASSIGNED_CONTEXT((#171,#170,#169))
REPRESENTATION_CONTEXT('center_solenoid:1__Body1',
'TOP_LEVEL_ASSEMBLY_PART')
);
#168=UNCERTAINTY_MEASURE_WITH_UNIT(LENGTH_MEASURE(1.E-8),#171,
'DISTANCE_ACCURACY_VALUE','Maximum Tolerance applied to model');
#169=(
NAMED_UNIT(*)
SI_UNIT($,.STERADIAN.)
SOLID_ANGLE_UNIT()
);
#170=(
NAMED_UNIT(*)
PLANE_ANGLE_UNIT()
SI_UNIT($,.RADIAN.)
);
#171=(
LENGTH_UNIT()
NAMED_UNIT(*)
SI_UNIT($,.METRE.)
);
#172=PRODUCT_DEFINITION_SHAPE('','',#173);
#173=PRODUCT_DEFINITION('','',#175,#174);
#174=PRODUCT_DEFINITION_CONTEXT('',#181,'design');
#175=PRODUCT_DEFINITION_FORMATION_WITH_SPECIFIED_SOURCE('','',#177,
 .NOT_KNOWN.);
#176=PRODUCT_RELATED_PRODUCT_CATEGORY('','',(#177));
#177=PRODUCT('center_solenoid:1__Body1','center_solenoid:1__Body1',
'center_solenoid:1__Body1',(#179));
#178=PRODUCT_CATEGORY('','');
#179=PRODUCT_CONTEXT('',#181,'mechanical');
#180=APPLICATION_PROTOCOL_DEFINITION('international standard',
'automotive_design',2010,#181);
#181=APPLICATION_CONTEXT(
'core data for automotive mechanical design processes');
ENDSEC;
END-ISO-10303-21;
