ISO-10303-21;
HEADER;
/* Generated by software containing ST-Developer
 * from STEP Tools, Inc. (www.steptools.com) 
 */
/* OPTION: using custom renumber hook */

FILE_DESCRIPTION(
/* description */ ('STEP AP214',
'CAx-IF Rec.Pracs.---User Defined Attributes---1.5---2016-08-15'),
/* implementation_level */ '2;1');

FILE_NAME(
/* name */ 'BPL-700 Assembly - outer_solenoid-1__Body1',
/* time_stamp */ '2026-09-05T23:29:19Z',
/* author */ (''),
/* organization */ (''),
/* preprocessor_version */ 'ST-DEVELOPER v20',
/* originating_system */ 'ONSHAPE BY PTC INC, 1.220',
/* authorisation */ '  ');

FILE_SCHEMA (('AUTOMOTIVE_DESIGN {1 0 10303 214 3 1 1}'));
ENDSEC;

DATA;
#10=PROPERTY_DEFINITION_REPRESENTATION(#14,#12);
#11=PROPERTY_DEFINITION_REPRESENTATION(#15,#13);
#12=REPRESENTATION('',(#16),#171);
#13=REPRESENTATION('',(#17),#171);
#14=PROPERTY_DEFINITION('pmi validation property','',#176);
#15=PROPERTY_DEFINITION('pmi validation property','',#176);
#16=VALUE_REPRESENTATION_ITEM('number of annotations',COUNT_MEASURE(0.));
#17=VALUE_REPRESENTATION_ITEM('number of views',COUNT_MEASURE(0.));
#18=SHAPE_REPRESENTATION_RELATIONSHIP('','',#105,#19);
#19=ADVANCED_BREP_SHAPE_REPRESENTATION('',(#103),#171);
#20=VERTEX_LOOP('',#49);
#21=VERTEX_LOOP('',#51);
#22=CONICAL_SURFACE('',#114,0.0025527,1.02974425867666);
#23=CONICAL_SURFACE('',#117,0.0025527,1.02974425867665);
#24=PLANE('',#110);
#25=PLANE('',#112);
#26=ORIENTED_EDGE('',*,*,#38,.F.);
#27=ORIENTED_EDGE('',*,*,#39,.T.);
#28=ORIENTED_EDGE('',*,*,#38,.T.);
#29=ORIENTED_EDGE('',*,*,#40,.T.);
#30=ORIENTED_EDGE('',*,*,#39,.F.);
#31=ORIENTED_EDGE('',*,*,#41,.T.);
#32=ORIENTED_EDGE('',*,*,#42,.F.);
#33=ORIENTED_EDGE('',*,*,#42,.T.);
#34=ORIENTED_EDGE('',*,*,#40,.F.);
#35=ORIENTED_EDGE('',*,*,#43,.F.);
#36=ORIENTED_EDGE('',*,*,#43,.T.);
#37=ORIENTED_EDGE('',*,*,#41,.F.);
#38=EDGE_CURVE('',#44,#44,#52,.F.);
#39=EDGE_CURVE('',#45,#45,#53,.F.);
#40=EDGE_CURVE('',#46,#46,#54,.T.);
#41=EDGE_CURVE('',#47,#47,#55,.T.);
#42=EDGE_CURVE('',#48,#48,#56,.T.);
#43=EDGE_CURVE('',#50,#50,#57,.T.);
#44=VERTEX_POINT('',#151);
#45=VERTEX_POINT('',#153);
#46=VERTEX_POINT('',#156);
#47=VERTEX_POINT('',#159);
#48=VERTEX_POINT('',#162);
#49=VERTEX_POINT('',#163);
#50=VERTEX_POINT('',#167);
#51=VERTEX_POINT('',#168);
#52=CIRCLE('',#108,0.015875);
#53=CIRCLE('',#109,0.015875);
#54=CIRCLE('',#111,0.0025527);
#55=CIRCLE('',#113,0.0025527);
#56=CIRCLE('',#115,0.0025527);
#57=CIRCLE('',#118,0.0025527);
#58=EDGE_LOOP('',(#26));
#59=EDGE_LOOP('',(#27));
#60=EDGE_LOOP('',(#28));
#61=EDGE_LOOP('',(#29));
#62=EDGE_LOOP('',(#30));
#63=EDGE_LOOP('',(#31));
#64=EDGE_LOOP('',(#32));
#65=EDGE_LOOP('',(#33));
#66=EDGE_LOOP('',(#34));
#67=EDGE_LOOP('',(#35));
#68=EDGE_LOOP('',(#36));
#69=EDGE_LOOP('',(#37));
#70=FACE_BOUND('',#58,.T.);
#71=FACE_BOUND('',#59,.T.);
#72=FACE_BOUND('',#60,.T.);
#73=FACE_BOUND('',#61,.T.);
#74=FACE_BOUND('',#62,.T.);
#75=FACE_BOUND('',#63,.T.);
#76=FACE_BOUND('',#64,.T.);
#77=FACE_BOUND('',#20,.T.);
#78=FACE_BOUND('',#65,.T.);
#79=FACE_BOUND('',#66,.T.);
#80=FACE_BOUND('',#67,.T.);
#81=FACE_BOUND('',#21,.T.);
#82=FACE_BOUND('',#68,.T.);
#83=FACE_BOUND('',#69,.T.);
#84=CYLINDRICAL_SURFACE('',#107,0.015875);
#85=CYLINDRICAL_SURFACE('',#116,0.0025527);
#86=CYLINDRICAL_SURFACE('',#119,0.0025527);
#87=ADVANCED_FACE('',(#70,#71),#84,.T.);
#88=ADVANCED_FACE('',(#72,#73),#24,.T.);
#89=ADVANCED_FACE('',(#74,#75),#25,.F.);
#90=ADVANCED_FACE('',(#76,#77),#22,.F.);
#91=ADVANCED_FACE('',(#78,#79),#85,.F.);
#92=ADVANCED_FACE('',(#80,#81),#23,.F.);
#93=ADVANCED_FACE('',(#82,#83),#86,.F.);
#94=CLOSED_SHELL('',(#87,#88,#89,#90,#91,#92,#93));
#95=STYLED_ITEM('',(#96),#103);
#96=PRESENTATION_STYLE_ASSIGNMENT((#97));
#97=SURFACE_STYLE_USAGE(.BOTH.,#98);
#98=SURFACE_SIDE_STYLE('',(#99));
#99=SURFACE_STYLE_FILL_AREA(#100);
#100=FILL_AREA_STYLE('',(#101));
#101=FILL_AREA_STYLE_COLOUR('',#102);
#102=COLOUR_RGB('',0.43921568627451,0.474509803921569,0.501960784313726);
#103=MANIFOLD_SOLID_BREP('outer_solenoid:1__Body1',#94);
#104=SHAPE_DEFINITION_REPRESENTATION(#176,#105);
#105=SHAPE_REPRESENTATION('outer_solenoid:1__Body1',(#106),#171);
#106=AXIS2_PLACEMENT_3D('',#148,#120,#121);
#107=AXIS2_PLACEMENT_3D('',#149,#122,#123);
#108=AXIS2_PLACEMENT_3D('',#150,#124,#125);
#109=AXIS2_PLACEMENT_3D('',#152,#126,#127);
#110=AXIS2_PLACEMENT_3D('',#154,#128,#129);
#111=AXIS2_PLACEMENT_3D('',#155,#130,#131);
#112=AXIS2_PLACEMENT_3D('',#157,#132,#133);
#113=AXIS2_PLACEMENT_3D('',#158,#134,#135);
#114=AXIS2_PLACEMENT_3D('',#160,#136,#137);
#115=AXIS2_PLACEMENT_3D('',#161,#138,#139);
#116=AXIS2_PLACEMENT_3D('',#164,#140,#141);
#117=AXIS2_PLACEMENT_3D('',#165,#142,#143);
#118=AXIS2_PLACEMENT_3D('',#166,#144,#145);
#119=AXIS2_PLACEMENT_3D('',#169,#146,#147);
#120=DIRECTION('',(0.,0.,1.));
#121=DIRECTION('',(1.,0.,0.));
#122=DIRECTION('',(0.,0.,-1.));
#123=DIRECTION('',(-1.,0.,0.));
#124=DIRECTION('',(0.,0.,-1.));
#125=DIRECTION('',(-1.,0.,0.));
#126=DIRECTION('',(0.,0.,-1.));
#127=DIRECTION('',(-1.,0.,0.));
#128=DIRECTION('',(0.,0.,1.));
#129=DIRECTION('',(1.,0.,0.));
#130=DIRECTION('',(0.,0.,-1.));
#131=DIRECTION('',(-1.,0.,0.));
#132=DIRECTION('',(0.,0.,1.));
#133=DIRECTION('',(1.,0.,0.));
#134=DIRECTION('',(0.,0.,1.));
#135=DIRECTION('',(1.,0.,0.));
#136=DIRECTION('',(0.,0.,1.));
#137=DIRECTION('',(1.,0.,0.));
#138=DIRECTION('',(0.,0.,-1.));
#139=DIRECTION('',(-1.,0.,0.));
#140=DIRECTION('',(0.,0.,-1.));
#141=DIRECTION('',(-1.,0.,0.));
#142=DIRECTION('',(0.,0.,-1.));
#143=DIRECTION('',(-1.,0.,0.));
#144=DIRECTION('',(0.,0.,1.));
#145=DIRECTION('',(1.,0.,0.));
#146=DIRECTION('',(0.,0.,1.));
#147=DIRECTION('',(1.,0.,0.));
#148=CARTESIAN_POINT('',(0.,0.,0.));
#149=CARTESIAN_POINT('',(0.,9.72063396823212E-19,0.1016));
#150=CARTESIAN_POINT('',(0.,9.72063396823212E-19,0.1016));
#151=CARTESIAN_POINT('',(-0.015875,9.72063396823212E-19,0.1016));
#152=CARTESIAN_POINT('',(0.,9.72063396823212E-19,0.));
#153=CARTESIAN_POINT('',(-0.015875,9.72063396823212E-19,0.));
#154=CARTESIAN_POINT('',(0.,0.,0.1016));
#155=CARTESIAN_POINT('',(0.,1.16647607618785E-18,0.1016));
#156=CARTESIAN_POINT('',(-0.0025527,1.16647607618785E-18,0.1016));
#157=CARTESIAN_POINT('',(0.,0.,0.));
#158=CARTESIAN_POINT('',(0.,0.,0.));
#159=CARTESIAN_POINT('',(0.0025527,0.,0.));
#160=CARTESIAN_POINT('',(0.,1.16647607618785E-18,0.0935999906));
#161=CARTESIAN_POINT('',(0.,1.16647607618785E-18,0.0935999906));
#162=CARTESIAN_POINT('',(-0.0025527,1.16647607618785E-18,0.0935999906));
#163=CARTESIAN_POINT('',(0.,1.16647607618785E-18,0.0920661736978084));
#164=CARTESIAN_POINT('',(0.,1.16647607618785E-18,0.1016));
#165=CARTESIAN_POINT('',(0.,0.,0.0080000094));
#166=CARTESIAN_POINT('',(0.,0.,0.0080000094));
#167=CARTESIAN_POINT('',(0.0025527,0.,0.0080000094));
#168=CARTESIAN_POINT('',(4.33680868994202E-19,0.,0.00953382630219167));
#169=CARTESIAN_POINT('',(0.,0.,0.));
#170=MECHANICAL_DESIGN_GEOMETRIC_PRESENTATION_REPRESENTATION('',(#95),#171);
#171=(
GEOMETRIC_REPRESENTATION_CONTEXT(3)
GLOBAL_UNCERTAINTY_ASSIGNED_CONTEXT((#172))
GLOBAL_UNIT_ASSIGNED_CONTEXT((#175,#174,#173))
REPRESENTATION_CONTEXT('outer_solenoid:1__Body1',
'TOP_LEVEL_ASSEMBLY_PART')
);
#172=UNCERTAINTY_MEASURE_WITH_UNIT(LENGTH_MEASURE(1.E-8),#175,
'DISTANCE_ACCURACY_VALUE','Maximum Tolerance applied to model');
#173=(
NAMED_UNIT(*)
SI_UNIT($,.STERADIAN.)
SOLID_ANGLE_UNIT()
);
#174=(
NAMED_UNIT(*)
PLANE_ANGLE_UNIT()
SI_UNIT($,.RADIAN.)
);
#175=(
LENGTH_UNIT()
NAMED_UNIT(*)
SI_UNIT($,.METRE.)
);
#176=PRODUCT_DEFINITION_SHAPE('','',#177);
#177=PRODUCT_DEFINITION('','',#179,#178);
#178=PRODUCT_DEFINITION_CONTEXT('',#185,'design');
#179=PRODUCT_DEFINITION_FORMATION_WITH_SPECIFIED_SOURCE('','',#181,
 .NOT_KNOWN.);
#180=PRODUCT_RELATED_PRODUCT_CATEGORY('','',(#181));
#181=PRODUCT('outer_solenoid:1__Body1','outer_solenoid:1__Body1',
'outer_solenoid:1__Body1',(#183));
#182=PRODUCT_CATEGORY('','');
#183=PRODUCT_CONTEXT('',#185,'mechanical');
#184=APPLICATION_PROTOCOL_DEFINITION('international standard',
'automotive_design',2010,#185);
#185=APPLICATION_CONTEXT(
'core data for automotive mechanical design processes');
ENDSEC;
END-ISO-10303-21;
