ISO-10303-21;
HEADER;
/* Generated by software containing ST-Developer
 * from STEP Tools, Inc. (www.steptools.com) 
 */
/* OPTION: using custom renumber hook */

FILE_DESCRIPTION(
/* description */ ('STEP AP214',
'CAx-IF Rec.Pracs.---User Defined Attributes---1.5---2016-08-15'),
/* implementation_level */ '2;1');

FILE_NAME(
/* name */ 'BPL-700 Assembly - injector-1__Body1',
/* time_stamp */ '2026-09-05T23:29:19Z',
/* author */ (''),
/* organization */ (''),
/* preprocessor_version */ 'ST-DEVELOPER v20',
/* originating_system */ 'ONSHAPE BY PTC INC, 1.220',
/* authorisation */ '  ');

FILE_SCHEMA (('AUTOMOTIVE_DESIGN {1 0 10303 214 3 1 1}'));
ENDSEC;

DATA;
#10=PROPERTY_DEFINITION_REPRESENTATION(#14,#12);
#11=PROPERTY_DEFINITION_REPRESENTATION(#15,#13);
#12=REPRESENTATION('',(#16),#1087);
#13=REPRESENTATION('',(#17),#1087);
#14=PROPERTY_DEFINITION('pmi validation property','',#1092);
#15=PROPERTY_DEFINITION('pmi validation property','',#1092);
#16=VALUE_REPRESENTATION_ITEM('number of annotations',COUNT_MEASURE(0.));
#17=VALUE_REPRESENTATION_ITEM('number of views',COUNT_MEASURE(0.));
#18=SHAPE_REPRESENTATION_RELATIONSHIP('','',#595,#19);
#19=ADVANCED_BREP_SHAPE_REPRESENTATION('',(#593),#1087);
#20=PLANE('',#609);
#21=PLANE('',#614);
#22=PLANE('',#619);
#23=PLANE('',#624);
#24=PLANE('',#629);
#25=PLANE('',#634);
#26=PLANE('',#639);
#27=PLANE('',#644);
#28=PLANE('',#649);
#29=PLANE('',#654);
#30=PLANE('',#661);
#31=PLANE('',#685);
#32=PLANE('',#692);
#33=PLANE('',#701);
#34=PLANE('',#702);
#35=CYLINDRICAL_SURFACE('',#599,0.00135255);
#36=CYLINDRICAL_SURFACE('',#603,0.00135255);
#37=CYLINDRICAL_SURFACE('',#607,0.00135255);
#38=CYLINDRICAL_SURFACE('',#659,0.0447675);
#39=CYLINDRICAL_SURFACE('',#665,0.0415925);
#40=CYLINDRICAL_SURFACE('',#666,0.0015875);
#41=CYLINDRICAL_SURFACE('',#668,0.0015875);
#42=CYLINDRICAL_SURFACE('',#670,0.0015875);
#43=CYLINDRICAL_SURFACE('',#672,0.0015875);
#44=CYLINDRICAL_SURFACE('',#674,0.0015875);
#45=CYLINDRICAL_SURFACE('',#676,0.0015875);
#46=CYLINDRICAL_SURFACE('',#678,0.0015875);
#47=CYLINDRICAL_SURFACE('',#680,0.0015875);
#48=CYLINDRICAL_SURFACE('',#682,0.04953);
#49=CYLINDRICAL_SURFACE('',#690,0.03683);
#50=CYLINDRICAL_SURFACE('',#693,0.0015875);
#51=CYLINDRICAL_SURFACE('',#695,0.0015875);
#52=CYLINDRICAL_SURFACE('',#697,0.00635);
#53=CYLINDRICAL_SURFACE('',#699,0.00635);
#54=CYLINDRICAL_SURFACE('',#705,0.00135255);
#55=VERTEX_LOOP('',#270);
#56=VERTEX_LOOP('',#273);
#57=VERTEX_LOOP('',#276);
#58=VERTEX_LOOP('',#318);
#59=ORIENTED_EDGE('',*,*,#199,.F.);
#60=ORIENTED_EDGE('',*,*,#199,.T.);
#61=ORIENTED_EDGE('',*,*,#200,.F.);
#62=ORIENTED_EDGE('',*,*,#201,.F.);
#63=ORIENTED_EDGE('',*,*,#201,.T.);
#64=ORIENTED_EDGE('',*,*,#202,.F.);
#65=ORIENTED_EDGE('',*,*,#203,.F.);
#66=ORIENTED_EDGE('',*,*,#203,.T.);
#67=ORIENTED_EDGE('',*,*,#204,.F.);
#68=ORIENTED_EDGE('',*,*,#205,.F.);
#69=ORIENTED_EDGE('',*,*,#206,.T.);
#70=ORIENTED_EDGE('',*,*,#207,.F.);
#71=ORIENTED_EDGE('',*,*,#208,.F.);
#72=ORIENTED_EDGE('',*,*,#200,.T.);
#73=ORIENTED_EDGE('',*,*,#202,.T.);
#74=ORIENTED_EDGE('',*,*,#209,.F.);
#75=ORIENTED_EDGE('',*,*,#210,.T.);
#76=ORIENTED_EDGE('',*,*,#211,.F.);
#77=ORIENTED_EDGE('',*,*,#212,.F.);
#78=ORIENTED_EDGE('',*,*,#213,.F.);
#79=ORIENTED_EDGE('',*,*,#214,.T.);
#80=ORIENTED_EDGE('',*,*,#215,.T.);
#81=ORIENTED_EDGE('',*,*,#216,.T.);
#82=ORIENTED_EDGE('',*,*,#217,.T.);
#83=ORIENTED_EDGE('',*,*,#218,.T.);
#84=ORIENTED_EDGE('',*,*,#219,.F.);
#85=ORIENTED_EDGE('',*,*,#220,.T.);
#86=ORIENTED_EDGE('',*,*,#221,.F.);
#87=ORIENTED_EDGE('',*,*,#222,.T.);
#88=ORIENTED_EDGE('',*,*,#223,.T.);
#89=ORIENTED_EDGE('',*,*,#224,.T.);
#90=ORIENTED_EDGE('',*,*,#225,.F.);
#91=ORIENTED_EDGE('',*,*,#226,.T.);
#92=ORIENTED_EDGE('',*,*,#227,.T.);
#93=ORIENTED_EDGE('',*,*,#228,.T.);
#94=ORIENTED_EDGE('',*,*,#229,.F.);
#95=ORIENTED_EDGE('',*,*,#230,.T.);
#96=ORIENTED_EDGE('',*,*,#231,.T.);
#97=ORIENTED_EDGE('',*,*,#232,.T.);
#98=ORIENTED_EDGE('',*,*,#233,.F.);
#99=ORIENTED_EDGE('',*,*,#234,.T.);
#100=ORIENTED_EDGE('',*,*,#235,.T.);
#101=ORIENTED_EDGE('',*,*,#236,.T.);
#102=ORIENTED_EDGE('',*,*,#237,.F.);
#103=ORIENTED_EDGE('',*,*,#238,.T.);
#104=ORIENTED_EDGE('',*,*,#239,.T.);
#105=ORIENTED_EDGE('',*,*,#240,.T.);
#106=ORIENTED_EDGE('',*,*,#241,.F.);
#107=ORIENTED_EDGE('',*,*,#242,.F.);
#108=ORIENTED_EDGE('',*,*,#243,.F.);
#109=ORIENTED_EDGE('',*,*,#244,.T.);
#110=ORIENTED_EDGE('',*,*,#212,.T.);
#111=ORIENTED_EDGE('',*,*,#242,.T.);
#112=ORIENTED_EDGE('',*,*,#215,.F.);
#113=ORIENTED_EDGE('',*,*,#217,.F.);
#114=ORIENTED_EDGE('',*,*,#239,.F.);
#115=ORIENTED_EDGE('',*,*,#235,.F.);
#116=ORIENTED_EDGE('',*,*,#245,.F.);
#117=ORIENTED_EDGE('',*,*,#231,.F.);
#118=ORIENTED_EDGE('',*,*,#227,.F.);
#119=ORIENTED_EDGE('',*,*,#223,.F.);
#120=ORIENTED_EDGE('',*,*,#246,.F.);
#121=ORIENTED_EDGE('',*,*,#247,.T.);
#122=ORIENTED_EDGE('',*,*,#245,.T.);
#123=ORIENTED_EDGE('',*,*,#248,.T.);
#124=ORIENTED_EDGE('',*,*,#229,.T.);
#125=ORIENTED_EDGE('',*,*,#246,.T.);
#126=ORIENTED_EDGE('',*,*,#233,.T.);
#127=ORIENTED_EDGE('',*,*,#237,.T.);
#128=ORIENTED_EDGE('',*,*,#219,.T.);
#129=ORIENTED_EDGE('',*,*,#213,.T.);
#130=ORIENTED_EDGE('',*,*,#221,.T.);
#131=ORIENTED_EDGE('',*,*,#225,.T.);
#132=ORIENTED_EDGE('',*,*,#244,.F.);
#133=ORIENTED_EDGE('',*,*,#210,.F.);
#134=ORIENTED_EDGE('',*,*,#249,.T.);
#135=ORIENTED_EDGE('',*,*,#240,.F.);
#136=ORIENTED_EDGE('',*,*,#220,.F.);
#137=ORIENTED_EDGE('',*,*,#250,.T.);
#138=ORIENTED_EDGE('',*,*,#236,.F.);
#139=ORIENTED_EDGE('',*,*,#238,.F.);
#140=ORIENTED_EDGE('',*,*,#251,.T.);
#141=ORIENTED_EDGE('',*,*,#248,.F.);
#142=ORIENTED_EDGE('',*,*,#234,.F.);
#143=ORIENTED_EDGE('',*,*,#252,.T.);
#144=ORIENTED_EDGE('',*,*,#247,.F.);
#145=ORIENTED_EDGE('',*,*,#232,.F.);
#146=ORIENTED_EDGE('',*,*,#253,.T.);
#147=ORIENTED_EDGE('',*,*,#230,.F.);
#148=ORIENTED_EDGE('',*,*,#228,.F.);
#149=ORIENTED_EDGE('',*,*,#254,.T.);
#150=ORIENTED_EDGE('',*,*,#226,.F.);
#151=ORIENTED_EDGE('',*,*,#224,.F.);
#152=ORIENTED_EDGE('',*,*,#255,.T.);
#153=ORIENTED_EDGE('',*,*,#222,.F.);
#154=ORIENTED_EDGE('',*,*,#216,.F.);
#155=ORIENTED_EDGE('',*,*,#256,.T.);
#156=ORIENTED_EDGE('',*,*,#218,.F.);
#157=ORIENTED_EDGE('',*,*,#214,.F.);
#158=ORIENTED_EDGE('',*,*,#257,.T.);
#159=ORIENTED_EDGE('',*,*,#206,.F.);
#160=ORIENTED_EDGE('',*,*,#258,.F.);
#161=ORIENTED_EDGE('',*,*,#259,.F.);
#162=ORIENTED_EDGE('',*,*,#260,.F.);
#163=ORIENTED_EDGE('',*,*,#261,.F.);
#164=ORIENTED_EDGE('',*,*,#258,.T.);
#165=ORIENTED_EDGE('',*,*,#204,.T.);
#166=ORIENTED_EDGE('',*,*,#262,.T.);
#167=ORIENTED_EDGE('',*,*,#260,.T.);
#168=ORIENTED_EDGE('',*,*,#208,.T.);
#169=ORIENTED_EDGE('',*,*,#263,.F.);
#170=ORIENTED_EDGE('',*,*,#257,.F.);
#171=ORIENTED_EDGE('',*,*,#256,.F.);
#172=ORIENTED_EDGE('',*,*,#255,.F.);
#173=ORIENTED_EDGE('',*,*,#254,.F.);
#174=ORIENTED_EDGE('',*,*,#253,.F.);
#175=ORIENTED_EDGE('',*,*,#252,.F.);
#176=ORIENTED_EDGE('',*,*,#251,.F.);
#177=ORIENTED_EDGE('',*,*,#250,.F.);
#178=ORIENTED_EDGE('',*,*,#249,.F.);
#179=ORIENTED_EDGE('',*,*,#263,.T.);
#180=ORIENTED_EDGE('',*,*,#243,.T.);
#181=ORIENTED_EDGE('',*,*,#211,.T.);
#182=ORIENTED_EDGE('',*,*,#264,.T.);
#183=ORIENTED_EDGE('',*,*,#209,.T.);
#184=ORIENTED_EDGE('',*,*,#241,.T.);
#185=ORIENTED_EDGE('',*,*,#265,.T.);
#186=ORIENTED_EDGE('',*,*,#266,.F.);
#187=ORIENTED_EDGE('',*,*,#207,.T.);
#188=ORIENTED_EDGE('',*,*,#261,.T.);
#189=ORIENTED_EDGE('',*,*,#267,.F.);
#190=ORIENTED_EDGE('',*,*,#205,.T.);
#191=ORIENTED_EDGE('',*,*,#259,.T.);
#192=ORIENTED_EDGE('',*,*,#267,.T.);
#193=ORIENTED_EDGE('',*,*,#264,.F.);
#194=ORIENTED_EDGE('',*,*,#266,.T.);
#195=ORIENTED_EDGE('',*,*,#265,.F.);
#196=ORIENTED_EDGE('',*,*,#268,.F.);
#197=ORIENTED_EDGE('',*,*,#268,.T.);
#198=ORIENTED_EDGE('',*,*,#262,.F.);
#199=EDGE_CURVE('',#269,#269,#319,.T.);
#200=EDGE_CURVE('',#271,#271,#320,.T.);
#201=EDGE_CURVE('',#272,#272,#321,.T.);
#202=EDGE_CURVE('',#274,#274,#322,.T.);
#203=EDGE_CURVE('',#275,#275,#323,.T.);
#204=EDGE_CURVE('',#277,#277,#324,.T.);
#205=EDGE_CURVE('',#278,#279,#325,.F.);
#206=EDGE_CURVE('',#278,#280,#326,.T.);
#207=EDGE_CURVE('',#281,#280,#327,.F.);
#208=EDGE_CURVE('',#279,#281,#328,.T.);
#209=EDGE_CURVE('',#282,#283,#329,.T.);
#210=EDGE_CURVE('',#282,#284,#330,.T.);
#211=EDGE_CURVE('',#285,#284,#331,.T.);
#212=EDGE_CURVE('',#283,#285,#332,.T.);
#213=EDGE_CURVE('',#286,#287,#333,.T.);
#214=EDGE_CURVE('',#286,#288,#334,.T.);
#215=EDGE_CURVE('',#288,#289,#335,.T.);
#216=EDGE_CURVE('',#289,#287,#336,.T.);
#217=EDGE_CURVE('',#290,#288,#337,.T.);
#218=EDGE_CURVE('',#288,#286,#338,.T.);
#219=EDGE_CURVE('',#291,#286,#339,.T.);
#220=EDGE_CURVE('',#291,#290,#340,.T.);
#221=EDGE_CURVE('',#287,#292,#341,.T.);
#222=EDGE_CURVE('',#287,#289,#342,.T.);
#223=EDGE_CURVE('',#289,#293,#343,.T.);
#224=EDGE_CURVE('',#293,#292,#344,.T.);
#225=EDGE_CURVE('',#292,#294,#345,.T.);
#226=EDGE_CURVE('',#292,#293,#346,.T.);
#227=EDGE_CURVE('',#293,#295,#347,.T.);
#228=EDGE_CURVE('',#295,#294,#348,.T.);
#229=EDGE_CURVE('',#294,#296,#349,.T.);
#230=EDGE_CURVE('',#294,#295,#350,.T.);
#231=EDGE_CURVE('',#295,#297,#351,.T.);
#232=EDGE_CURVE('',#297,#296,#352,.T.);
#233=EDGE_CURVE('',#298,#299,#353,.T.);
#234=EDGE_CURVE('',#298,#300,#354,.T.);
#235=EDGE_CURVE('',#300,#301,#355,.T.);
#236=EDGE_CURVE('',#301,#299,#356,.T.);
#237=EDGE_CURVE('',#299,#291,#357,.T.);
#238=EDGE_CURVE('',#299,#301,#358,.T.);
#239=EDGE_CURVE('',#301,#290,#359,.T.);
#240=EDGE_CURVE('',#290,#291,#360,.T.);
#241=EDGE_CURVE('',#283,#282,#361,.T.);
#242=EDGE_CURVE('',#285,#283,#362,.T.);
#243=EDGE_CURVE('',#284,#285,#363,.T.);
#244=EDGE_CURVE('',#284,#282,#364,.T.);
#245=EDGE_CURVE('',#297,#300,#365,.T.);
#246=EDGE_CURVE('',#296,#298,#366,.T.);
#247=EDGE_CURVE('',#296,#297,#367,.T.);
#248=EDGE_CURVE('',#300,#298,#368,.T.);
#249=EDGE_CURVE('',#302,#302,#369,.T.);
#250=EDGE_CURVE('',#303,#303,#370,.T.);
#251=EDGE_CURVE('',#304,#304,#371,.T.);
#252=EDGE_CURVE('',#305,#305,#372,.T.);
#253=EDGE_CURVE('',#306,#306,#373,.T.);
#254=EDGE_CURVE('',#307,#307,#374,.T.);
#255=EDGE_CURVE('',#308,#308,#375,.T.);
#256=EDGE_CURVE('',#309,#309,#376,.T.);
#257=EDGE_CURVE('',#310,#310,#377,.T.);
#258=EDGE_CURVE('',#280,#278,#378,.T.);
#259=EDGE_CURVE('',#279,#278,#379,.F.);
#260=EDGE_CURVE('',#281,#279,#380,.T.);
#261=EDGE_CURVE('',#280,#281,#381,.F.);
#262=EDGE_CURVE('',#311,#311,#382,.T.);
#263=EDGE_CURVE('',#312,#312,#383,.T.);
#264=EDGE_CURVE('',#313,#313,#384,.F.);
#265=EDGE_CURVE('',#314,#314,#385,.F.);
#266=EDGE_CURVE('',#315,#315,#386,.F.);
#267=EDGE_CURVE('',#316,#316,#387,.F.);
#268=EDGE_CURVE('',#317,#317,#388,.T.);
#269=VERTEX_POINT('',#929);
#270=VERTEX_POINT('',#930);
#271=VERTEX_POINT('',#933);
#272=VERTEX_POINT('',#936);
#273=VERTEX_POINT('',#937);
#274=VERTEX_POINT('',#940);
#275=VERTEX_POINT('',#943);
#276=VERTEX_POINT('',#944);
#277=VERTEX_POINT('',#947);
#278=VERTEX_POINT('',#950);
#279=VERTEX_POINT('',#951);
#280=VERTEX_POINT('',#953);
#281=VERTEX_POINT('',#955);
#282=VERTEX_POINT('',#959);
#283=VERTEX_POINT('',#960);
#284=VERTEX_POINT('',#962);
#285=VERTEX_POINT('',#964);
#286=VERTEX_POINT('',#968);
#287=VERTEX_POINT('',#969);
#288=VERTEX_POINT('',#971);
#289=VERTEX_POINT('',#973);
#290=VERTEX_POINT('',#977);
#291=VERTEX_POINT('',#980);
#292=VERTEX_POINT('',#984);
#293=VERTEX_POINT('',#987);
#294=VERTEX_POINT('',#991);
#295=VERTEX_POINT('',#994);
#296=VERTEX_POINT('',#998);
#297=VERTEX_POINT('',#1001);
#298=VERTEX_POINT('',#1005);
#299=VERTEX_POINT('',#1006);
#300=VERTEX_POINT('',#1008);
#301=VERTEX_POINT('',#1010);
#302=VERTEX_POINT('',#1031);
#303=VERTEX_POINT('',#1034);
#304=VERTEX_POINT('',#1037);
#305=VERTEX_POINT('',#1040);
#306=VERTEX_POINT('',#1043);
#307=VERTEX_POINT('',#1046);
#308=VERTEX_POINT('',#1049);
#309=VERTEX_POINT('',#1052);
#310=VERTEX_POINT('',#1055);
#311=VERTEX_POINT('',#1062);
#312=VERTEX_POINT('',#1065);
#313=VERTEX_POINT('',#1069);
#314=VERTEX_POINT('',#1072);
#315=VERTEX_POINT('',#1075);
#316=VERTEX_POINT('',#1078);
#317=VERTEX_POINT('',#1083);
#318=VERTEX_POINT('',#1084);
#319=CIRCLE('',#598,0.00135255);
#320=CIRCLE('',#600,0.00135255);
#321=CIRCLE('',#602,0.00135255);
#322=CIRCLE('',#604,0.00135255);
#323=CIRCLE('',#606,0.00135255);
#324=CIRCLE('',#608,0.00135255);
#325=CIRCLE('',#610,0.00635);
#326=CIRCLE('',#611,0.04953);
#327=CIRCLE('',#612,0.00635);
#328=CIRCLE('',#613,0.03683);
#329=CIRCLE('',#615,0.0015875);
#330=CIRCLE('',#616,0.0415925);
#331=CIRCLE('',#617,0.0015875);
#332=CIRCLE('',#618,0.0447675);
#333=CIRCLE('',#620,0.0415925);
#334=CIRCLE('',#621,0.0015875);
#335=CIRCLE('',#622,0.0447675);
#336=CIRCLE('',#623,0.0015875);
#337=CIRCLE('',#625,0.0447675);
#338=CIRCLE('',#626,0.0015875);
#339=CIRCLE('',#627,0.0415925);
#340=CIRCLE('',#628,0.0015875);
#341=CIRCLE('',#630,0.0415925);
#342=CIRCLE('',#631,0.0015875);
#343=CIRCLE('',#632,0.0447675);
#344=CIRCLE('',#633,0.0015875);
#345=CIRCLE('',#635,0.0415925);
#346=CIRCLE('',#636,0.0015875);
#347=CIRCLE('',#637,0.0447675);
#348=CIRCLE('',#638,0.0015875);
#349=CIRCLE('',#640,0.0415925);
#350=CIRCLE('',#641,0.0015875);
#351=CIRCLE('',#642,0.0447675);
#352=CIRCLE('',#643,0.0015875);
#353=CIRCLE('',#645,0.0415925);
#354=CIRCLE('',#646,0.0015875);
#355=CIRCLE('',#647,0.0447675);
#356=CIRCLE('',#648,0.0015875);
#357=CIRCLE('',#650,0.0415925);
#358=CIRCLE('',#651,0.0015875);
#359=CIRCLE('',#652,0.0447675);
#360=CIRCLE('',#653,0.0015875);
#361=CIRCLE('',#655,0.0015875);
#362=CIRCLE('',#656,0.0447675);
#363=CIRCLE('',#657,0.0015875);
#364=CIRCLE('',#658,0.0415925);
#365=CIRCLE('',#660,0.0447675);
#366=CIRCLE('',#662,0.0415925);
#367=CIRCLE('',#663,0.0015875);
#368=CIRCLE('',#664,0.0015875);
#369=CIRCLE('',#667,0.0015875);
#370=CIRCLE('',#669,0.0015875);
#371=CIRCLE('',#671,0.0015875);
#372=CIRCLE('',#673,0.0015875);
#373=CIRCLE('',#675,0.0015875);
#374=CIRCLE('',#677,0.0015875);
#375=CIRCLE('',#679,0.0015875);
#376=CIRCLE('',#681,0.0015875);
#377=CIRCLE('',#683,0.04953);
#378=CIRCLE('',#684,0.04953);
#379=CIRCLE('',#686,0.00635);
#380=CIRCLE('',#687,0.03683);
#381=CIRCLE('',#688,0.00635);
#382=CIRCLE('',#689,0.00135255);
#383=CIRCLE('',#691,0.03683);
#384=CIRCLE('',#694,0.0015875);
#385=CIRCLE('',#696,0.0015875);
#386=CIRCLE('',#698,0.00635);
#387=CIRCLE('',#700,0.00635);
#388=CIRCLE('',#704,0.00135255);
#389=EDGE_LOOP('',(#59));
#390=EDGE_LOOP('',(#60));
#391=EDGE_LOOP('',(#61));
#392=EDGE_LOOP('',(#62));
#393=EDGE_LOOP('',(#63));
#394=EDGE_LOOP('',(#64));
#395=EDGE_LOOP('',(#65));
#396=EDGE_LOOP('',(#66));
#397=EDGE_LOOP('',(#67));
#398=EDGE_LOOP('',(#68,#69,#70,#71));
#399=EDGE_LOOP('',(#72));
#400=EDGE_LOOP('',(#73));
#401=EDGE_LOOP('',(#74,#75,#76,#77));
#402=EDGE_LOOP('',(#78,#79,#80,#81));
#403=EDGE_LOOP('',(#82,#83,#84,#85));
#404=EDGE_LOOP('',(#86,#87,#88,#89));
#405=EDGE_LOOP('',(#90,#91,#92,#93));
#406=EDGE_LOOP('',(#94,#95,#96,#97));
#407=EDGE_LOOP('',(#98,#99,#100,#101));
#408=EDGE_LOOP('',(#102,#103,#104,#105));
#409=EDGE_LOOP('',(#106,#107,#108,#109));
#410=EDGE_LOOP('',(#110,#111));
#411=EDGE_LOOP('',(#112,#113,#114,#115,#116,#117,#118,#119));
#412=EDGE_LOOP('',(#120,#121,#122,#123));
#413=EDGE_LOOP('',(#124,#125,#126,#127,#128,#129,#130,#131));
#414=EDGE_LOOP('',(#132,#133));
#415=EDGE_LOOP('',(#134));
#416=EDGE_LOOP('',(#135,#136));
#417=EDGE_LOOP('',(#137));
#418=EDGE_LOOP('',(#138,#139));
#419=EDGE_LOOP('',(#140));
#420=EDGE_LOOP('',(#141,#142));
#421=EDGE_LOOP('',(#143));
#422=EDGE_LOOP('',(#144,#145));
#423=EDGE_LOOP('',(#146));
#424=EDGE_LOOP('',(#147,#148));
#425=EDGE_LOOP('',(#149));
#426=EDGE_LOOP('',(#150,#151));
#427=EDGE_LOOP('',(#152));
#428=EDGE_LOOP('',(#153,#154));
#429=EDGE_LOOP('',(#155));
#430=EDGE_LOOP('',(#156,#157));
#431=EDGE_LOOP('',(#158));
#432=EDGE_LOOP('',(#159,#160));
#433=EDGE_LOOP('',(#161,#162,#163,#164));
#434=EDGE_LOOP('',(#165));
#435=EDGE_LOOP('',(#166));
#436=EDGE_LOOP('',(#167,#168));
#437=EDGE_LOOP('',(#169));
#438=EDGE_LOOP('',(#170));
#439=EDGE_LOOP('',(#171));
#440=EDGE_LOOP('',(#172));
#441=EDGE_LOOP('',(#173));
#442=EDGE_LOOP('',(#174));
#443=EDGE_LOOP('',(#175));
#444=EDGE_LOOP('',(#176));
#445=EDGE_LOOP('',(#177));
#446=EDGE_LOOP('',(#178));
#447=EDGE_LOOP('',(#179));
#448=EDGE_LOOP('',(#180,#181));
#449=EDGE_LOOP('',(#182));
#450=EDGE_LOOP('',(#183,#184));
#451=EDGE_LOOP('',(#185));
#452=EDGE_LOOP('',(#186));
#453=EDGE_LOOP('',(#187,#188));
#454=EDGE_LOOP('',(#189));
#455=EDGE_LOOP('',(#190,#191));
#456=EDGE_LOOP('',(#192));
#457=EDGE_LOOP('',(#193));
#458=EDGE_LOOP('',(#194));
#459=EDGE_LOOP('',(#195));
#460=EDGE_LOOP('',(#196));
#461=EDGE_LOOP('',(#197));
#462=EDGE_LOOP('',(#198));
#463=FACE_BOUND('',#389,.T.);
#464=FACE_BOUND('',#55,.T.);
#465=FACE_BOUND('',#390,.T.);
#466=FACE_BOUND('',#391,.T.);
#467=FACE_BOUND('',#392,.T.);
#468=FACE_BOUND('',#56,.T.);
#469=FACE_BOUND('',#393,.T.);
#470=FACE_BOUND('',#394,.T.);
#471=FACE_BOUND('',#395,.T.);
#472=FACE_BOUND('',#57,.T.);
#473=FACE_BOUND('',#396,.T.);
#474=FACE_BOUND('',#397,.T.);
#475=FACE_BOUND('',#398,.T.);
#476=FACE_BOUND('',#399,.T.);
#477=FACE_BOUND('',#400,.T.);
#478=FACE_BOUND('',#401,.T.);
#479=FACE_BOUND('',#402,.T.);
#480=FACE_BOUND('',#403,.T.);
#481=FACE_BOUND('',#404,.T.);
#482=FACE_BOUND('',#405,.T.);
#483=FACE_BOUND('',#406,.T.);
#484=FACE_BOUND('',#407,.T.);
#485=FACE_BOUND('',#408,.T.);
#486=FACE_BOUND('',#409,.T.);
#487=FACE_BOUND('',#410,.T.);
#488=FACE_BOUND('',#411,.T.);
#489=FACE_BOUND('',#412,.T.);
#490=FACE_BOUND('',#413,.T.);
#491=FACE_BOUND('',#414,.T.);
#492=FACE_BOUND('',#415,.T.);
#493=FACE_BOUND('',#416,.T.);
#494=FACE_BOUND('',#417,.T.);
#495=FACE_BOUND('',#418,.T.);
#496=FACE_BOUND('',#419,.T.);
#497=FACE_BOUND('',#420,.T.);
#498=FACE_BOUND('',#421,.T.);
#499=FACE_BOUND('',#422,.T.);
#500=FACE_BOUND('',#423,.T.);
#501=FACE_BOUND('',#424,.T.);
#502=FACE_BOUND('',#425,.T.);
#503=FACE_BOUND('',#426,.T.);
#504=FACE_BOUND('',#427,.T.);
#505=FACE_BOUND('',#428,.T.);
#506=FACE_BOUND('',#429,.T.);
#507=FACE_BOUND('',#430,.T.);
#508=FACE_BOUND('',#431,.T.);
#509=FACE_BOUND('',#432,.T.);
#510=FACE_BOUND('',#433,.T.);
#511=FACE_BOUND('',#434,.T.);
#512=FACE_BOUND('',#435,.T.);
#513=FACE_BOUND('',#436,.T.);
#514=FACE_BOUND('',#437,.T.);
#515=FACE_BOUND('',#438,.T.);
#516=FACE_BOUND('',#439,.T.);
#517=FACE_BOUND('',#440,.T.);
#518=FACE_BOUND('',#441,.T.);
#519=FACE_BOUND('',#442,.T.);
#520=FACE_BOUND('',#443,.T.);
#521=FACE_BOUND('',#444,.T.);
#522=FACE_BOUND('',#445,.T.);
#523=FACE_BOUND('',#446,.T.);
#524=FACE_BOUND('',#447,.T.);
#525=FACE_BOUND('',#448,.T.);
#526=FACE_BOUND('',#449,.T.);
#527=FACE_BOUND('',#450,.T.);
#528=FACE_BOUND('',#451,.T.);
#529=FACE_BOUND('',#452,.T.);
#530=FACE_BOUND('',#453,.T.);
#531=FACE_BOUND('',#454,.T.);
#532=FACE_BOUND('',#455,.T.);
#533=FACE_BOUND('',#456,.T.);
#534=FACE_BOUND('',#457,.T.);
#535=FACE_BOUND('',#458,.T.);
#536=FACE_BOUND('',#459,.T.);
#537=FACE_BOUND('',#460,.T.);
#538=FACE_BOUND('',#58,.T.);
#539=FACE_BOUND('',#461,.T.);
#540=FACE_BOUND('',#462,.T.);
#541=CONICAL_SURFACE('',#597,0.00135255,1.02974425867665);
#542=CONICAL_SURFACE('',#601,0.00135255,1.02974425867665);
#543=CONICAL_SURFACE('',#605,0.00135255,1.02974425867665);
#544=CONICAL_SURFACE('',#703,0.00135255,1.02974425867665);
#545=ADVANCED_FACE('',(#463,#464),#541,.F.);
#546=ADVANCED_FACE('',(#465,#466),#35,.F.);
#547=ADVANCED_FACE('',(#467,#468),#542,.F.);
#548=ADVANCED_FACE('',(#469,#470),#36,.F.);
#549=ADVANCED_FACE('',(#471,#472),#543,.F.);
#550=ADVANCED_FACE('',(#473,#474),#37,.F.);
#551=ADVANCED_FACE('',(#475,#476,#477),#20,.T.);
#552=ADVANCED_FACE('',(#478),#21,.T.);
#553=ADVANCED_FACE('',(#479),#22,.F.);
#554=ADVANCED_FACE('',(#480),#23,.F.);
#555=ADVANCED_FACE('',(#481),#24,.F.);
#556=ADVANCED_FACE('',(#482),#25,.F.);
#557=ADVANCED_FACE('',(#483),#26,.F.);
#558=ADVANCED_FACE('',(#484),#27,.F.);
#559=ADVANCED_FACE('',(#485),#28,.F.);
#560=ADVANCED_FACE('',(#486),#29,.T.);
#561=ADVANCED_FACE('',(#487,#488),#38,.F.);
#562=ADVANCED_FACE('',(#489),#30,.F.);
#563=ADVANCED_FACE('',(#490,#491),#39,.T.);
#564=ADVANCED_FACE('',(#492,#493),#40,.F.);
#565=ADVANCED_FACE('',(#494,#495),#41,.F.);
#566=ADVANCED_FACE('',(#496,#497),#42,.F.);
#567=ADVANCED_FACE('',(#498,#499),#43,.F.);
#568=ADVANCED_FACE('',(#500,#501),#44,.F.);
#569=ADVANCED_FACE('',(#502,#503),#45,.F.);
#570=ADVANCED_FACE('',(#504,#505),#46,.F.);
#571=ADVANCED_FACE('',(#506,#507),#47,.F.);
#572=ADVANCED_FACE('',(#508,#509),#48,.T.);
#573=ADVANCED_FACE('',(#510,#511,#512),#31,.T.);
#574=ADVANCED_FACE('',(#513,#514),#49,.F.);
#575=ADVANCED_FACE('',(#515,#516,#517,#518,#519,#520,#521,#522,#523,#524),
#32,.T.);
#576=ADVANCED_FACE('',(#525,#526),#50,.F.);
#577=ADVANCED_FACE('',(#527,#528),#51,.F.);
#578=ADVANCED_FACE('',(#529,#530),#52,.T.);
#579=ADVANCED_FACE('',(#531,#532),#53,.T.);
#580=ADVANCED_FACE('',(#533,#534),#33,.T.);
#581=ADVANCED_FACE('',(#535,#536),#34,.T.);
#582=ADVANCED_FACE('',(#537,#538),#544,.F.);
#583=ADVANCED_FACE('',(#539,#540),#54,.F.);
#584=CLOSED_SHELL('',(#545,#546,#547,#548,#549,#550,#551,#552,#553,#554,
#555,#556,#557,#558,#559,#560,#561,#562,#563,#564,#565,#566,#567,#568,#569,
#570,#571,#572,#573,#574,#575,#576,#577,#578,#579,#580,#581,#582,#583));
#585=STYLED_ITEM('',(#586),#593);
#586=PRESENTATION_STYLE_ASSIGNMENT((#587));
#587=SURFACE_STYLE_USAGE(.BOTH.,#588);
#588=SURFACE_SIDE_STYLE('',(#589));
#589=SURFACE_STYLE_FILL_AREA(#590);
#590=FILL_AREA_STYLE('',(#591));
#591=FILL_AREA_STYLE_COLOUR('',#592);
#592=COLOUR_RGB('',0.701960784313725,0.701960784313725,0.701960784313725);
#593=MANIFOLD_SOLID_BREP('injector:1__Body1',#584);
#594=SHAPE_DEFINITION_REPRESENTATION(#1092,#595);
#595=SHAPE_REPRESENTATION('injector:1__Body1',(#596),#1087);
#596=AXIS2_PLACEMENT_3D('',#926,#706,#707);
#597=AXIS2_PLACEMENT_3D('',#927,#708,#709);
#598=AXIS2_PLACEMENT_3D('',#928,#710,#711);
#599=AXIS2_PLACEMENT_3D('',#931,#712,#713);
#600=AXIS2_PLACEMENT_3D('',#932,#714,#715);
#601=AXIS2_PLACEMENT_3D('',#934,#716,#717);
#602=AXIS2_PLACEMENT_3D('',#935,#718,#719);
#603=AXIS2_PLACEMENT_3D('',#938,#720,#721);
#604=AXIS2_PLACEMENT_3D('',#939,#722,#723);
#605=AXIS2_PLACEMENT_3D('',#941,#724,#725);
#606=AXIS2_PLACEMENT_3D('',#942,#726,#727);
#607=AXIS2_PLACEMENT_3D('',#945,#728,#729);
#608=AXIS2_PLACEMENT_3D('',#946,#730,#731);
#609=AXIS2_PLACEMENT_3D('',#948,#732,#733);
#610=AXIS2_PLACEMENT_3D('',#949,#734,#735);
#611=AXIS2_PLACEMENT_3D('',#952,#736,#737);
#612=AXIS2_PLACEMENT_3D('',#954,#738,#739);
#613=AXIS2_PLACEMENT_3D('',#956,#740,#741);
#614=AXIS2_PLACEMENT_3D('',#957,#742,#743);
#615=AXIS2_PLACEMENT_3D('',#958,#744,#745);
#616=AXIS2_PLACEMENT_3D('',#961,#746,#747);
#617=AXIS2_PLACEMENT_3D('',#963,#748,#749);
#618=AXIS2_PLACEMENT_3D('',#965,#750,#751);
#619=AXIS2_PLACEMENT_3D('',#966,#752,#753);
#620=AXIS2_PLACEMENT_3D('',#967,#754,#755);
#621=AXIS2_PLACEMENT_3D('',#970,#756,#757);
#622=AXIS2_PLACEMENT_3D('',#972,#758,#759);
#623=AXIS2_PLACEMENT_3D('',#974,#760,#761);
#624=AXIS2_PLACEMENT_3D('',#975,#762,#763);
#625=AXIS2_PLACEMENT_3D('',#976,#764,#765);
#626=AXIS2_PLACEMENT_3D('',#978,#766,#767);
#627=AXIS2_PLACEMENT_3D('',#979,#768,#769);
#628=AXIS2_PLACEMENT_3D('',#981,#770,#771);
#629=AXIS2_PLACEMENT_3D('',#982,#772,#773);
#630=AXIS2_PLACEMENT_3D('',#983,#774,#775);
#631=AXIS2_PLACEMENT_3D('',#985,#776,#777);
#632=AXIS2_PLACEMENT_3D('',#986,#778,#779);
#633=AXIS2_PLACEMENT_3D('',#988,#780,#781);
#634=AXIS2_PLACEMENT_3D('',#989,#782,#783);
#635=AXIS2_PLACEMENT_3D('',#990,#784,#785);
#636=AXIS2_PLACEMENT_3D('',#992,#786,#787);
#637=AXIS2_PLACEMENT_3D('',#993,#788,#789);
#638=AXIS2_PLACEMENT_3D('',#995,#790,#791);
#639=AXIS2_PLACEMENT_3D('',#996,#792,#793);
#640=AXIS2_PLACEMENT_3D('',#997,#794,#795);
#641=AXIS2_PLACEMENT_3D('',#999,#796,#797);
#642=AXIS2_PLACEMENT_3D('',#1000,#798,#799);
#643=AXIS2_PLACEMENT_3D('',#1002,#800,#801);
#644=AXIS2_PLACEMENT_3D('',#1003,#802,#803);
#645=AXIS2_PLACEMENT_3D('',#1004,#804,#805);
#646=AXIS2_PLACEMENT_3D('',#1007,#806,#807);
#647=AXIS2_PLACEMENT_3D('',#1009,#808,#809);
#648=AXIS2_PLACEMENT_3D('',#1011,#810,#811);
#649=AXIS2_PLACEMENT_3D('',#1012,#812,#813);
#650=AXIS2_PLACEMENT_3D('',#1013,#814,#815);
#651=AXIS2_PLACEMENT_3D('',#1014,#816,#817);
#652=AXIS2_PLACEMENT_3D('',#1015,#818,#819);
#653=AXIS2_PLACEMENT_3D('',#1016,#820,#821);
#654=AXIS2_PLACEMENT_3D('',#1017,#822,#823);
#655=AXIS2_PLACEMENT_3D('',#1018,#824,#825);
#656=AXIS2_PLACEMENT_3D('',#1019,#826,#827);
#657=AXIS2_PLACEMENT_3D('',#1020,#828,#829);
#658=AXIS2_PLACEMENT_3D('',#1021,#830,#831);
#659=AXIS2_PLACEMENT_3D('',#1022,#832,#833);
#660=AXIS2_PLACEMENT_3D('',#1023,#834,#835);
#661=AXIS2_PLACEMENT_3D('',#1024,#836,#837);
#662=AXIS2_PLACEMENT_3D('',#1025,#838,#839);
#663=AXIS2_PLACEMENT_3D('',#1026,#840,#841);
#664=AXIS2_PLACEMENT_3D('',#1027,#842,#843);
#665=AXIS2_PLACEMENT_3D('',#1028,#844,#845);
#666=AXIS2_PLACEMENT_3D('',#1029,#846,#847);
#667=AXIS2_PLACEMENT_3D('',#1030,#848,#849);
#668=AXIS2_PLACEMENT_3D('',#1032,#850,#851);
#669=AXIS2_PLACEMENT_3D('',#1033,#852,#853);
#670=AXIS2_PLACEMENT_3D('',#1035,#854,#855);
#671=AXIS2_PLACEMENT_3D('',#1036,#856,#857);
#672=AXIS2_PLACEMENT_3D('',#1038,#858,#859);
#673=AXIS2_PLACEMENT_3D('',#1039,#860,#861);
#674=AXIS2_PLACEMENT_3D('',#1041,#862,#863);
#675=AXIS2_PLACEMENT_3D('',#1042,#864,#865);
#676=AXIS2_PLACEMENT_3D('',#1044,#866,#867);
#677=AXIS2_PLACEMENT_3D('',#1045,#868,#869);
#678=AXIS2_PLACEMENT_3D('',#1047,#870,#871);
#679=AXIS2_PLACEMENT_3D('',#1048,#872,#873);
#680=AXIS2_PLACEMENT_3D('',#1050,#874,#875);
#681=AXIS2_PLACEMENT_3D('',#1051,#876,#877);
#682=AXIS2_PLACEMENT_3D('',#1053,#878,#879);
#683=AXIS2_PLACEMENT_3D('',#1054,#880,#881);
#684=AXIS2_PLACEMENT_3D('',#1056,#882,#883);
#685=AXIS2_PLACEMENT_3D('',#1057,#884,#885);
#686=AXIS2_PLACEMENT_3D('',#1058,#886,#887);
#687=AXIS2_PLACEMENT_3D('',#1059,#888,#889);
#688=AXIS2_PLACEMENT_3D('',#1060,#890,#891);
#689=AXIS2_PLACEMENT_3D('',#1061,#892,#893);
#690=AXIS2_PLACEMENT_3D('',#1063,#894,#895);
#691=AXIS2_PLACEMENT_3D('',#1064,#896,#897);
#692=AXIS2_PLACEMENT_3D('',#1066,#898,#899);
#693=AXIS2_PLACEMENT_3D('',#1067,#900,#901);
#694=AXIS2_PLACEMENT_3D('',#1068,#902,#903);
#695=AXIS2_PLACEMENT_3D('',#1070,#904,#905);
#696=AXIS2_PLACEMENT_3D('',#1071,#906,#907);
#697=AXIS2_PLACEMENT_3D('',#1073,#908,#909);
#698=AXIS2_PLACEMENT_3D('',#1074,#910,#911);
#699=AXIS2_PLACEMENT_3D('',#1076,#912,#913);
#700=AXIS2_PLACEMENT_3D('',#1077,#914,#915);
#701=AXIS2_PLACEMENT_3D('',#1079,#916,#917);
#702=AXIS2_PLACEMENT_3D('',#1080,#918,#919);
#703=AXIS2_PLACEMENT_3D('',#1081,#920,#921);
#704=AXIS2_PLACEMENT_3D('',#1082,#922,#923);
#705=AXIS2_PLACEMENT_3D('',#1085,#924,#925);
#706=DIRECTION('',(0.,0.,1.));
#707=DIRECTION('',(1.,0.,0.));
#708=DIRECTION('',(0.,0.,-1.));
#709=DIRECTION('',(1.83697019872103E-16,-1.,0.));
#710=DIRECTION('',(0.,0.,1.));
#711=DIRECTION('',(1.,0.,0.));
#712=DIRECTION('',(0.,0.,1.));
#713=DIRECTION('',(-1.83697019872103E-16,1.,0.));
#714=DIRECTION('',(0.,0.,1.));
#715=DIRECTION('',(1.,0.,0.));
#716=DIRECTION('',(0.,0.,-1.));
#717=DIRECTION('',(1.,1.22464679914735E-16,0.));
#718=DIRECTION('',(0.,0.,1.));
#719=DIRECTION('',(1.,0.,0.));
#720=DIRECTION('',(0.,0.,1.));
#721=DIRECTION('',(-1.,-1.22464679914735E-16,0.));
#722=DIRECTION('',(0.,0.,1.));
#723=DIRECTION('',(1.,0.,0.));
#724=DIRECTION('',(0.,0.,-1.));
#725=DIRECTION('',(-6.12323399573677E-17,1.,0.));
#726=DIRECTION('',(0.,0.,1.));
#727=DIRECTION('',(1.,0.,0.));
#728=DIRECTION('',(0.,0.,1.));
#729=DIRECTION('',(6.12323399573677E-17,-1.,0.));
#730=DIRECTION('',(0.,0.,1.));
#731=DIRECTION('',(1.,0.,0.));
#732=DIRECTION('',(0.,0.,-1.));
#733=DIRECTION('',(-1.,0.,0.));
#734=DIRECTION('',(0.,0.,1.));
#735=DIRECTION('',(1.,0.,0.));
#736=DIRECTION('',(0.,0.,-1.));
#737=DIRECTION('',(-1.,0.,0.));
#738=DIRECTION('',(0.,0.,1.));
#739=DIRECTION('',(1.,0.,0.));
#740=DIRECTION('',(0.,0.,-1.));
#741=DIRECTION('',(-1.,0.,0.));
#742=DIRECTION('',(0.,0.,1.));
#743=DIRECTION('',(1.,0.,0.));
#744=DIRECTION('',(0.,0.,1.));
#745=DIRECTION('',(1.,0.,0.));
#746=DIRECTION('',(0.,0.,-1.));
#747=DIRECTION('',(-1.,0.,0.));
#748=DIRECTION('',(0.,0.,1.));
#749=DIRECTION('',(1.,0.,0.));
#750=DIRECTION('',(0.,0.,-1.));
#751=DIRECTION('',(-1.,0.,0.));
#752=DIRECTION('',(0.,0.,1.));
#753=DIRECTION('',(1.,0.,0.));
#754=DIRECTION('',(0.,0.,-1.));
#755=DIRECTION('',(-1.,0.,0.));
#756=DIRECTION('',(0.,0.,1.));
#757=DIRECTION('',(1.,0.,0.));
#758=DIRECTION('',(0.,0.,-1.));
#759=DIRECTION('',(-1.,0.,0.));
#760=DIRECTION('',(0.,0.,1.));
#761=DIRECTION('',(1.,0.,0.));
#762=DIRECTION('',(0.,0.,1.));
#763=DIRECTION('',(1.,0.,0.));
#764=DIRECTION('',(0.,0.,-1.));
#765=DIRECTION('',(-1.,0.,0.));
#766=DIRECTION('',(0.,0.,1.));
#767=DIRECTION('',(1.,0.,0.));
#768=DIRECTION('',(0.,0.,-1.));
#769=DIRECTION('',(-1.,0.,0.));
#770=DIRECTION('',(0.,0.,1.));
#771=DIRECTION('',(1.,0.,0.));
#772=DIRECTION('',(0.,0.,1.));
#773=DIRECTION('',(1.,0.,0.));
#774=DIRECTION('',(0.,0.,-1.));
#775=DIRECTION('',(-1.,0.,0.));
#776=DIRECTION('',(0.,0.,1.));
#777=DIRECTION('',(1.,0.,0.));
#778=DIRECTION('',(0.,0.,-1.));
#779=DIRECTION('',(-1.,0.,0.));
#780=DIRECTION('',(0.,0.,1.));
#781=DIRECTION('',(1.,0.,0.));
#782=DIRECTION('',(0.,0.,1.));
#783=DIRECTION('',(1.,0.,0.));
#784=DIRECTION('',(0.,0.,-1.));
#785=DIRECTION('',(-1.,0.,0.));
#786=DIRECTION('',(0.,0.,1.));
#787=DIRECTION('',(1.,0.,0.));
#788=DIRECTION('',(0.,0.,-1.));
#789=DIRECTION('',(-1.,0.,0.));
#790=DIRECTION('',(0.,0.,1.));
#791=DIRECTION('',(1.,0.,0.));
#792=DIRECTION('',(0.,0.,1.));
#793=DIRECTION('',(1.,0.,0.));
#794=DIRECTION('',(0.,0.,-1.));
#795=DIRECTION('',(-1.,0.,0.));
#796=DIRECTION('',(0.,0.,1.));
#797=DIRECTION('',(1.,0.,0.));
#798=DIRECTION('',(0.,0.,-1.));
#799=DIRECTION('',(-1.,0.,0.));
#800=DIRECTION('',(0.,0.,1.));
#801=DIRECTION('',(1.,0.,0.));
#802=DIRECTION('',(0.,0.,1.));
#803=DIRECTION('',(1.,0.,0.));
#804=DIRECTION('',(0.,0.,-1.));
#805=DIRECTION('',(-1.,0.,0.));
#806=DIRECTION('',(0.,0.,1.));
#807=DIRECTION('',(1.,0.,0.));
#808=DIRECTION('',(0.,0.,-1.));
#809=DIRECTION('',(-1.,0.,0.));
#810=DIRECTION('',(0.,0.,1.));
#811=DIRECTION('',(1.,0.,0.));
#812=DIRECTION('',(0.,0.,1.));
#813=DIRECTION('',(1.,0.,0.));
#814=DIRECTION('',(0.,0.,-1.));
#815=DIRECTION('',(-1.,0.,0.));
#816=DIRECTION('',(0.,0.,1.));
#817=DIRECTION('',(1.,0.,0.));
#818=DIRECTION('',(0.,0.,-1.));
#819=DIRECTION('',(-1.,0.,0.));
#820=DIRECTION('',(0.,0.,1.));
#821=DIRECTION('',(1.,0.,0.));
#822=DIRECTION('',(0.,0.,1.));
#823=DIRECTION('',(1.,0.,0.));
#824=DIRECTION('',(0.,0.,1.));
#825=DIRECTION('',(1.,0.,0.));
#826=DIRECTION('',(0.,0.,-1.));
#827=DIRECTION('',(-1.,0.,0.));
#828=DIRECTION('',(0.,0.,1.));
#829=DIRECTION('',(1.,0.,0.));
#830=DIRECTION('',(0.,0.,-1.));
#831=DIRECTION('',(-1.,0.,0.));
#832=DIRECTION('',(0.,0.,-1.));
#833=DIRECTION('',(-1.,0.,0.));
#834=DIRECTION('',(0.,0.,-1.));
#835=DIRECTION('',(-1.,0.,0.));
#836=DIRECTION('',(0.,0.,1.));
#837=DIRECTION('',(1.,0.,0.));
#838=DIRECTION('',(0.,0.,-1.));
#839=DIRECTION('',(-1.,0.,0.));
#840=DIRECTION('',(0.,0.,1.));
#841=DIRECTION('',(1.,0.,0.));
#842=DIRECTION('',(0.,0.,1.));
#843=DIRECTION('',(1.,0.,0.));
#844=DIRECTION('',(0.,0.,-1.));
#845=DIRECTION('',(-1.,0.,0.));
#846=DIRECTION('',(0.,0.,1.));
#847=DIRECTION('',(1.,0.,0.));
#848=DIRECTION('',(0.,0.,1.));
#849=DIRECTION('',(1.,0.,0.));
#850=DIRECTION('',(0.,0.,1.));
#851=DIRECTION('',(1.,0.,0.));
#852=DIRECTION('',(0.,0.,1.));
#853=DIRECTION('',(1.,0.,0.));
#854=DIRECTION('',(0.,0.,1.));
#855=DIRECTION('',(1.,0.,0.));
#856=DIRECTION('',(0.,0.,1.));
#857=DIRECTION('',(1.,0.,0.));
#858=DIRECTION('',(0.,0.,1.));
#859=DIRECTION('',(1.,0.,0.));
#860=DIRECTION('',(0.,0.,1.));
#861=DIRECTION('',(1.,0.,0.));
#862=DIRECTION('',(0.,0.,1.));
#863=DIRECTION('',(1.,0.,0.));
#864=DIRECTION('',(0.,0.,1.));
#865=DIRECTION('',(1.,0.,0.));
#866=DIRECTION('',(0.,0.,1.));
#867=DIRECTION('',(1.,0.,0.));
#868=DIRECTION('',(0.,0.,1.));
#869=DIRECTION('',(1.,0.,0.));
#870=DIRECTION('',(0.,0.,1.));
#871=DIRECTION('',(1.,0.,0.));
#872=DIRECTION('',(0.,0.,1.));
#873=DIRECTION('',(1.,0.,0.));
#874=DIRECTION('',(0.,0.,1.));
#875=DIRECTION('',(1.,0.,0.));
#876=DIRECTION('',(0.,0.,1.));
#877=DIRECTION('',(1.,0.,0.));
#878=DIRECTION('',(0.,0.,-1.));
#879=DIRECTION('',(-1.,0.,0.));
#880=DIRECTION('',(0.,0.,-1.));
#881=DIRECTION('',(-1.,0.,0.));
#882=DIRECTION('',(0.,0.,-1.));
#883=DIRECTION('',(-1.,0.,0.));
#884=DIRECTION('',(0.,0.,-1.));
#885=DIRECTION('',(-1.,0.,0.));
#886=DIRECTION('',(0.,0.,1.));
#887=DIRECTION('',(1.,0.,0.));
#888=DIRECTION('',(0.,0.,-1.));
#889=DIRECTION('',(-1.,0.,0.));
#890=DIRECTION('',(0.,0.,1.));
#891=DIRECTION('',(1.,0.,0.));
#892=DIRECTION('',(0.,0.,1.));
#893=DIRECTION('',(1.,0.,0.));
#894=DIRECTION('',(0.,0.,-1.));
#895=DIRECTION('',(-1.,0.,0.));
#896=DIRECTION('',(0.,0.,-1.));
#897=DIRECTION('',(-1.,0.,0.));
#898=DIRECTION('',(0.,0.,1.));
#899=DIRECTION('',(1.,0.,0.));
#900=DIRECTION('',(0.,0.,1.));
#901=DIRECTION('',(1.,0.,0.));
#902=DIRECTION('',(0.,0.,1.));
#903=DIRECTION('',(1.,0.,0.));
#904=DIRECTION('',(0.,0.,1.));
#905=DIRECTION('',(1.,0.,0.));
#906=DIRECTION('',(0.,0.,1.));
#907=DIRECTION('',(1.,0.,0.));
#908=DIRECTION('',(0.,0.,1.));
#909=DIRECTION('',(1.,0.,0.));
#910=DIRECTION('',(0.,0.,1.));
#911=DIRECTION('',(1.,0.,0.));
#912=DIRECTION('',(0.,0.,1.));
#913=DIRECTION('',(1.,0.,0.));
#914=DIRECTION('',(0.,0.,1.));
#915=DIRECTION('',(1.,0.,0.));
#916=DIRECTION('',(0.,0.,-1.));
#917=DIRECTION('',(1.,0.,0.));
#918=DIRECTION('',(0.,0.,-1.));
#919=DIRECTION('',(1.,0.,0.));
#920=DIRECTION('',(0.,0.,-1.));
#921=DIRECTION('',(-1.,0.,0.));
#922=DIRECTION('',(0.,0.,1.));
#923=DIRECTION('',(1.,0.,0.));
#924=DIRECTION('',(0.,0.,1.));
#925=DIRECTION('',(1.,0.,0.));
#926=CARTESIAN_POINT('',(0.,0.,0.));
#927=CARTESIAN_POINT('',(-0.0165242706095246,-0.0398931182138373,0.005715));
#928=CARTESIAN_POINT('',(-0.0165242706095246,-0.0398931182138373,0.005715));
#929=CARTESIAN_POINT('',(-0.0151717206095246,-0.0398931182138373,0.005715));
#930=CARTESIAN_POINT('',(-0.0165242706095246,-0.0398931182138373,0.00652769403026574));
#931=CARTESIAN_POINT('',(-0.0165242706095246,-0.0398931182138373,-3.29295319576493E-18));
#932=CARTESIAN_POINT('',(-0.0165242706095246,-0.0398931182138373,-6.76240014771855E-18));
#933=CARTESIAN_POINT('',(-0.0151717206095246,-0.0398931182138373,-6.76240014771855E-18));
#934=CARTESIAN_POINT('',(0.0398931182138373,-0.0165242706095246,0.005715));
#935=CARTESIAN_POINT('',(0.0398931182138373,-0.0165242706095246,0.005715));
#936=CARTESIAN_POINT('',(0.0412456682138373,-0.0165242706095246,0.005715));
#937=CARTESIAN_POINT('',(0.0398931182138373,-0.0165242706095246,0.00652769403026574));
#938=CARTESIAN_POINT('',(0.0398931182138373,-0.0165242706095246,-3.29295319576493E-18));
#939=CARTESIAN_POINT('',(0.0398931182138373,-0.0165242706095246,-6.76240014771855E-18));
#940=CARTESIAN_POINT('',(0.0412456682138373,-0.0165242706095246,-6.76240014771855E-18));
#941=CARTESIAN_POINT('',(0.0165242706095246,0.0398931182138373,0.005715));
#942=CARTESIAN_POINT('',(0.0165242706095246,0.0398931182138373,0.005715));
#943=CARTESIAN_POINT('',(0.0178768206095246,0.0398931182138373,0.005715));
#944=CARTESIAN_POINT('',(0.0165242706095246,0.0398931182138373,0.00652769403026574));
#945=CARTESIAN_POINT('',(0.0165242706095246,0.0398931182138373,-3.29295319576493E-18));
#946=CARTESIAN_POINT('',(0.0165242706095246,0.0398931182138373,-6.76240014771855E-18));
#947=CARTESIAN_POINT('',(0.0178768206095246,0.0398931182138373,-6.76240014771855E-18));
#948=CARTESIAN_POINT('',(-0.040005,0.,-3.29295319576493E-18));
#949=CARTESIAN_POINT('',(0.0398931182138373,0.0165242706095246,-3.46944695195361E-18));
#950=CARTESIAN_POINT('',(0.045759753245284,0.0189543104050429,-4.79852524236113E-18));
#951=CARTESIAN_POINT('',(0.0340264831823906,0.0140942308140063,-1.7347234759768E-18));
#952=CARTESIAN_POINT('',(0.,0.,-6.58590639152987E-18));
#953=CARTESIAN_POINT('',(-0.045759753245284,-0.0189543104050429,-4.79852524236113E-18));
#954=CARTESIAN_POINT('',(-0.0398931182138373,-0.0165242706095246,-3.46944695195361E-18));
#955=CARTESIAN_POINT('',(-0.0340264831823906,-0.0140942308140063,-1.7347234759768E-18));
#956=CARTESIAN_POINT('',(0.,0.,0.));
#957=CARTESIAN_POINT('',(-0.04238625,0.,0.00889));
#958=CARTESIAN_POINT('',(-0.0398931182138373,-0.0165242706095246,0.00889));
#959=CARTESIAN_POINT('',(-0.0384264594559756,-0.0159167606606451,0.00889));
#960=CARTESIAN_POINT('',(-0.041359776971699,-0.0171317805584042,0.00889));
#961=CARTESIAN_POINT('',(0.,0.,0.00889));
#962=CARTESIAN_POINT('',(0.0384264594559756,0.015916760660645,0.00889));
#963=CARTESIAN_POINT('',(0.0398931182138373,0.0165242706095246,0.00889));
#964=CARTESIAN_POINT('',(0.041359776971699,0.0171317805584041,0.00889));
#965=CARTESIAN_POINT('',(0.,0.,0.00889));
#966=CARTESIAN_POINT('',(-0.04238625,0.,0.012065));
#967=CARTESIAN_POINT('',(0.,0.,0.012065));
#968=CARTESIAN_POINT('',(-0.0415925,4.68162885970003E-20,0.012065));
#969=CARTESIAN_POINT('',(-0.0294103387965014,0.0294103387965015,0.012065));
#970=CARTESIAN_POINT('',(-0.04318,9.72063396823212E-20,0.012065));
#971=CARTESIAN_POINT('',(-0.0447675,1.45809509523482E-19,0.012065));
#972=CARTESIAN_POINT('',(0.,0.,0.012065));
#973=CARTESIAN_POINT('',(-0.0316554028267687,0.0316554028267689,0.012065));
#974=CARTESIAN_POINT('',(-0.0305328708116351,0.0305328708116352,0.012065));
#975=CARTESIAN_POINT('',(-0.04238625,0.,0.012065));
#976=CARTESIAN_POINT('',(0.,0.,0.012065));
#977=CARTESIAN_POINT('',(-0.0316554028267688,-0.0316554028267688,0.012065));
#978=CARTESIAN_POINT('',(-0.04318,9.72063396823212E-20,0.012065));
#979=CARTESIAN_POINT('',(0.,0.,0.012065));
#980=CARTESIAN_POINT('',(-0.0294103387965015,-0.0294103387965014,0.012065));
#981=CARTESIAN_POINT('',(-0.0305328708116352,-0.0305328708116351,0.012065));
#982=CARTESIAN_POINT('',(-0.04238625,0.,0.012065));
#983=CARTESIAN_POINT('',(0.,0.,0.012065));
#984=CARTESIAN_POINT('',(2.59362238827381E-18,0.0415925,0.012065));
#985=CARTESIAN_POINT('',(-0.0305328708116351,0.0305328708116352,0.012065));
#986=CARTESIAN_POINT('',(0.,0.,0.012065));
#987=CARTESIAN_POINT('',(1.26329974601816E-17,0.0447675,0.012065));
#988=CARTESIAN_POINT('',(8.02924365775973E-18,0.04318,0.012065));
#989=CARTESIAN_POINT('',(-0.04238625,0.,0.012065));
#990=CARTESIAN_POINT('',(0.,0.,0.012065));
#991=CARTESIAN_POINT('',(0.0294103387965015,0.0294103387965014,0.012065));
#992=CARTESIAN_POINT('',(8.02924365775973E-18,0.04318,0.012065));
#993=CARTESIAN_POINT('',(0.,0.,0.012065));
#994=CARTESIAN_POINT('',(0.0316554028267689,0.0316554028267687,0.012065));
#995=CARTESIAN_POINT('',(0.0305328708116352,0.0305328708116351,0.012065));
#996=CARTESIAN_POINT('',(-0.04238625,0.,0.012065));
#997=CARTESIAN_POINT('',(0.,0.,0.012065));
#998=CARTESIAN_POINT('',(0.0415925,9.84054969855208E-20,0.012065));
#999=CARTESIAN_POINT('',(0.0305328708116352,0.0305328708116351,0.012065));
#1000=CARTESIAN_POINT('',(0.,0.,0.012065));
#1001=CARTESIAN_POINT('',(0.0447675,-1.4580950952348E-19,0.012065));
#1002=CARTESIAN_POINT('',(0.04318,-5.38523121840059E-18,0.012065));
#1003=CARTESIAN_POINT('',(-0.04238625,0.,0.012065));
#1004=CARTESIAN_POINT('',(0.,0.,0.012065));
#1005=CARTESIAN_POINT('',(0.0294103387965014,-0.0294103387965015,0.012065));
#1006=CARTESIAN_POINT('',(2.49998981107981E-18,-0.0415925,0.012065));
#1007=CARTESIAN_POINT('',(0.0305328708116351,-0.0305328708116352,0.012065));
#1008=CARTESIAN_POINT('',(0.0316554028267687,-0.0316554028267688,0.012065));
#1009=CARTESIAN_POINT('',(0.,0.,0.012065));
#1010=CARTESIAN_POINT('',(2.59540926951798E-18,-0.0447675,0.012065));
#1011=CARTESIAN_POINT('',(-2.74121877904145E-18,-0.04318,0.012065));
#1012=CARTESIAN_POINT('',(-0.04238625,0.,0.012065));
#1013=CARTESIAN_POINT('',(0.,0.,0.012065));
#1014=CARTESIAN_POINT('',(-2.74121877904145E-18,-0.04318,0.012065));
#1015=CARTESIAN_POINT('',(0.,0.,0.012065));
#1016=CARTESIAN_POINT('',(-0.0305328708116352,-0.0305328708116351,0.012065));
#1017=CARTESIAN_POINT('',(-0.04238625,0.,0.00889));
#1018=CARTESIAN_POINT('',(-0.0398931182138373,-0.0165242706095246,0.00889));
#1019=CARTESIAN_POINT('',(0.,0.,0.00889));
#1020=CARTESIAN_POINT('',(0.0398931182138373,0.0165242706095246,0.00889));
#1021=CARTESIAN_POINT('',(0.,0.,0.00889));
#1022=CARTESIAN_POINT('',(0.,0.,0.));
#1023=CARTESIAN_POINT('',(0.,0.,0.012065));
#1024=CARTESIAN_POINT('',(-0.04238625,0.,0.012065));
#1025=CARTESIAN_POINT('',(0.,0.,0.012065));
#1026=CARTESIAN_POINT('',(0.04318,-5.38523121840059E-18,0.012065));
#1027=CARTESIAN_POINT('',(0.0305328708116351,-0.0305328708116352,0.012065));
#1028=CARTESIAN_POINT('',(0.,0.,0.));
#1029=CARTESIAN_POINT('',(-0.0305328708116352,-0.0305328708116351,0.01016));
#1030=CARTESIAN_POINT('',(-0.0305328708116352,-0.0305328708116351,0.0127));
#1031=CARTESIAN_POINT('',(-0.0289453708116352,-0.0305328708116351,0.0127));
#1032=CARTESIAN_POINT('',(-2.74121877904145E-18,-0.04318,0.01016));
#1033=CARTESIAN_POINT('',(-2.74121877904145E-18,-0.04318,0.0127));
#1034=CARTESIAN_POINT('',(0.0015875,-0.04318,0.0127));
#1035=CARTESIAN_POINT('',(0.0305328708116351,-0.0305328708116352,0.01016));
#1036=CARTESIAN_POINT('',(0.0305328708116351,-0.0305328708116352,0.0127));
#1037=CARTESIAN_POINT('',(0.0321203708116351,-0.0305328708116352,0.0127));
#1038=CARTESIAN_POINT('',(0.04318,-5.38523121840059E-18,0.01016));
#1039=CARTESIAN_POINT('',(0.04318,-5.38523121840059E-18,0.0127));
#1040=CARTESIAN_POINT('',(0.0447675,-5.38523121840059E-18,0.0127));
#1041=CARTESIAN_POINT('',(0.0305328708116352,0.0305328708116351,0.01016));
#1042=CARTESIAN_POINT('',(0.0305328708116352,0.0305328708116351,0.0127));
#1043=CARTESIAN_POINT('',(0.0321203708116352,0.0305328708116351,0.0127));
#1044=CARTESIAN_POINT('',(8.02924365775973E-18,0.04318,0.01016));
#1045=CARTESIAN_POINT('',(8.02924365775973E-18,0.04318,0.0127));
#1046=CARTESIAN_POINT('',(0.00158750000000001,0.04318,0.0127));
#1047=CARTESIAN_POINT('',(-0.0305328708116351,0.0305328708116352,0.01016));
#1048=CARTESIAN_POINT('',(-0.0305328708116351,0.0305328708116352,0.0127));
#1049=CARTESIAN_POINT('',(-0.0289453708116351,0.0305328708116352,0.0127));
#1050=CARTESIAN_POINT('',(-0.04318,9.72063396823212E-20,0.01016));
#1051=CARTESIAN_POINT('',(-0.04318,9.72063396823212E-20,0.0127));
#1052=CARTESIAN_POINT('',(-0.0415925,9.72063396823212E-20,0.0127));
#1053=CARTESIAN_POINT('',(0.,0.,0.));
#1054=CARTESIAN_POINT('',(0.,0.,0.0127));
#1055=CARTESIAN_POINT('',(-0.04953,0.,0.0127));
#1056=CARTESIAN_POINT('',(0.,0.,-6.58590639152987E-18));
#1057=CARTESIAN_POINT('',(-0.040005,0.,-3.29295319576493E-18));
#1058=CARTESIAN_POINT('',(0.0398931182138373,0.0165242706095246,-3.46944695195361E-18));
#1059=CARTESIAN_POINT('',(0.,0.,0.));
#1060=CARTESIAN_POINT('',(-0.0398931182138373,-0.0165242706095246,-3.46944695195361E-18));
#1061=CARTESIAN_POINT('',(-0.0398931182138373,0.0165242706095246,-6.76240014771855E-18));
#1062=CARTESIAN_POINT('',(-0.0385405682138373,0.0165242706095246,-6.76240014771855E-18));
#1063=CARTESIAN_POINT('',(0.,0.,0.));
#1064=CARTESIAN_POINT('',(0.,0.,0.0127));
#1065=CARTESIAN_POINT('',(-0.03683,0.,0.0127));
#1066=CARTESIAN_POINT('',(-0.040005,0.,0.0127));
#1067=CARTESIAN_POINT('',(0.0398931182138373,0.0165242706095246,-0.01651));
#1068=CARTESIAN_POINT('',(0.0398931182138373,0.0165242706095246,-0.047625));
#1069=CARTESIAN_POINT('',(0.0414806182138373,0.0165242706095246,-0.047625));
#1070=CARTESIAN_POINT('',(-0.0398931182138373,-0.0165242706095246,-0.01651));
#1071=CARTESIAN_POINT('',(-0.0398931182138373,-0.0165242706095246,-0.047625));
#1072=CARTESIAN_POINT('',(-0.0383056182138373,-0.0165242706095246,-0.047625));
#1073=CARTESIAN_POINT('',(-0.0398931182138373,-0.0165242706095246,-0.009525));
#1074=CARTESIAN_POINT('',(-0.0398931182138373,-0.0165242706095246,-0.047625));
#1075=CARTESIAN_POINT('',(-0.0335431182138373,-0.0165242706095246,-0.047625));
#1076=CARTESIAN_POINT('',(0.0398931182138373,0.0165242706095246,-0.009525));
#1077=CARTESIAN_POINT('',(0.0398931182138373,0.0165242706095246,-0.047625));
#1078=CARTESIAN_POINT('',(0.0462431182138373,0.0165242706095246,-0.047625));
#1079=CARTESIAN_POINT('',(0.,0.,-0.047625));
#1080=CARTESIAN_POINT('',(0.,0.,-0.047625));
#1081=CARTESIAN_POINT('',(-0.0398931182138373,0.0165242706095246,0.005715));
#1082=CARTESIAN_POINT('',(-0.0398931182138373,0.0165242706095246,0.005715));
#1083=CARTESIAN_POINT('',(-0.0385405682138373,0.0165242706095246,0.005715));
#1084=CARTESIAN_POINT('',(-0.0398931182138373,0.0165242706095246,0.00652769403026574));
#1085=CARTESIAN_POINT('',(-0.0398931182138373,0.0165242706095246,-3.29295319576493E-18));
#1086=MECHANICAL_DESIGN_GEOMETRIC_PRESENTATION_REPRESENTATION('',(#585),
#1087);
#1087=(
GEOMETRIC_REPRESENTATION_CONTEXT(3)
GLOBAL_UNCERTAINTY_ASSIGNED_CONTEXT((#1088))
GLOBAL_UNIT_ASSIGNED_CONTEXT((#1091,#1090,#1089))
REPRESENTATION_CONTEXT('injector:1__Body1','TOP_LEVEL_ASSEMBLY_PART')
);
#1088=UNCERTAINTY_MEASURE_WITH_UNIT(LENGTH_MEASURE(1.E-8),#1091,
'DISTANCE_ACCURACY_VALUE','Maximum Tolerance applied to model');
#1089=(
NAMED_UNIT(*)
SI_UNIT($,.STERADIAN.)
SOLID_ANGLE_UNIT()
);
#1090=(
NAMED_UNIT(*)
PLANE_ANGLE_UNIT()
SI_UNIT($,.RADIAN.)
);
#1091=(
LENGTH_UNIT()
NAMED_UNIT(*)
SI_UNIT($,.METRE.)
);
#1092=PRODUCT_DEFINITION_SHAPE('','',#1093);
#1093=PRODUCT_DEFINITION('','',#1095,#1094);
#1094=PRODUCT_DEFINITION_CONTEXT('',#1101,'design');
#1095=PRODUCT_DEFINITION_FORMATION_WITH_SPECIFIED_SOURCE('','',#1097,
 .NOT_KNOWN.);
#1096=PRODUCT_RELATED_PRODUCT_CATEGORY('','',(#1097));
#1097=PRODUCT('injector:1__Body1','injector:1__Body1',
'injector:1__Body1',(#1099));
#1098=PRODUCT_CATEGORY('','');
#1099=PRODUCT_CONTEXT('',#1101,'mechanical');
#1100=APPLICATION_PROTOCOL_DEFINITION('international standard',
'automotive_design',2010,#1101);
#1101=APPLICATION_CONTEXT(
'core data for automotive mechanical design processes');
ENDSEC;
END-ISO-10303-21;
