ISO-10303-21;
HEADER;
/* Generated by software containing ST-Developer
 * from STEP Tools, Inc. (www.steptools.com) 
 */
/* OPTION: using custom renumber hook */

FILE_DESCRIPTION(
/* description */ ('STEP AP214',
'CAx-IF Rec.Pracs.---User Defined Attributes---1.5---2016-08-15'),
/* implementation_level */ '2;1');

FILE_NAME(
/* name */ 'BPL-700 Assembly - chamber-1__Body1',
/* time_stamp */ '2026-09-05T23:29:19Z',
/* author */ (''),
/* organization */ (''),
/* preprocessor_version */ 'ST-DEVELOPER v20',
/* originating_system */ 'ONSHAPE BY PTC INC, 1.220',
/* authorisation */ '  ');

FILE_SCHEMA (('AUTOMOTIVE_DESIGN {1 0 10303 214 3 1 1}'));
ENDSEC;

DATA;
#10=PROPERTY_DEFINITION_REPRESENTATION(#14,#12);
#11=PROPERTY_DEFINITION_REPRESENTATION(#15,#13);
#12=REPRESENTATION('',(#16),#441);
#13=REPRESENTATION('',(#17),#441);
#14=PROPERTY_DEFINITION('pmi validation property','',#446);
#15=PROPERTY_DEFINITION('pmi validation property','',#446);
#16=VALUE_REPRESENTATION_ITEM('number of annotations',COUNT_MEASURE(0.));
#17=VALUE_REPRESENTATION_ITEM('number of views',COUNT_MEASURE(0.));
#18=SHAPE_REPRESENTATION_RELATIONSHIP('','',#261,#19);
#19=ADVANCED_BREP_SHAPE_REPRESENTATION('',(#259),#441);
#20=PLANE('',#266);
#21=PLANE('',#268);
#22=PLANE('',#282);
#23=PLANE('',#289);
#24=PLANE('',#294);
#25=ORIENTED_EDGE('',*,*,#69,.F.);
#26=ORIENTED_EDGE('',*,*,#70,.F.);
#27=ORIENTED_EDGE('',*,*,#69,.T.);
#28=ORIENTED_EDGE('',*,*,#71,.F.);
#29=ORIENTED_EDGE('',*,*,#72,.T.);
#30=ORIENTED_EDGE('',*,*,#73,.F.);
#31=ORIENTED_EDGE('',*,*,#74,.F.);
#32=ORIENTED_EDGE('',*,*,#75,.F.);
#33=ORIENTED_EDGE('',*,*,#76,.F.);
#34=ORIENTED_EDGE('',*,*,#77,.F.);
#35=ORIENTED_EDGE('',*,*,#78,.F.);
#36=ORIENTED_EDGE('',*,*,#79,.T.);
#37=ORIENTED_EDGE('',*,*,#80,.T.);
#38=ORIENTED_EDGE('',*,*,#81,.F.);
#39=ORIENTED_EDGE('',*,*,#71,.T.);
#40=ORIENTED_EDGE('',*,*,#82,.F.);
#41=ORIENTED_EDGE('',*,*,#82,.T.);
#42=ORIENTED_EDGE('',*,*,#83,.T.);
#43=ORIENTED_EDGE('',*,*,#84,.T.);
#44=ORIENTED_EDGE('',*,*,#85,.T.);
#45=ORIENTED_EDGE('',*,*,#86,.T.);
#46=ORIENTED_EDGE('',*,*,#87,.F.);
#47=ORIENTED_EDGE('',*,*,#88,.F.);
#48=ORIENTED_EDGE('',*,*,#80,.F.);
#49=ORIENTED_EDGE('',*,*,#81,.T.);
#50=ORIENTED_EDGE('',*,*,#89,.F.);
#51=ORIENTED_EDGE('',*,*,#89,.T.);
#52=ORIENTED_EDGE('',*,*,#79,.F.);
#53=ORIENTED_EDGE('',*,*,#90,.T.);
#54=ORIENTED_EDGE('',*,*,#72,.F.);
#55=ORIENTED_EDGE('',*,*,#90,.F.);
#56=ORIENTED_EDGE('',*,*,#70,.T.);
#57=ORIENTED_EDGE('',*,*,#78,.T.);
#58=ORIENTED_EDGE('',*,*,#88,.T.);
#59=ORIENTED_EDGE('',*,*,#77,.T.);
#60=ORIENTED_EDGE('',*,*,#87,.T.);
#61=ORIENTED_EDGE('',*,*,#76,.T.);
#62=ORIENTED_EDGE('',*,*,#86,.F.);
#63=ORIENTED_EDGE('',*,*,#75,.T.);
#64=ORIENTED_EDGE('',*,*,#85,.F.);
#65=ORIENTED_EDGE('',*,*,#74,.T.);
#66=ORIENTED_EDGE('',*,*,#84,.F.);
#67=ORIENTED_EDGE('',*,*,#73,.T.);
#68=ORIENTED_EDGE('',*,*,#83,.F.);
#69=EDGE_CURVE('',#91,#91,#113,.F.);
#70=EDGE_CURVE('',#92,#92,#114,.T.);
#71=EDGE_CURVE('',#93,#93,#115,.T.);
#72=EDGE_CURVE('',#94,#94,#116,.T.);
#73=EDGE_CURVE('',#95,#95,#117,.T.);
#74=EDGE_CURVE('',#96,#96,#118,.T.);
#75=EDGE_CURVE('',#97,#97,#119,.T.);
#76=EDGE_CURVE('',#98,#98,#120,.T.);
#77=EDGE_CURVE('',#99,#99,#121,.T.);
#78=EDGE_CURVE('',#100,#100,#122,.T.);
#79=EDGE_CURVE('',#101,#101,#123,.T.);
#80=EDGE_CURVE('',#102,#102,#124,.T.);
#81=EDGE_CURVE('',#103,#103,#125,.T.);
#82=EDGE_CURVE('',#104,#104,#126,.T.);
#83=EDGE_CURVE('',#105,#105,#127,.T.);
#84=EDGE_CURVE('',#106,#106,#128,.T.);
#85=EDGE_CURVE('',#107,#107,#129,.T.);
#86=EDGE_CURVE('',#108,#108,#130,.T.);
#87=EDGE_CURVE('',#109,#109,#131,.F.);
#88=EDGE_CURVE('',#110,#110,#132,.F.);
#89=EDGE_CURVE('',#111,#111,#133,.T.);
#90=EDGE_CURVE('',#112,#112,#134,.T.);
#91=VERTEX_POINT('',#382);
#92=VERTEX_POINT('',#384);
#93=VERTEX_POINT('',#387);
#94=VERTEX_POINT('',#390);
#95=VERTEX_POINT('',#392);
#96=VERTEX_POINT('',#394);
#97=VERTEX_POINT('',#396);
#98=VERTEX_POINT('',#398);
#99=VERTEX_POINT('',#400);
#100=VERTEX_POINT('',#402);
#101=VERTEX_POINT('',#404);
#102=VERTEX_POINT('',#407);
#103=VERTEX_POINT('',#409);
#104=VERTEX_POINT('',#412);
#105=VERTEX_POINT('',#415);
#106=VERTEX_POINT('',#417);
#107=VERTEX_POINT('',#419);
#108=VERTEX_POINT('',#421);
#109=VERTEX_POINT('',#423);
#110=VERTEX_POINT('',#425);
#111=VERTEX_POINT('',#428);
#112=VERTEX_POINT('',#432);
#113=CIRCLE('',#264,0.0555625);
#114=CIRCLE('',#265,0.0555625);
#115=CIRCLE('',#267,0.0508);
#116=CIRCLE('',#269,0.0619125);
#117=CIRCLE('',#270,0.0018288);
#118=CIRCLE('',#271,0.0018288);
#119=CIRCLE('',#272,0.0018288);
#120=CIRCLE('',#273,0.0018288);
#121=CIRCLE('',#274,0.00635);
#122=CIRCLE('',#275,0.00635);
#123=CIRCLE('',#276,0.0307975);
#124=CIRCLE('',#278,0.03556);
#125=CIRCLE('',#279,0.03556);
#126=CIRCLE('',#281,0.0508);
#127=CIRCLE('',#283,0.0018288);
#128=CIRCLE('',#284,0.0018288);
#129=CIRCLE('',#285,0.0018288);
#130=CIRCLE('',#286,0.0018288);
#131=CIRCLE('',#287,0.00635);
#132=CIRCLE('',#288,0.00635);
#133=CIRCLE('',#290,0.0307975);
#134=CIRCLE('',#293,0.0619125);
#135=EDGE_LOOP('',(#25));
#136=EDGE_LOOP('',(#26));
#137=EDGE_LOOP('',(#27));
#138=EDGE_LOOP('',(#28));
#139=EDGE_LOOP('',(#29));
#140=EDGE_LOOP('',(#30));
#141=EDGE_LOOP('',(#31));
#142=EDGE_LOOP('',(#32));
#143=EDGE_LOOP('',(#33));
#144=EDGE_LOOP('',(#34));
#145=EDGE_LOOP('',(#35));
#146=EDGE_LOOP('',(#36));
#147=EDGE_LOOP('',(#37));
#148=EDGE_LOOP('',(#38));
#149=EDGE_LOOP('',(#39));
#150=EDGE_LOOP('',(#40));
#151=EDGE_LOOP('',(#41));
#152=EDGE_LOOP('',(#42));
#153=EDGE_LOOP('',(#43));
#154=EDGE_LOOP('',(#44));
#155=EDGE_LOOP('',(#45));
#156=EDGE_LOOP('',(#46));
#157=EDGE_LOOP('',(#47));
#158=EDGE_LOOP('',(#48));
#159=EDGE_LOOP('',(#49));
#160=EDGE_LOOP('',(#50));
#161=EDGE_LOOP('',(#51));
#162=EDGE_LOOP('',(#52));
#163=EDGE_LOOP('',(#53));
#164=EDGE_LOOP('',(#54));
#165=EDGE_LOOP('',(#55));
#166=EDGE_LOOP('',(#56));
#167=EDGE_LOOP('',(#57));
#168=EDGE_LOOP('',(#58));
#169=EDGE_LOOP('',(#59));
#170=EDGE_LOOP('',(#60));
#171=EDGE_LOOP('',(#61));
#172=EDGE_LOOP('',(#62));
#173=EDGE_LOOP('',(#63));
#174=EDGE_LOOP('',(#64));
#175=EDGE_LOOP('',(#65));
#176=EDGE_LOOP('',(#66));
#177=EDGE_LOOP('',(#67));
#178=EDGE_LOOP('',(#68));
#179=FACE_BOUND('',#135,.T.);
#180=FACE_BOUND('',#136,.T.);
#181=FACE_BOUND('',#137,.T.);
#182=FACE_BOUND('',#138,.T.);
#183=FACE_BOUND('',#139,.T.);
#184=FACE_BOUND('',#140,.T.);
#185=FACE_BOUND('',#141,.T.);
#186=FACE_BOUND('',#142,.T.);
#187=FACE_BOUND('',#143,.T.);
#188=FACE_BOUND('',#144,.T.);
#189=FACE_BOUND('',#145,.T.);
#190=FACE_BOUND('',#146,.T.);
#191=FACE_BOUND('',#147,.T.);
#192=FACE_BOUND('',#148,.T.);
#193=FACE_BOUND('',#149,.T.);
#194=FACE_BOUND('',#150,.T.);
#195=FACE_BOUND('',#151,.T.);
#196=FACE_BOUND('',#152,.T.);
#197=FACE_BOUND('',#153,.T.);
#198=FACE_BOUND('',#154,.T.);
#199=FACE_BOUND('',#155,.T.);
#200=FACE_BOUND('',#156,.T.);
#201=FACE_BOUND('',#157,.T.);
#202=FACE_BOUND('',#158,.T.);
#203=FACE_BOUND('',#159,.T.);
#204=FACE_BOUND('',#160,.T.);
#205=FACE_BOUND('',#161,.T.);
#206=FACE_BOUND('',#162,.T.);
#207=FACE_BOUND('',#163,.T.);
#208=FACE_BOUND('',#164,.T.);
#209=FACE_BOUND('',#165,.T.);
#210=FACE_BOUND('',#166,.T.);
#211=FACE_BOUND('',#167,.T.);
#212=FACE_BOUND('',#168,.T.);
#213=FACE_BOUND('',#169,.T.);
#214=FACE_BOUND('',#170,.T.);
#215=FACE_BOUND('',#171,.T.);
#216=FACE_BOUND('',#172,.T.);
#217=FACE_BOUND('',#173,.T.);
#218=FACE_BOUND('',#174,.T.);
#219=FACE_BOUND('',#175,.T.);
#220=FACE_BOUND('',#176,.T.);
#221=FACE_BOUND('',#177,.T.);
#222=FACE_BOUND('',#178,.T.);
#223=CYLINDRICAL_SURFACE('',#263,0.0555625);
#224=CYLINDRICAL_SURFACE('',#277,0.03556);
#225=CYLINDRICAL_SURFACE('',#280,0.0508);
#226=CYLINDRICAL_SURFACE('',#291,0.0307975);
#227=CYLINDRICAL_SURFACE('',#292,0.0619125);
#228=CYLINDRICAL_SURFACE('',#295,0.00635);
#229=CYLINDRICAL_SURFACE('',#296,0.00635);
#230=CYLINDRICAL_SURFACE('',#297,0.0018288);
#231=CYLINDRICAL_SURFACE('',#298,0.0018288);
#232=CYLINDRICAL_SURFACE('',#299,0.0018288);
#233=CYLINDRICAL_SURFACE('',#300,0.0018288);
#234=ADVANCED_FACE('',(#179,#180),#223,.T.);
#235=ADVANCED_FACE('',(#181,#182),#20,.T.);
#236=ADVANCED_FACE('',(#183,#184,#185,#186,#187,#188,#189,#190),#21,.F.);
#237=ADVANCED_FACE('',(#191,#192),#224,.T.);
#238=ADVANCED_FACE('',(#193,#194),#225,.F.);
#239=ADVANCED_FACE('',(#195,#196,#197,#198,#199,#200,#201,#202),#22,.T.);
#240=ADVANCED_FACE('',(#203,#204),#23,.T.);
#241=ADVANCED_FACE('',(#205,#206),#226,.F.);
#242=ADVANCED_FACE('',(#207,#208),#227,.T.);
#243=ADVANCED_FACE('',(#209,#210),#24,.F.);
#244=ADVANCED_FACE('',(#211,#212),#228,.F.);
#245=ADVANCED_FACE('',(#213,#214),#229,.F.);
#246=ADVANCED_FACE('',(#215,#216),#230,.F.);
#247=ADVANCED_FACE('',(#217,#218),#231,.F.);
#248=ADVANCED_FACE('',(#219,#220),#232,.F.);
#249=ADVANCED_FACE('',(#221,#222),#233,.F.);
#250=CLOSED_SHELL('',(#234,#235,#236,#237,#238,#239,#240,#241,#242,#243,
#244,#245,#246,#247,#248,#249));
#251=STYLED_ITEM('',(#252),#259);
#252=PRESENTATION_STYLE_ASSIGNMENT((#253));
#253=SURFACE_STYLE_USAGE(.BOTH.,#254);
#254=SURFACE_SIDE_STYLE('',(#255));
#255=SURFACE_STYLE_FILL_AREA(#256);
#256=FILL_AREA_STYLE('',(#257));
#257=FILL_AREA_STYLE_COLOUR('',#258);
#258=COLOUR_RGB('',0.917647058823529,0.917647058823529,0.917647058823529);
#259=MANIFOLD_SOLID_BREP('chamber:1__Body1',#250);
#260=SHAPE_DEFINITION_REPRESENTATION(#446,#261);
#261=SHAPE_REPRESENTATION('chamber:1__Body1',(#262),#441);
#262=AXIS2_PLACEMENT_3D('',#379,#301,#302);
#263=AXIS2_PLACEMENT_3D('',#380,#303,#304);
#264=AXIS2_PLACEMENT_3D('',#381,#305,#306);
#265=AXIS2_PLACEMENT_3D('',#383,#307,#308);
#266=AXIS2_PLACEMENT_3D('',#385,#309,#310);
#267=AXIS2_PLACEMENT_3D('',#386,#311,#312);
#268=AXIS2_PLACEMENT_3D('',#388,#313,#314);
#269=AXIS2_PLACEMENT_3D('',#389,#315,#316);
#270=AXIS2_PLACEMENT_3D('',#391,#317,#318);
#271=AXIS2_PLACEMENT_3D('',#393,#319,#320);
#272=AXIS2_PLACEMENT_3D('',#395,#321,#322);
#273=AXIS2_PLACEMENT_3D('',#397,#323,#324);
#274=AXIS2_PLACEMENT_3D('',#399,#325,#326);
#275=AXIS2_PLACEMENT_3D('',#401,#327,#328);
#276=AXIS2_PLACEMENT_3D('',#403,#329,#330);
#277=AXIS2_PLACEMENT_3D('',#405,#331,#332);
#278=AXIS2_PLACEMENT_3D('',#406,#333,#334);
#279=AXIS2_PLACEMENT_3D('',#408,#335,#336);
#280=AXIS2_PLACEMENT_3D('',#410,#337,#338);
#281=AXIS2_PLACEMENT_3D('',#411,#339,#340);
#282=AXIS2_PLACEMENT_3D('',#413,#341,#342);
#283=AXIS2_PLACEMENT_3D('',#414,#343,#344);
#284=AXIS2_PLACEMENT_3D('',#416,#345,#346);
#285=AXIS2_PLACEMENT_3D('',#418,#347,#348);
#286=AXIS2_PLACEMENT_3D('',#420,#349,#350);
#287=AXIS2_PLACEMENT_3D('',#422,#351,#352);
#288=AXIS2_PLACEMENT_3D('',#424,#353,#354);
#289=AXIS2_PLACEMENT_3D('',#426,#355,#356);
#290=AXIS2_PLACEMENT_3D('',#427,#357,#358);
#291=AXIS2_PLACEMENT_3D('',#429,#359,#360);
#292=AXIS2_PLACEMENT_3D('',#430,#361,#362);
#293=AXIS2_PLACEMENT_3D('',#431,#363,#364);
#294=AXIS2_PLACEMENT_3D('',#433,#365,#366);
#295=AXIS2_PLACEMENT_3D('',#434,#367,#368);
#296=AXIS2_PLACEMENT_3D('',#435,#369,#370);
#297=AXIS2_PLACEMENT_3D('',#436,#371,#372);
#298=AXIS2_PLACEMENT_3D('',#437,#373,#374);
#299=AXIS2_PLACEMENT_3D('',#438,#375,#376);
#300=AXIS2_PLACEMENT_3D('',#439,#377,#378);
#301=DIRECTION('',(0.,0.,1.));
#302=DIRECTION('',(1.,0.,0.));
#303=DIRECTION('',(0.,0.,-1.));
#304=DIRECTION('',(-1.,0.,0.));
#305=DIRECTION('',(0.,0.,-1.));
#306=DIRECTION('',(-1.,0.,0.));
#307=DIRECTION('',(0.,0.,-1.));
#308=DIRECTION('',(-1.,0.,0.));
#309=DIRECTION('',(0.,0.,1.));
#310=DIRECTION('',(1.,0.,0.));
#311=DIRECTION('',(0.,0.,1.));
#312=DIRECTION('',(1.,0.,0.));
#313=DIRECTION('',(0.,0.,1.));
#314=DIRECTION('',(1.,0.,0.));
#315=DIRECTION('',(0.,0.,-1.));
#316=DIRECTION('',(-1.,0.,0.));
#317=DIRECTION('',(0.,0.,-1.));
#318=DIRECTION('',(-1.,0.,0.));
#319=DIRECTION('',(0.,0.,-1.));
#320=DIRECTION('',(-1.,0.,0.));
#321=DIRECTION('',(0.,0.,-1.));
#322=DIRECTION('',(-1.,0.,0.));
#323=DIRECTION('',(0.,0.,-1.));
#324=DIRECTION('',(-1.,0.,0.));
#325=DIRECTION('',(0.,0.,-1.));
#326=DIRECTION('',(-1.,0.,0.));
#327=DIRECTION('',(0.,0.,-1.));
#328=DIRECTION('',(-1.,0.,0.));
#329=DIRECTION('',(0.,0.,1.));
#330=DIRECTION('',(1.,0.,0.));
#331=DIRECTION('',(0.,0.,1.));
#332=DIRECTION('',(1.,0.,0.));
#333=DIRECTION('',(0.,0.,1.));
#334=DIRECTION('',(1.,0.,0.));
#335=DIRECTION('',(0.,0.,1.));
#336=DIRECTION('',(1.,0.,0.));
#337=DIRECTION('',(0.,0.,1.));
#338=DIRECTION('',(1.,0.,0.));
#339=DIRECTION('',(0.,0.,1.));
#340=DIRECTION('',(1.,0.,0.));
#341=DIRECTION('',(0.,0.,1.));
#342=DIRECTION('',(1.,0.,0.));
#343=DIRECTION('',(0.,0.,-1.));
#344=DIRECTION('',(-1.,0.,0.));
#345=DIRECTION('',(0.,0.,-1.));
#346=DIRECTION('',(-1.,0.,0.));
#347=DIRECTION('',(0.,0.,-1.));
#348=DIRECTION('',(-1.,0.,0.));
#349=DIRECTION('',(0.,0.,-1.));
#350=DIRECTION('',(-1.,0.,0.));
#351=DIRECTION('',(0.,0.,-1.));
#352=DIRECTION('',(-1.,0.,0.));
#353=DIRECTION('',(0.,0.,-1.));
#354=DIRECTION('',(-1.,0.,0.));
#355=DIRECTION('',(0.,0.,1.));
#356=DIRECTION('',(1.,0.,0.));
#357=DIRECTION('',(0.,0.,1.));
#358=DIRECTION('',(1.,0.,0.));
#359=DIRECTION('',(0.,0.,1.));
#360=DIRECTION('',(1.,0.,0.));
#361=DIRECTION('',(0.,0.,-1.));
#362=DIRECTION('',(-1.,0.,0.));
#363=DIRECTION('',(0.,0.,-1.));
#364=DIRECTION('',(-1.,0.,0.));
#365=DIRECTION('',(0.,0.,-1.));
#366=DIRECTION('',(1.,0.,0.));
#367=DIRECTION('',(0.,0.,-1.));
#368=DIRECTION('',(-1.,0.,0.));
#369=DIRECTION('',(0.,0.,-1.));
#370=DIRECTION('',(-1.,0.,0.));
#371=DIRECTION('',(0.,0.,-1.));
#372=DIRECTION('',(-1.,0.,0.));
#373=DIRECTION('',(0.,0.,-1.));
#374=DIRECTION('',(-1.,0.,0.));
#375=DIRECTION('',(0.,0.,-1.));
#376=DIRECTION('',(-1.,0.,0.));
#377=DIRECTION('',(0.,0.,-1.));
#378=DIRECTION('',(-1.,0.,0.));
#379=CARTESIAN_POINT('',(0.,0.,0.));
#380=CARTESIAN_POINT('',(0.,3.40222188888124E-18,0.111125));
#381=CARTESIAN_POINT('',(0.,3.40222188888124E-18,0.111125));
#382=CARTESIAN_POINT('',(-0.0555625,3.40222188888124E-18,0.111125));
#383=CARTESIAN_POINT('',(0.,3.40222188888124E-18,0.1016));
#384=CARTESIAN_POINT('',(-0.0555625,3.40222188888124E-18,0.1016));
#385=CARTESIAN_POINT('',(0.,0.,0.111125));
#386=CARTESIAN_POINT('',(0.,3.11060286983428E-18,0.111125));
#387=CARTESIAN_POINT('',(0.0508,3.11060286983428E-18,0.111125));
#388=CARTESIAN_POINT('',(0.,0.,0.));
#389=CARTESIAN_POINT('',(0.,-3.79104724761052E-18,0.));
#390=CARTESIAN_POINT('',(-0.0619125,-3.79104724761052E-18,0.));
#391=CARTESIAN_POINT('',(0.0165242706095246,0.0398931182138373,0.));
#392=CARTESIAN_POINT('',(0.0146954706095246,0.0398931182138373,0.));
#393=CARTESIAN_POINT('',(0.0398931182138373,-0.0165242706095246,0.));
#394=CARTESIAN_POINT('',(0.0380643182138373,-0.0165242706095246,0.));
#395=CARTESIAN_POINT('',(-0.0165242706095246,-0.0398931182138373,0.));
#396=CARTESIAN_POINT('',(-0.0183530706095246,-0.0398931182138373,0.));
#397=CARTESIAN_POINT('',(-0.0398931182138373,0.0165242706095246,0.));
#398=CARTESIAN_POINT('',(-0.0417219182138373,0.0165242706095246,0.));
#399=CARTESIAN_POINT('',(0.0398931182138374,0.0165242706095246,0.));
#400=CARTESIAN_POINT('',(0.0335431182138374,0.0165242706095246,0.));
#401=CARTESIAN_POINT('',(-0.0398931182138373,-0.0165242706095246,0.));
#402=CARTESIAN_POINT('',(-0.0462431182138373,-0.0165242706095246,0.));
#403=CARTESIAN_POINT('',(0.,1.88580298983703E-18,0.));
#404=CARTESIAN_POINT('',(0.0307975,1.88580298983703E-18,0.));
#405=CARTESIAN_POINT('',(0.,2.17742200888399E-18,0.003175));
#406=CARTESIAN_POINT('',(0.,2.17742200888399E-18,0.003175));
#407=CARTESIAN_POINT('',(0.03556,2.17742200888399E-18,0.003175));
#408=CARTESIAN_POINT('',(0.,2.17742200888399E-18,0.111125));
#409=CARTESIAN_POINT('',(0.03556,2.17742200888399E-18,0.111125));
#410=CARTESIAN_POINT('',(0.,3.11060286983428E-18,0.003175));
#411=CARTESIAN_POINT('',(0.,3.11060286983428E-18,0.003175));
#412=CARTESIAN_POINT('',(0.0508,3.11060286983428E-18,0.003175));
#413=CARTESIAN_POINT('',(0.,0.,0.003175));
#414=CARTESIAN_POINT('',(0.0165242706095246,0.0398931182138373,0.003175));
#415=CARTESIAN_POINT('',(0.0146954706095246,0.0398931182138373,0.003175));
#416=CARTESIAN_POINT('',(0.0398931182138373,-0.0165242706095246,0.003175));
#417=CARTESIAN_POINT('',(0.0380643182138373,-0.0165242706095246,0.003175));
#418=CARTESIAN_POINT('',(-0.0165242706095246,-0.0398931182138373,0.003175));
#419=CARTESIAN_POINT('',(-0.0183530706095246,-0.0398931182138373,0.003175));
#420=CARTESIAN_POINT('',(-0.0398931182138373,0.0165242706095246,0.003175));
#421=CARTESIAN_POINT('',(-0.0417219182138373,0.0165242706095246,0.003175));
#422=CARTESIAN_POINT('',(0.0398931182138374,0.0165242706095246,0.003175));
#423=CARTESIAN_POINT('',(0.0335431182138374,0.0165242706095246,0.003175));
#424=CARTESIAN_POINT('',(-0.0398931182138373,-0.0165242706095246,0.003175));
#425=CARTESIAN_POINT('',(-0.0462431182138373,-0.0165242706095246,0.003175));
#426=CARTESIAN_POINT('',(0.,0.,0.111125));
#427=CARTESIAN_POINT('',(0.,1.88580298983703E-18,0.111125));
#428=CARTESIAN_POINT('',(0.0307975,1.88580298983703E-18,0.111125));
#429=CARTESIAN_POINT('',(0.,1.88580298983703E-18,0.003175));
#430=CARTESIAN_POINT('',(0.,-3.79104724761052E-18,0.1016));
#431=CARTESIAN_POINT('',(0.,-3.79104724761052E-18,0.1016));
#432=CARTESIAN_POINT('',(-0.0619125,-3.79104724761052E-18,0.1016));
#433=CARTESIAN_POINT('',(0.,0.,0.1016));
#434=CARTESIAN_POINT('',(-0.0398931182138373,-0.0165242706095246,0.025908));
#435=CARTESIAN_POINT('',(0.0398931182138374,0.0165242706095246,0.025908));
#436=CARTESIAN_POINT('',(-0.0398931182138373,0.0165242706095246,0.003175));
#437=CARTESIAN_POINT('',(-0.0165242706095246,-0.0398931182138373,0.003175));
#438=CARTESIAN_POINT('',(0.0398931182138373,-0.0165242706095246,0.003175));
#439=CARTESIAN_POINT('',(0.0165242706095246,0.0398931182138373,0.003175));
#440=MECHANICAL_DESIGN_GEOMETRIC_PRESENTATION_REPRESENTATION('',(#251),
#441);
#441=(
GEOMETRIC_REPRESENTATION_CONTEXT(3)
GLOBAL_UNCERTAINTY_ASSIGNED_CONTEXT((#442))
GLOBAL_UNIT_ASSIGNED_CONTEXT((#445,#444,#443))
REPRESENTATION_CONTEXT('chamber:1__Body1','TOP_LEVEL_ASSEMBLY_PART')
);
#442=UNCERTAINTY_MEASURE_WITH_UNIT(LENGTH_MEASURE(1.E-8),#445,
'DISTANCE_ACCURACY_VALUE','Maximum Tolerance applied to model');
#443=(
NAMED_UNIT(*)
SI_UNIT($,.STERADIAN.)
SOLID_ANGLE_UNIT()
);
#444=(
NAMED_UNIT(*)
PLANE_ANGLE_UNIT()
SI_UNIT($,.RADIAN.)
);
#445=(
LENGTH_UNIT()
NAMED_UNIT(*)
SI_UNIT($,.METRE.)
);
#446=PRODUCT_DEFINITION_SHAPE('','',#447);
#447=PRODUCT_DEFINITION('','',#449,#448);
#448=PRODUCT_DEFINITION_CONTEXT('',#455,'design');
#449=PRODUCT_DEFINITION_FORMATION_WITH_SPECIFIED_SOURCE('','',#451,
 .NOT_KNOWN.);
#450=PRODUCT_RELATED_PRODUCT_CATEGORY('','',(#451));
#451=PRODUCT('chamber:1__Body1','chamber:1__Body1','chamber:1__Body1',(#453));
#452=PRODUCT_CATEGORY('','');
#453=PRODUCT_CONTEXT('',#455,'mechanical');
#454=APPLICATION_PROTOCOL_DEFINITION('international standard',
'automotive_design',2010,#455);
#455=APPLICATION_CONTEXT(
'core data for automotive mechanical design processes');
ENDSEC;
END-ISO-10303-21;
