ISO-10303-21;
HEADER;
/* Generated by software containing ST-Developer
 * from STEP Tools, Inc. (www.steptools.com) 
 */

FILE_DESCRIPTION(
/* description */ ('STEP AP242 Edition 2'),
/* implementation_level */ '2;1');

FILE_NAME(
/* name */ 'BPL-700-part-injector.step',
/* time_stamp */ '2026-09-05T13:53:50-07:00',
/* author */ (''),
/* organization */ (''),
/* preprocessor_version */ 'ST-DEVELOPER v20.1',
/* originating_system */ 'Autodesk Translation Framework v15.8.0.0',
/* authorisation */ '');

FILE_SCHEMA (('AUTOMOTIVE_DESIGN { 1 0 10303 214 3 1 1 }'));
ENDSEC;

DATA;
#10=MECHANICAL_DESIGN_GEOMETRIC_PRESENTATION_REPRESENTATION('',(#17),#1399);
#11=ITEM_DEFINED_TRANSFORMATION($,$,#759,#887);
#12=(
REPRESENTATION_RELATIONSHIP($,$,#1409,#1408)
REPRESENTATION_RELATIONSHIP_WITH_TRANSFORMATION(#11)
SHAPE_REPRESENTATION_RELATIONSHIP()
);
#13=CONTEXT_DEPENDENT_SHAPE_REPRESENTATION(#12,#1407);
#14=NEXT_ASSEMBLY_USAGE_OCCURRENCE('injector:1','injector:1',
'injector:1',#1411,#1412,'injector:1');
#15=SHAPE_REPRESENTATION_RELATIONSHIP('SRR','None',#1409,#16);
#16=ADVANCED_BREP_SHAPE_REPRESENTATION('',(#18),#1398);
#17=STYLED_ITEM('',(#1423),#18);
#18=MANIFOLD_SOLID_BREP('Body1',#745);
#19=FACE_BOUND('',#115,.T.);
#20=FACE_BOUND('',#116,.T.);
#21=FACE_BOUND('',#139,.T.);
#22=FACE_BOUND('',#140,.T.);
#23=FACE_BOUND('',#143,.T.);
#24=FACE_BOUND('',#144,.T.);
#25=FACE_BOUND('',#145,.T.);
#26=FACE_BOUND('',#146,.T.);
#27=FACE_BOUND('',#147,.T.);
#28=FACE_BOUND('',#148,.T.);
#29=FACE_BOUND('',#149,.T.);
#30=FACE_BOUND('',#150,.T.);
#31=FACE_BOUND('',#151,.T.);
#32=FACE_BOUND('',#157,.T.);
#33=FACE_BOUND('',#159,.T.);
#34=PLANE('',#775);
#35=PLANE('',#782);
#36=PLANE('',#789);
#37=PLANE('',#795);
#38=PLANE('',#801);
#39=PLANE('',#807);
#40=PLANE('',#813);
#41=PLANE('',#818);
#42=PLANE('',#824);
#43=PLANE('',#830);
#44=PLANE('',#839);
#45=PLANE('',#863);
#46=PLANE('',#872);
#47=PLANE('',#881);
#48=PLANE('',#882);
#49=CYLINDRICAL_SURFACE('',#763,0.00135255);
#50=CYLINDRICAL_SURFACE('',#768,0.00135255);
#51=CYLINDRICAL_SURFACE('',#773,0.00135255);
#52=CYLINDRICAL_SURFACE('',#837,0.0447675);
#53=CYLINDRICAL_SURFACE('',#843,0.0415925);
#54=CYLINDRICAL_SURFACE('',#844,0.0015875);
#55=CYLINDRICAL_SURFACE('',#846,0.0015875);
#56=CYLINDRICAL_SURFACE('',#848,0.0015875);
#57=CYLINDRICAL_SURFACE('',#850,0.0015875);
#58=CYLINDRICAL_SURFACE('',#852,0.0015875);
#59=CYLINDRICAL_SURFACE('',#854,0.0015875);
#60=CYLINDRICAL_SURFACE('',#856,0.0015875);
#61=CYLINDRICAL_SURFACE('',#858,0.0015875);
#62=CYLINDRICAL_SURFACE('',#860,0.04953);
#63=CYLINDRICAL_SURFACE('',#870,0.03683);
#64=CYLINDRICAL_SURFACE('',#873,0.0015875);
#65=CYLINDRICAL_SURFACE('',#875,0.0015875);
#66=CYLINDRICAL_SURFACE('',#877,0.00635);
#67=CYLINDRICAL_SURFACE('',#879,0.00635);
#68=CYLINDRICAL_SURFACE('',#886,0.00135255);
#69=FACE_OUTER_BOUND('',#108,.T.);
#70=FACE_OUTER_BOUND('',#109,.T.);
#71=FACE_OUTER_BOUND('',#110,.T.);
#72=FACE_OUTER_BOUND('',#111,.T.);
#73=FACE_OUTER_BOUND('',#112,.T.);
#74=FACE_OUTER_BOUND('',#113,.T.);
#75=FACE_OUTER_BOUND('',#114,.T.);
#76=FACE_OUTER_BOUND('',#117,.T.);
#77=FACE_OUTER_BOUND('',#118,.T.);
#78=FACE_OUTER_BOUND('',#119,.T.);
#79=FACE_OUTER_BOUND('',#120,.T.);
#80=FACE_OUTER_BOUND('',#121,.T.);
#81=FACE_OUTER_BOUND('',#122,.T.);
#82=FACE_OUTER_BOUND('',#123,.T.);
#83=FACE_OUTER_BOUND('',#124,.T.);
#84=FACE_OUTER_BOUND('',#125,.T.);
#85=FACE_OUTER_BOUND('',#126,.T.);
#86=FACE_OUTER_BOUND('',#127,.T.);
#87=FACE_OUTER_BOUND('',#128,.T.);
#88=FACE_OUTER_BOUND('',#129,.T.);
#89=FACE_OUTER_BOUND('',#130,.T.);
#90=FACE_OUTER_BOUND('',#131,.T.);
#91=FACE_OUTER_BOUND('',#132,.T.);
#92=FACE_OUTER_BOUND('',#133,.T.);
#93=FACE_OUTER_BOUND('',#134,.T.);
#94=FACE_OUTER_BOUND('',#135,.T.);
#95=FACE_OUTER_BOUND('',#136,.T.);
#96=FACE_OUTER_BOUND('',#137,.T.);
#97=FACE_OUTER_BOUND('',#138,.T.);
#98=FACE_OUTER_BOUND('',#141,.T.);
#99=FACE_OUTER_BOUND('',#142,.T.);
#100=FACE_OUTER_BOUND('',#152,.T.);
#101=FACE_OUTER_BOUND('',#153,.T.);
#102=FACE_OUTER_BOUND('',#154,.T.);
#103=FACE_OUTER_BOUND('',#155,.T.);
#104=FACE_OUTER_BOUND('',#156,.T.);
#105=FACE_OUTER_BOUND('',#158,.T.);
#106=FACE_OUTER_BOUND('',#160,.T.);
#107=FACE_OUTER_BOUND('',#161,.T.);
#108=EDGE_LOOP('',(#478,#479,#480,#481));
#109=EDGE_LOOP('',(#482,#483,#484,#485,#486));
#110=EDGE_LOOP('',(#487,#488,#489,#490));
#111=EDGE_LOOP('',(#491,#492,#493,#494,#495));
#112=EDGE_LOOP('',(#496,#497,#498,#499));
#113=EDGE_LOOP('',(#500,#501,#502,#503,#504));
#114=EDGE_LOOP('',(#505,#506,#507,#508,#509,#510));
#115=EDGE_LOOP('',(#511));
#116=EDGE_LOOP('',(#512));
#117=EDGE_LOOP('',(#513,#514,#515,#516,#517,#518));
#118=EDGE_LOOP('',(#519,#520,#521,#522,#523));
#119=EDGE_LOOP('',(#524,#525,#526,#527,#528));
#120=EDGE_LOOP('',(#529,#530,#531,#532,#533));
#121=EDGE_LOOP('',(#534,#535,#536,#537,#538));
#122=EDGE_LOOP('',(#539,#540,#541,#542));
#123=EDGE_LOOP('',(#543,#544,#545,#546,#547));
#124=EDGE_LOOP('',(#548,#549,#550,#551,#552));
#125=EDGE_LOOP('',(#553,#554,#555,#556,#557,#558));
#126=EDGE_LOOP('',(#559,#560,#561,#562,#563,#564,#565,#566,#567,#568,#569,
#570,#571));
#127=EDGE_LOOP('',(#572,#573,#574,#575));
#128=EDGE_LOOP('',(#576,#577,#578,#579,#580,#581,#582,#583,#584,#585,#586,
#587,#588));
#129=EDGE_LOOP('',(#589,#590,#591,#592,#593,#594));
#130=EDGE_LOOP('',(#595,#596,#597,#598,#599,#600));
#131=EDGE_LOOP('',(#601,#602,#603,#604,#605,#606));
#132=EDGE_LOOP('',(#607,#608,#609,#610,#611));
#133=EDGE_LOOP('',(#612,#613,#614,#615,#616,#617));
#134=EDGE_LOOP('',(#618,#619,#620,#621,#622,#623));
#135=EDGE_LOOP('',(#624,#625,#626,#627,#628,#629));
#136=EDGE_LOOP('',(#630,#631,#632,#633,#634));
#137=EDGE_LOOP('',(#635,#636,#637,#638,#639,#640));
#138=EDGE_LOOP('',(#641,#642,#643,#644,#645,#646));
#139=EDGE_LOOP('',(#647));
#140=EDGE_LOOP('',(#648));
#141=EDGE_LOOP('',(#649,#650,#651,#652,#653,#654));
#142=EDGE_LOOP('',(#655));
#143=EDGE_LOOP('',(#656));
#144=EDGE_LOOP('',(#657));
#145=EDGE_LOOP('',(#658));
#146=EDGE_LOOP('',(#659));
#147=EDGE_LOOP('',(#660));
#148=EDGE_LOOP('',(#661));
#149=EDGE_LOOP('',(#662));
#150=EDGE_LOOP('',(#663));
#151=EDGE_LOOP('',(#664));
#152=EDGE_LOOP('',(#665,#666,#667,#668,#669,#670));
#153=EDGE_LOOP('',(#671,#672,#673,#674,#675,#676));
#154=EDGE_LOOP('',(#677,#678,#679,#680,#681,#682));
#155=EDGE_LOOP('',(#683,#684,#685,#686,#687,#688));
#156=EDGE_LOOP('',(#689));
#157=EDGE_LOOP('',(#690));
#158=EDGE_LOOP('',(#691));
#159=EDGE_LOOP('',(#692));
#160=EDGE_LOOP('',(#693,#694,#695,#696));
#161=EDGE_LOOP('',(#697,#698,#699,#700,#701));
#162=CIRCLE('',#761,0.00135255);
#163=CIRCLE('',#762,0.00135255);
#164=CIRCLE('',#764,0.00135255);
#165=CIRCLE('',#766,0.00135255);
#166=CIRCLE('',#767,0.00135255);
#167=CIRCLE('',#769,0.00135255);
#168=CIRCLE('',#771,0.00135255);
#169=CIRCLE('',#772,0.00135255);
#170=CIRCLE('',#774,0.00135255);
#171=CIRCLE('',#776,0.00635);
#172=CIRCLE('',#777,0.04953);
#173=CIRCLE('',#778,0.04953);
#174=CIRCLE('',#779,0.00635);
#175=CIRCLE('',#780,0.03683);
#176=CIRCLE('',#781,0.03683);
#177=CIRCLE('',#783,0.0015875);
#178=CIRCLE('',#784,0.0415925);
#179=CIRCLE('',#785,0.0015875);
#180=CIRCLE('',#786,0.0015875);
#181=CIRCLE('',#787,0.0447675);
#182=CIRCLE('',#788,0.0015875);
#183=CIRCLE('',#790,0.0415925);
#184=CIRCLE('',#791,0.0015875);
#185=CIRCLE('',#792,0.0447675);
#186=CIRCLE('',#793,0.0015875);
#187=CIRCLE('',#794,0.0015875);
#188=CIRCLE('',#796,0.0447675);
#189=CIRCLE('',#797,0.0015875);
#190=CIRCLE('',#798,0.0415925);
#191=CIRCLE('',#799,0.0015875);
#192=CIRCLE('',#800,0.0015875);
#193=CIRCLE('',#802,0.0415925);
#194=CIRCLE('',#803,0.0015875);
#195=CIRCLE('',#804,0.0447675);
#196=CIRCLE('',#805,0.0015875);
#197=CIRCLE('',#806,0.0015875);
#198=CIRCLE('',#808,0.0415925);
#199=CIRCLE('',#809,0.0015875);
#200=CIRCLE('',#810,0.0447675);
#201=CIRCLE('',#811,0.0015875);
#202=CIRCLE('',#812,0.0015875);
#203=CIRCLE('',#814,0.0415925);
#204=CIRCLE('',#815,0.0015875);
#205=CIRCLE('',#816,0.0447675);
#206=CIRCLE('',#817,0.0015875);
#207=CIRCLE('',#819,0.0415925);
#208=CIRCLE('',#820,0.0015875);
#209=CIRCLE('',#821,0.0015875);
#210=CIRCLE('',#822,0.0447675);
#211=CIRCLE('',#823,0.0015875);
#212=CIRCLE('',#825,0.0415925);
#213=CIRCLE('',#826,0.0015875);
#214=CIRCLE('',#827,0.0015875);
#215=CIRCLE('',#828,0.0447675);
#216=CIRCLE('',#829,0.0015875);
#217=CIRCLE('',#831,0.0015875);
#218=CIRCLE('',#832,0.0447675);
#219=CIRCLE('',#833,0.0447675);
#220=CIRCLE('',#834,0.0015875);
#221=CIRCLE('',#835,0.0415925);
#222=CIRCLE('',#836,0.0415925);
#223=CIRCLE('',#838,0.0447675);
#224=CIRCLE('',#840,0.0415925);
#225=CIRCLE('',#841,0.0015875);
#226=CIRCLE('',#842,0.0015875);
#227=CIRCLE('',#845,0.0015875);
#228=CIRCLE('',#847,0.0015875);
#229=CIRCLE('',#849,0.0015875);
#230=CIRCLE('',#851,0.0015875);
#231=CIRCLE('',#853,0.0015875);
#232=CIRCLE('',#855,0.0015875);
#233=CIRCLE('',#857,0.0015875);
#234=CIRCLE('',#859,0.0015875);
#235=CIRCLE('',#861,0.04953);
#236=CIRCLE('',#862,0.04953);
#237=CIRCLE('',#864,0.00635);
#238=CIRCLE('',#865,0.03683);
#239=CIRCLE('',#866,0.00635);
#240=CIRCLE('',#867,0.00635);
#241=CIRCLE('',#868,0.00635);
#242=CIRCLE('',#869,0.00135255);
#243=CIRCLE('',#871,0.03683);
#244=CIRCLE('',#874,0.0015875);
#245=CIRCLE('',#876,0.0015875);
#246=CIRCLE('',#878,0.00635);
#247=CIRCLE('',#880,0.00635);
#248=CIRCLE('',#884,0.00135255);
#249=CIRCLE('',#885,0.00135255);
#250=LINE('',#1177,#274);
#251=LINE('',#1184,#275);
#252=LINE('',#1188,#276);
#253=LINE('',#1195,#277);
#254=LINE('',#1199,#278);
#255=LINE('',#1206,#279);
#256=LINE('',#1307,#280);
#257=LINE('',#1313,#281);
#258=LINE('',#1316,#282);
#259=LINE('',#1320,#283);
#260=LINE('',#1324,#284);
#261=LINE('',#1328,#285);
#262=LINE('',#1332,#286);
#263=LINE('',#1336,#287);
#264=LINE('',#1340,#288);
#265=LINE('',#1344,#289);
#266=LINE('',#1349,#290);
#267=LINE('',#1364,#291);
#268=LINE('',#1369,#292);
#269=LINE('',#1373,#293);
#270=LINE('',#1376,#294);
#271=LINE('',#1380,#295);
#272=LINE('',#1387,#296);
#273=LINE('',#1392,#297);
#274=VECTOR('',#894,0.00135255);
#275=VECTOR('',#903,0.00135255);
#276=VECTOR('',#906,0.00135255);
#277=VECTOR('',#915,0.00135255);
#278=VECTOR('',#918,0.00135255);
#279=VECTOR('',#927,0.00135255);
#280=VECTOR('',#1056,0.0447675);
#281=VECTOR('',#1067,0.0415925);
#282=VECTOR('',#1070,0.0015875);
#283=VECTOR('',#1075,0.0015875);
#284=VECTOR('',#1080,0.0015875);
#285=VECTOR('',#1085,0.0015875);
#286=VECTOR('',#1090,0.0015875);
#287=VECTOR('',#1095,0.0015875);
#288=VECTOR('',#1100,0.0015875);
#289=VECTOR('',#1105,0.0015875);
#290=VECTOR('',#1112,0.04953);
#291=VECTOR('',#1133,0.03683);
#292=VECTOR('',#1140,0.0015875);
#293=VECTOR('',#1145,0.0015875);
#294=VECTOR('',#1148,0.00635);
#295=VECTOR('',#1153,0.00635);
#296=VECTOR('',#1162,0.00135255);
#297=VECTOR('',#1169,0.00135255);
#298=VERTEX_POINT('',#1175);
#299=VERTEX_POINT('',#1176);
#300=VERTEX_POINT('',#1178);
#301=VERTEX_POINT('',#1182);
#302=VERTEX_POINT('',#1186);
#303=VERTEX_POINT('',#1187);
#304=VERTEX_POINT('',#1189);
#305=VERTEX_POINT('',#1193);
#306=VERTEX_POINT('',#1197);
#307=VERTEX_POINT('',#1198);
#308=VERTEX_POINT('',#1200);
#309=VERTEX_POINT('',#1204);
#310=VERTEX_POINT('',#1208);
#311=VERTEX_POINT('',#1209);
#312=VERTEX_POINT('',#1211);
#313=VERTEX_POINT('',#1213);
#314=VERTEX_POINT('',#1215);
#315=VERTEX_POINT('',#1217);
#316=VERTEX_POINT('',#1221);
#317=VERTEX_POINT('',#1222);
#318=VERTEX_POINT('',#1224);
#319=VERTEX_POINT('',#1226);
#320=VERTEX_POINT('',#1228);
#321=VERTEX_POINT('',#1230);
#322=VERTEX_POINT('',#1234);
#323=VERTEX_POINT('',#1235);
#324=VERTEX_POINT('',#1237);
#325=VERTEX_POINT('',#1239);
#326=VERTEX_POINT('',#1241);
#327=VERTEX_POINT('',#1245);
#328=VERTEX_POINT('',#1248);
#329=VERTEX_POINT('',#1250);
#330=VERTEX_POINT('',#1254);
#331=VERTEX_POINT('',#1257);
#332=VERTEX_POINT('',#1259);
#333=VERTEX_POINT('',#1263);
#334=VERTEX_POINT('',#1266);
#335=VERTEX_POINT('',#1268);
#336=VERTEX_POINT('',#1272);
#337=VERTEX_POINT('',#1275);
#338=VERTEX_POINT('',#1279);
#339=VERTEX_POINT('',#1280);
#340=VERTEX_POINT('',#1282);
#341=VERTEX_POINT('',#1284);
#342=VERTEX_POINT('',#1286);
#343=VERTEX_POINT('',#1291);
#344=VERTEX_POINT('',#1298);
#345=VERTEX_POINT('',#1302);
#346=VERTEX_POINT('',#1315);
#347=VERTEX_POINT('',#1319);
#348=VERTEX_POINT('',#1323);
#349=VERTEX_POINT('',#1327);
#350=VERTEX_POINT('',#1331);
#351=VERTEX_POINT('',#1335);
#352=VERTEX_POINT('',#1339);
#353=VERTEX_POINT('',#1343);
#354=VERTEX_POINT('',#1348);
#355=VERTEX_POINT('',#1352);
#356=VERTEX_POINT('',#1355);
#357=VERTEX_POINT('',#1359);
#358=VERTEX_POINT('',#1362);
#359=VERTEX_POINT('',#1367);
#360=VERTEX_POINT('',#1371);
#361=VERTEX_POINT('',#1375);
#362=VERTEX_POINT('',#1379);
#363=VERTEX_POINT('',#1385);
#364=VERTEX_POINT('',#1386);
#365=VERTEX_POINT('',#1388);
#366=EDGE_CURVE('',#298,#299,#250,.T.);
#367=EDGE_CURVE('',#300,#299,#162,.T.);
#368=EDGE_CURVE('',#299,#300,#163,.T.);
#369=EDGE_CURVE('',#301,#301,#164,.T.);
#370=EDGE_CURVE('',#301,#300,#251,.T.);
#371=EDGE_CURVE('',#302,#303,#252,.T.);
#372=EDGE_CURVE('',#304,#303,#165,.T.);
#373=EDGE_CURVE('',#303,#304,#166,.T.);
#374=EDGE_CURVE('',#305,#305,#167,.T.);
#375=EDGE_CURVE('',#305,#304,#253,.T.);
#376=EDGE_CURVE('',#306,#307,#254,.T.);
#377=EDGE_CURVE('',#308,#307,#168,.T.);
#378=EDGE_CURVE('',#307,#308,#169,.T.);
#379=EDGE_CURVE('',#309,#309,#170,.T.);
#380=EDGE_CURVE('',#309,#308,#255,.T.);
#381=EDGE_CURVE('',#310,#311,#171,.T.);
#382=EDGE_CURVE('',#310,#312,#172,.T.);
#383=EDGE_CURVE('',#312,#313,#173,.T.);
#384=EDGE_CURVE('',#314,#313,#174,.T.);
#385=EDGE_CURVE('',#315,#314,#175,.T.);
#386=EDGE_CURVE('',#311,#315,#176,.T.);
#387=EDGE_CURVE('',#316,#317,#177,.T.);
#388=EDGE_CURVE('',#316,#318,#178,.T.);
#389=EDGE_CURVE('',#319,#318,#179,.T.);
#390=EDGE_CURVE('',#320,#319,#180,.T.);
#391=EDGE_CURVE('',#321,#320,#181,.T.);
#392=EDGE_CURVE('',#317,#321,#182,.T.);
#393=EDGE_CURVE('',#322,#323,#183,.T.);
#394=EDGE_CURVE('',#322,#324,#184,.T.);
#395=EDGE_CURVE('',#324,#325,#185,.T.);
#396=EDGE_CURVE('',#325,#326,#186,.T.);
#397=EDGE_CURVE('',#326,#323,#187,.T.);
#398=EDGE_CURVE('',#327,#324,#188,.T.);
#399=EDGE_CURVE('',#324,#322,#189,.T.);
#400=EDGE_CURVE('',#328,#322,#190,.T.);
#401=EDGE_CURVE('',#328,#329,#191,.T.);
#402=EDGE_CURVE('',#329,#327,#192,.T.);
#403=EDGE_CURVE('',#323,#330,#193,.T.);
#404=EDGE_CURVE('',#323,#325,#194,.T.);
#405=EDGE_CURVE('',#325,#331,#195,.T.);
#406=EDGE_CURVE('',#331,#332,#196,.T.);
#407=EDGE_CURVE('',#332,#330,#197,.T.);
#408=EDGE_CURVE('',#330,#333,#198,.T.);
#409=EDGE_CURVE('',#330,#331,#199,.T.);
#410=EDGE_CURVE('',#331,#334,#200,.T.);
#411=EDGE_CURVE('',#334,#335,#201,.T.);
#412=EDGE_CURVE('',#335,#333,#202,.T.);
#413=EDGE_CURVE('',#333,#336,#203,.T.);
#414=EDGE_CURVE('',#333,#334,#204,.T.);
#415=EDGE_CURVE('',#334,#337,#205,.T.);
#416=EDGE_CURVE('',#337,#336,#206,.T.);
#417=EDGE_CURVE('',#338,#339,#207,.T.);
#418=EDGE_CURVE('',#338,#340,#208,.T.);
#419=EDGE_CURVE('',#340,#341,#209,.T.);
#420=EDGE_CURVE('',#341,#342,#210,.T.);
#421=EDGE_CURVE('',#342,#339,#211,.T.);
#422=EDGE_CURVE('',#339,#328,#212,.T.);
#423=EDGE_CURVE('',#339,#343,#213,.T.);
#424=EDGE_CURVE('',#343,#342,#214,.T.);
#425=EDGE_CURVE('',#342,#327,#215,.T.);
#426=EDGE_CURVE('',#327,#328,#216,.T.);
#427=EDGE_CURVE('',#321,#316,#217,.T.);
#428=EDGE_CURVE('',#344,#321,#218,.T.);
#429=EDGE_CURVE('',#320,#344,#219,.T.);
#430=EDGE_CURVE('',#318,#320,#220,.T.);
#431=EDGE_CURVE('',#318,#345,#221,.T.);
#432=EDGE_CURVE('',#345,#316,#222,.T.);
#433=EDGE_CURVE('',#337,#341,#223,.T.);
#434=EDGE_CURVE('',#337,#344,#256,.T.);
#435=EDGE_CURVE('',#336,#338,#224,.T.);
#436=EDGE_CURVE('',#336,#337,#225,.T.);
#437=EDGE_CURVE('',#341,#338,#226,.T.);
#438=EDGE_CURVE('',#345,#336,#257,.T.);
#439=EDGE_CURVE('',#329,#346,#258,.T.);
#440=EDGE_CURVE('',#346,#346,#227,.T.);
#441=EDGE_CURVE('',#343,#347,#259,.T.);
#442=EDGE_CURVE('',#347,#347,#228,.T.);
#443=EDGE_CURVE('',#340,#348,#260,.T.);
#444=EDGE_CURVE('',#348,#348,#229,.T.);
#445=EDGE_CURVE('',#336,#349,#261,.T.);
#446=EDGE_CURVE('',#349,#349,#230,.T.);
#447=EDGE_CURVE('',#335,#350,#262,.T.);
#448=EDGE_CURVE('',#350,#350,#231,.T.);
#449=EDGE_CURVE('',#332,#351,#263,.T.);
#450=EDGE_CURVE('',#351,#351,#232,.T.);
#451=EDGE_CURVE('',#326,#352,#264,.T.);
#452=EDGE_CURVE('',#352,#352,#233,.T.);
#453=EDGE_CURVE('',#324,#353,#265,.T.);
#454=EDGE_CURVE('',#353,#353,#234,.T.);
#455=EDGE_CURVE('',#313,#310,#235,.T.);
#456=EDGE_CURVE('',#312,#354,#266,.T.);
#457=EDGE_CURVE('',#354,#354,#236,.T.);
#458=EDGE_CURVE('',#311,#355,#237,.T.);
#459=EDGE_CURVE('',#314,#311,#238,.T.);
#460=EDGE_CURVE('',#356,#314,#239,.T.);
#461=EDGE_CURVE('',#313,#356,#240,.T.);
#462=EDGE_CURVE('',#355,#310,#241,.T.);
#463=EDGE_CURVE('',#357,#357,#242,.T.);
#464=EDGE_CURVE('',#358,#358,#243,.T.);
#465=EDGE_CURVE('',#358,#315,#267,.T.);
#466=EDGE_CURVE('',#359,#359,#244,.T.);
#467=EDGE_CURVE('',#359,#319,#268,.T.);
#468=EDGE_CURVE('',#360,#360,#245,.T.);
#469=EDGE_CURVE('',#360,#317,#269,.T.);
#470=EDGE_CURVE('',#356,#361,#270,.T.);
#471=EDGE_CURVE('',#361,#361,#246,.T.);
#472=EDGE_CURVE('',#355,#362,#271,.T.);
#473=EDGE_CURVE('',#362,#362,#247,.T.);
#474=EDGE_CURVE('',#363,#364,#272,.T.);
#475=EDGE_CURVE('',#365,#364,#248,.T.);
#476=EDGE_CURVE('',#364,#365,#249,.T.);
#477=EDGE_CURVE('',#357,#365,#273,.T.);
#478=ORIENTED_EDGE('',*,*,#366,.T.);
#479=ORIENTED_EDGE('',*,*,#367,.F.);
#480=ORIENTED_EDGE('',*,*,#368,.F.);
#481=ORIENTED_EDGE('',*,*,#366,.F.);
#482=ORIENTED_EDGE('',*,*,#369,.F.);
#483=ORIENTED_EDGE('',*,*,#370,.T.);
#484=ORIENTED_EDGE('',*,*,#367,.T.);
#485=ORIENTED_EDGE('',*,*,#368,.T.);
#486=ORIENTED_EDGE('',*,*,#370,.F.);
#487=ORIENTED_EDGE('',*,*,#371,.T.);
#488=ORIENTED_EDGE('',*,*,#372,.F.);
#489=ORIENTED_EDGE('',*,*,#373,.F.);
#490=ORIENTED_EDGE('',*,*,#371,.F.);
#491=ORIENTED_EDGE('',*,*,#374,.F.);
#492=ORIENTED_EDGE('',*,*,#375,.T.);
#493=ORIENTED_EDGE('',*,*,#372,.T.);
#494=ORIENTED_EDGE('',*,*,#373,.T.);
#495=ORIENTED_EDGE('',*,*,#375,.F.);
#496=ORIENTED_EDGE('',*,*,#376,.T.);
#497=ORIENTED_EDGE('',*,*,#377,.F.);
#498=ORIENTED_EDGE('',*,*,#378,.F.);
#499=ORIENTED_EDGE('',*,*,#376,.F.);
#500=ORIENTED_EDGE('',*,*,#379,.F.);
#501=ORIENTED_EDGE('',*,*,#380,.T.);
#502=ORIENTED_EDGE('',*,*,#377,.T.);
#503=ORIENTED_EDGE('',*,*,#378,.T.);
#504=ORIENTED_EDGE('',*,*,#380,.F.);
#505=ORIENTED_EDGE('',*,*,#381,.F.);
#506=ORIENTED_EDGE('',*,*,#382,.T.);
#507=ORIENTED_EDGE('',*,*,#383,.T.);
#508=ORIENTED_EDGE('',*,*,#384,.F.);
#509=ORIENTED_EDGE('',*,*,#385,.F.);
#510=ORIENTED_EDGE('',*,*,#386,.F.);
#511=ORIENTED_EDGE('',*,*,#369,.T.);
#512=ORIENTED_EDGE('',*,*,#374,.T.);
#513=ORIENTED_EDGE('',*,*,#387,.F.);
#514=ORIENTED_EDGE('',*,*,#388,.T.);
#515=ORIENTED_EDGE('',*,*,#389,.F.);
#516=ORIENTED_EDGE('',*,*,#390,.F.);
#517=ORIENTED_EDGE('',*,*,#391,.F.);
#518=ORIENTED_EDGE('',*,*,#392,.F.);
#519=ORIENTED_EDGE('',*,*,#393,.F.);
#520=ORIENTED_EDGE('',*,*,#394,.T.);
#521=ORIENTED_EDGE('',*,*,#395,.T.);
#522=ORIENTED_EDGE('',*,*,#396,.T.);
#523=ORIENTED_EDGE('',*,*,#397,.T.);
#524=ORIENTED_EDGE('',*,*,#398,.T.);
#525=ORIENTED_EDGE('',*,*,#399,.T.);
#526=ORIENTED_EDGE('',*,*,#400,.F.);
#527=ORIENTED_EDGE('',*,*,#401,.T.);
#528=ORIENTED_EDGE('',*,*,#402,.T.);
#529=ORIENTED_EDGE('',*,*,#403,.F.);
#530=ORIENTED_EDGE('',*,*,#404,.T.);
#531=ORIENTED_EDGE('',*,*,#405,.T.);
#532=ORIENTED_EDGE('',*,*,#406,.T.);
#533=ORIENTED_EDGE('',*,*,#407,.T.);
#534=ORIENTED_EDGE('',*,*,#408,.F.);
#535=ORIENTED_EDGE('',*,*,#409,.T.);
#536=ORIENTED_EDGE('',*,*,#410,.T.);
#537=ORIENTED_EDGE('',*,*,#411,.T.);
#538=ORIENTED_EDGE('',*,*,#412,.T.);
#539=ORIENTED_EDGE('',*,*,#413,.F.);
#540=ORIENTED_EDGE('',*,*,#414,.T.);
#541=ORIENTED_EDGE('',*,*,#415,.T.);
#542=ORIENTED_EDGE('',*,*,#416,.T.);
#543=ORIENTED_EDGE('',*,*,#417,.F.);
#544=ORIENTED_EDGE('',*,*,#418,.T.);
#545=ORIENTED_EDGE('',*,*,#419,.T.);
#546=ORIENTED_EDGE('',*,*,#420,.T.);
#547=ORIENTED_EDGE('',*,*,#421,.T.);
#548=ORIENTED_EDGE('',*,*,#422,.F.);
#549=ORIENTED_EDGE('',*,*,#423,.T.);
#550=ORIENTED_EDGE('',*,*,#424,.T.);
#551=ORIENTED_EDGE('',*,*,#425,.T.);
#552=ORIENTED_EDGE('',*,*,#426,.T.);
#553=ORIENTED_EDGE('',*,*,#427,.F.);
#554=ORIENTED_EDGE('',*,*,#428,.F.);
#555=ORIENTED_EDGE('',*,*,#429,.F.);
#556=ORIENTED_EDGE('',*,*,#430,.F.);
#557=ORIENTED_EDGE('',*,*,#431,.T.);
#558=ORIENTED_EDGE('',*,*,#432,.T.);
#559=ORIENTED_EDGE('',*,*,#395,.F.);
#560=ORIENTED_EDGE('',*,*,#398,.F.);
#561=ORIENTED_EDGE('',*,*,#425,.F.);
#562=ORIENTED_EDGE('',*,*,#420,.F.);
#563=ORIENTED_EDGE('',*,*,#433,.F.);
#564=ORIENTED_EDGE('',*,*,#434,.T.);
#565=ORIENTED_EDGE('',*,*,#428,.T.);
#566=ORIENTED_EDGE('',*,*,#391,.T.);
#567=ORIENTED_EDGE('',*,*,#429,.T.);
#568=ORIENTED_EDGE('',*,*,#434,.F.);
#569=ORIENTED_EDGE('',*,*,#415,.F.);
#570=ORIENTED_EDGE('',*,*,#410,.F.);
#571=ORIENTED_EDGE('',*,*,#405,.F.);
#572=ORIENTED_EDGE('',*,*,#435,.F.);
#573=ORIENTED_EDGE('',*,*,#436,.T.);
#574=ORIENTED_EDGE('',*,*,#433,.T.);
#575=ORIENTED_EDGE('',*,*,#437,.T.);
#576=ORIENTED_EDGE('',*,*,#431,.F.);
#577=ORIENTED_EDGE('',*,*,#388,.F.);
#578=ORIENTED_EDGE('',*,*,#432,.F.);
#579=ORIENTED_EDGE('',*,*,#438,.T.);
#580=ORIENTED_EDGE('',*,*,#435,.T.);
#581=ORIENTED_EDGE('',*,*,#417,.T.);
#582=ORIENTED_EDGE('',*,*,#422,.T.);
#583=ORIENTED_EDGE('',*,*,#400,.T.);
#584=ORIENTED_EDGE('',*,*,#393,.T.);
#585=ORIENTED_EDGE('',*,*,#403,.T.);
#586=ORIENTED_EDGE('',*,*,#408,.T.);
#587=ORIENTED_EDGE('',*,*,#413,.T.);
#588=ORIENTED_EDGE('',*,*,#438,.F.);
#589=ORIENTED_EDGE('',*,*,#426,.F.);
#590=ORIENTED_EDGE('',*,*,#402,.F.);
#591=ORIENTED_EDGE('',*,*,#439,.T.);
#592=ORIENTED_EDGE('',*,*,#440,.T.);
#593=ORIENTED_EDGE('',*,*,#439,.F.);
#594=ORIENTED_EDGE('',*,*,#401,.F.);
#595=ORIENTED_EDGE('',*,*,#421,.F.);
#596=ORIENTED_EDGE('',*,*,#424,.F.);
#597=ORIENTED_EDGE('',*,*,#441,.T.);
#598=ORIENTED_EDGE('',*,*,#442,.T.);
#599=ORIENTED_EDGE('',*,*,#441,.F.);
#600=ORIENTED_EDGE('',*,*,#423,.F.);
#601=ORIENTED_EDGE('',*,*,#437,.F.);
#602=ORIENTED_EDGE('',*,*,#419,.F.);
#603=ORIENTED_EDGE('',*,*,#443,.T.);
#604=ORIENTED_EDGE('',*,*,#444,.T.);
#605=ORIENTED_EDGE('',*,*,#443,.F.);
#606=ORIENTED_EDGE('',*,*,#418,.F.);
#607=ORIENTED_EDGE('',*,*,#436,.F.);
#608=ORIENTED_EDGE('',*,*,#445,.T.);
#609=ORIENTED_EDGE('',*,*,#446,.T.);
#610=ORIENTED_EDGE('',*,*,#445,.F.);
#611=ORIENTED_EDGE('',*,*,#416,.F.);
#612=ORIENTED_EDGE('',*,*,#414,.F.);
#613=ORIENTED_EDGE('',*,*,#412,.F.);
#614=ORIENTED_EDGE('',*,*,#447,.T.);
#615=ORIENTED_EDGE('',*,*,#448,.T.);
#616=ORIENTED_EDGE('',*,*,#447,.F.);
#617=ORIENTED_EDGE('',*,*,#411,.F.);
#618=ORIENTED_EDGE('',*,*,#409,.F.);
#619=ORIENTED_EDGE('',*,*,#407,.F.);
#620=ORIENTED_EDGE('',*,*,#449,.T.);
#621=ORIENTED_EDGE('',*,*,#450,.T.);
#622=ORIENTED_EDGE('',*,*,#449,.F.);
#623=ORIENTED_EDGE('',*,*,#406,.F.);
#624=ORIENTED_EDGE('',*,*,#404,.F.);
#625=ORIENTED_EDGE('',*,*,#397,.F.);
#626=ORIENTED_EDGE('',*,*,#451,.T.);
#627=ORIENTED_EDGE('',*,*,#452,.T.);
#628=ORIENTED_EDGE('',*,*,#451,.F.);
#629=ORIENTED_EDGE('',*,*,#396,.F.);
#630=ORIENTED_EDGE('',*,*,#399,.F.);
#631=ORIENTED_EDGE('',*,*,#453,.T.);
#632=ORIENTED_EDGE('',*,*,#454,.T.);
#633=ORIENTED_EDGE('',*,*,#453,.F.);
#634=ORIENTED_EDGE('',*,*,#394,.F.);
#635=ORIENTED_EDGE('',*,*,#382,.F.);
#636=ORIENTED_EDGE('',*,*,#455,.F.);
#637=ORIENTED_EDGE('',*,*,#383,.F.);
#638=ORIENTED_EDGE('',*,*,#456,.T.);
#639=ORIENTED_EDGE('',*,*,#457,.T.);
#640=ORIENTED_EDGE('',*,*,#456,.F.);
#641=ORIENTED_EDGE('',*,*,#458,.F.);
#642=ORIENTED_EDGE('',*,*,#459,.F.);
#643=ORIENTED_EDGE('',*,*,#460,.F.);
#644=ORIENTED_EDGE('',*,*,#461,.F.);
#645=ORIENTED_EDGE('',*,*,#455,.T.);
#646=ORIENTED_EDGE('',*,*,#462,.F.);
#647=ORIENTED_EDGE('',*,*,#379,.T.);
#648=ORIENTED_EDGE('',*,*,#463,.T.);
#649=ORIENTED_EDGE('',*,*,#464,.F.);
#650=ORIENTED_EDGE('',*,*,#465,.T.);
#651=ORIENTED_EDGE('',*,*,#385,.T.);
#652=ORIENTED_EDGE('',*,*,#459,.T.);
#653=ORIENTED_EDGE('',*,*,#386,.T.);
#654=ORIENTED_EDGE('',*,*,#465,.F.);
#655=ORIENTED_EDGE('',*,*,#457,.F.);
#656=ORIENTED_EDGE('',*,*,#454,.F.);
#657=ORIENTED_EDGE('',*,*,#452,.F.);
#658=ORIENTED_EDGE('',*,*,#450,.F.);
#659=ORIENTED_EDGE('',*,*,#448,.F.);
#660=ORIENTED_EDGE('',*,*,#446,.F.);
#661=ORIENTED_EDGE('',*,*,#444,.F.);
#662=ORIENTED_EDGE('',*,*,#442,.F.);
#663=ORIENTED_EDGE('',*,*,#440,.F.);
#664=ORIENTED_EDGE('',*,*,#464,.T.);
#665=ORIENTED_EDGE('',*,*,#466,.T.);
#666=ORIENTED_EDGE('',*,*,#467,.T.);
#667=ORIENTED_EDGE('',*,*,#389,.T.);
#668=ORIENTED_EDGE('',*,*,#430,.T.);
#669=ORIENTED_EDGE('',*,*,#390,.T.);
#670=ORIENTED_EDGE('',*,*,#467,.F.);
#671=ORIENTED_EDGE('',*,*,#468,.T.);
#672=ORIENTED_EDGE('',*,*,#469,.T.);
#673=ORIENTED_EDGE('',*,*,#392,.T.);
#674=ORIENTED_EDGE('',*,*,#427,.T.);
#675=ORIENTED_EDGE('',*,*,#387,.T.);
#676=ORIENTED_EDGE('',*,*,#469,.F.);
#677=ORIENTED_EDGE('',*,*,#384,.T.);
#678=ORIENTED_EDGE('',*,*,#461,.T.);
#679=ORIENTED_EDGE('',*,*,#470,.T.);
#680=ORIENTED_EDGE('',*,*,#471,.F.);
#681=ORIENTED_EDGE('',*,*,#470,.F.);
#682=ORIENTED_EDGE('',*,*,#460,.T.);
#683=ORIENTED_EDGE('',*,*,#381,.T.);
#684=ORIENTED_EDGE('',*,*,#458,.T.);
#685=ORIENTED_EDGE('',*,*,#472,.T.);
#686=ORIENTED_EDGE('',*,*,#473,.F.);
#687=ORIENTED_EDGE('',*,*,#472,.F.);
#688=ORIENTED_EDGE('',*,*,#462,.T.);
#689=ORIENTED_EDGE('',*,*,#473,.T.);
#690=ORIENTED_EDGE('',*,*,#466,.F.);
#691=ORIENTED_EDGE('',*,*,#471,.T.);
#692=ORIENTED_EDGE('',*,*,#468,.F.);
#693=ORIENTED_EDGE('',*,*,#474,.T.);
#694=ORIENTED_EDGE('',*,*,#475,.F.);
#695=ORIENTED_EDGE('',*,*,#476,.F.);
#696=ORIENTED_EDGE('',*,*,#474,.F.);
#697=ORIENTED_EDGE('',*,*,#463,.F.);
#698=ORIENTED_EDGE('',*,*,#477,.T.);
#699=ORIENTED_EDGE('',*,*,#475,.T.);
#700=ORIENTED_EDGE('',*,*,#476,.T.);
#701=ORIENTED_EDGE('',*,*,#477,.F.);
#702=CONICAL_SURFACE('',#760,0.00135255,1.02974425867665);
#703=CONICAL_SURFACE('',#765,0.00135255,1.02974425867665);
#704=CONICAL_SURFACE('',#770,0.00135255,1.02974425867665);
#705=CONICAL_SURFACE('',#883,0.00135255,1.02974425867665);
#706=ADVANCED_FACE('',(#69),#702,.F.);
#707=ADVANCED_FACE('',(#70),#49,.F.);
#708=ADVANCED_FACE('',(#71),#703,.F.);
#709=ADVANCED_FACE('',(#72),#50,.F.);
#710=ADVANCED_FACE('',(#73),#704,.F.);
#711=ADVANCED_FACE('',(#74),#51,.F.);
#712=ADVANCED_FACE('',(#75,#19,#20),#34,.T.);
#713=ADVANCED_FACE('',(#76),#35,.T.);
#714=ADVANCED_FACE('',(#77),#36,.F.);
#715=ADVANCED_FACE('',(#78),#37,.F.);
#716=ADVANCED_FACE('',(#79),#38,.F.);
#717=ADVANCED_FACE('',(#80),#39,.F.);
#718=ADVANCED_FACE('',(#81),#40,.F.);
#719=ADVANCED_FACE('',(#82),#41,.F.);
#720=ADVANCED_FACE('',(#83),#42,.F.);
#721=ADVANCED_FACE('',(#84),#43,.T.);
#722=ADVANCED_FACE('',(#85),#52,.F.);
#723=ADVANCED_FACE('',(#86),#44,.F.);
#724=ADVANCED_FACE('',(#87),#53,.T.);
#725=ADVANCED_FACE('',(#88),#54,.F.);
#726=ADVANCED_FACE('',(#89),#55,.F.);
#727=ADVANCED_FACE('',(#90),#56,.F.);
#728=ADVANCED_FACE('',(#91),#57,.F.);
#729=ADVANCED_FACE('',(#92),#58,.F.);
#730=ADVANCED_FACE('',(#93),#59,.F.);
#731=ADVANCED_FACE('',(#94),#60,.F.);
#732=ADVANCED_FACE('',(#95),#61,.F.);
#733=ADVANCED_FACE('',(#96),#62,.T.);
#734=ADVANCED_FACE('',(#97,#21,#22),#45,.T.);
#735=ADVANCED_FACE('',(#98),#63,.F.);
#736=ADVANCED_FACE('',(#99,#23,#24,#25,#26,#27,#28,#29,#30,#31),#46,.T.);
#737=ADVANCED_FACE('',(#100),#64,.F.);
#738=ADVANCED_FACE('',(#101),#65,.F.);
#739=ADVANCED_FACE('',(#102),#66,.T.);
#740=ADVANCED_FACE('',(#103),#67,.T.);
#741=ADVANCED_FACE('',(#104,#32),#47,.T.);
#742=ADVANCED_FACE('',(#105,#33),#48,.T.);
#743=ADVANCED_FACE('',(#106),#705,.F.);
#744=ADVANCED_FACE('',(#107),#68,.F.);
#745=CLOSED_SHELL('',(#706,#707,#708,#709,#710,#711,#712,#713,#714,#715,
#716,#717,#718,#719,#720,#721,#722,#723,#724,#725,#726,#727,#728,#729,#730,
#731,#732,#733,#734,#735,#736,#737,#738,#739,#740,#741,#742,#743,#744));
#746=DERIVED_UNIT_ELEMENT(#748,1.);
#747=DERIVED_UNIT_ELEMENT(#1400,-3.);
#748=(
MASS_UNIT()
NAMED_UNIT(*)
SI_UNIT(.KILO.,.GRAM.)
);
#749=DERIVED_UNIT((#746,#747));
#750=MEASURE_REPRESENTATION_ITEM('density measure',
POSITIVE_RATIO_MEASURE(7850.),#749);
#751=PROPERTY_DEFINITION_REPRESENTATION(#756,#753);
#752=PROPERTY_DEFINITION_REPRESENTATION(#757,#754);
#753=REPRESENTATION('material name',(#755),#1398);
#754=REPRESENTATION('density',(#750),#1398);
#755=DESCRIPTIVE_REPRESENTATION_ITEM('Steel','Steel');
#756=PROPERTY_DEFINITION('material property','material name',#1412);
#757=PROPERTY_DEFINITION('material property','density of part',#1412);
#758=AXIS2_PLACEMENT_3D('',#1172,#888,#889);
#759=AXIS2_PLACEMENT_3D('',#1173,#890,#891);
#760=AXIS2_PLACEMENT_3D('',#1174,#892,#893);
#761=AXIS2_PLACEMENT_3D('',#1179,#895,#896);
#762=AXIS2_PLACEMENT_3D('',#1180,#897,#898);
#763=AXIS2_PLACEMENT_3D('',#1181,#899,#900);
#764=AXIS2_PLACEMENT_3D('',#1183,#901,#902);
#765=AXIS2_PLACEMENT_3D('',#1185,#904,#905);
#766=AXIS2_PLACEMENT_3D('',#1190,#907,#908);
#767=AXIS2_PLACEMENT_3D('',#1191,#909,#910);
#768=AXIS2_PLACEMENT_3D('',#1192,#911,#912);
#769=AXIS2_PLACEMENT_3D('',#1194,#913,#914);
#770=AXIS2_PLACEMENT_3D('',#1196,#916,#917);
#771=AXIS2_PLACEMENT_3D('',#1201,#919,#920);
#772=AXIS2_PLACEMENT_3D('',#1202,#921,#922);
#773=AXIS2_PLACEMENT_3D('',#1203,#923,#924);
#774=AXIS2_PLACEMENT_3D('',#1205,#925,#926);
#775=AXIS2_PLACEMENT_3D('',#1207,#928,#929);
#776=AXIS2_PLACEMENT_3D('',#1210,#930,#931);
#777=AXIS2_PLACEMENT_3D('',#1212,#932,#933);
#778=AXIS2_PLACEMENT_3D('',#1214,#934,#935);
#779=AXIS2_PLACEMENT_3D('',#1216,#936,#937);
#780=AXIS2_PLACEMENT_3D('',#1218,#938,#939);
#781=AXIS2_PLACEMENT_3D('',#1219,#940,#941);
#782=AXIS2_PLACEMENT_3D('',#1220,#942,#943);
#783=AXIS2_PLACEMENT_3D('',#1223,#944,#945);
#784=AXIS2_PLACEMENT_3D('',#1225,#946,#947);
#785=AXIS2_PLACEMENT_3D('',#1227,#948,#949);
#786=AXIS2_PLACEMENT_3D('',#1229,#950,#951);
#787=AXIS2_PLACEMENT_3D('',#1231,#952,#953);
#788=AXIS2_PLACEMENT_3D('',#1232,#954,#955);
#789=AXIS2_PLACEMENT_3D('',#1233,#956,#957);
#790=AXIS2_PLACEMENT_3D('',#1236,#958,#959);
#791=AXIS2_PLACEMENT_3D('',#1238,#960,#961);
#792=AXIS2_PLACEMENT_3D('',#1240,#962,#963);
#793=AXIS2_PLACEMENT_3D('',#1242,#964,#965);
#794=AXIS2_PLACEMENT_3D('',#1243,#966,#967);
#795=AXIS2_PLACEMENT_3D('',#1244,#968,#969);
#796=AXIS2_PLACEMENT_3D('',#1246,#970,#971);
#797=AXIS2_PLACEMENT_3D('',#1247,#972,#973);
#798=AXIS2_PLACEMENT_3D('',#1249,#974,#975);
#799=AXIS2_PLACEMENT_3D('',#1251,#976,#977);
#800=AXIS2_PLACEMENT_3D('',#1252,#978,#979);
#801=AXIS2_PLACEMENT_3D('',#1253,#980,#981);
#802=AXIS2_PLACEMENT_3D('',#1255,#982,#983);
#803=AXIS2_PLACEMENT_3D('',#1256,#984,#985);
#804=AXIS2_PLACEMENT_3D('',#1258,#986,#987);
#805=AXIS2_PLACEMENT_3D('',#1260,#988,#989);
#806=AXIS2_PLACEMENT_3D('',#1261,#990,#991);
#807=AXIS2_PLACEMENT_3D('',#1262,#992,#993);
#808=AXIS2_PLACEMENT_3D('',#1264,#994,#995);
#809=AXIS2_PLACEMENT_3D('',#1265,#996,#997);
#810=AXIS2_PLACEMENT_3D('',#1267,#998,#999);
#811=AXIS2_PLACEMENT_3D('',#1269,#1000,#1001);
#812=AXIS2_PLACEMENT_3D('',#1270,#1002,#1003);
#813=AXIS2_PLACEMENT_3D('',#1271,#1004,#1005);
#814=AXIS2_PLACEMENT_3D('',#1273,#1006,#1007);
#815=AXIS2_PLACEMENT_3D('',#1274,#1008,#1009);
#816=AXIS2_PLACEMENT_3D('',#1276,#1010,#1011);
#817=AXIS2_PLACEMENT_3D('',#1277,#1012,#1013);
#818=AXIS2_PLACEMENT_3D('',#1278,#1014,#1015);
#819=AXIS2_PLACEMENT_3D('',#1281,#1016,#1017);
#820=AXIS2_PLACEMENT_3D('',#1283,#1018,#1019);
#821=AXIS2_PLACEMENT_3D('',#1285,#1020,#1021);
#822=AXIS2_PLACEMENT_3D('',#1287,#1022,#1023);
#823=AXIS2_PLACEMENT_3D('',#1288,#1024,#1025);
#824=AXIS2_PLACEMENT_3D('',#1289,#1026,#1027);
#825=AXIS2_PLACEMENT_3D('',#1290,#1028,#1029);
#826=AXIS2_PLACEMENT_3D('',#1292,#1030,#1031);
#827=AXIS2_PLACEMENT_3D('',#1293,#1032,#1033);
#828=AXIS2_PLACEMENT_3D('',#1294,#1034,#1035);
#829=AXIS2_PLACEMENT_3D('',#1295,#1036,#1037);
#830=AXIS2_PLACEMENT_3D('',#1296,#1038,#1039);
#831=AXIS2_PLACEMENT_3D('',#1297,#1040,#1041);
#832=AXIS2_PLACEMENT_3D('',#1299,#1042,#1043);
#833=AXIS2_PLACEMENT_3D('',#1300,#1044,#1045);
#834=AXIS2_PLACEMENT_3D('',#1301,#1046,#1047);
#835=AXIS2_PLACEMENT_3D('',#1303,#1048,#1049);
#836=AXIS2_PLACEMENT_3D('',#1304,#1050,#1051);
#837=AXIS2_PLACEMENT_3D('',#1305,#1052,#1053);
#838=AXIS2_PLACEMENT_3D('',#1306,#1054,#1055);
#839=AXIS2_PLACEMENT_3D('',#1308,#1057,#1058);
#840=AXIS2_PLACEMENT_3D('',#1309,#1059,#1060);
#841=AXIS2_PLACEMENT_3D('',#1310,#1061,#1062);
#842=AXIS2_PLACEMENT_3D('',#1311,#1063,#1064);
#843=AXIS2_PLACEMENT_3D('',#1312,#1065,#1066);
#844=AXIS2_PLACEMENT_3D('',#1314,#1068,#1069);
#845=AXIS2_PLACEMENT_3D('',#1317,#1071,#1072);
#846=AXIS2_PLACEMENT_3D('',#1318,#1073,#1074);
#847=AXIS2_PLACEMENT_3D('',#1321,#1076,#1077);
#848=AXIS2_PLACEMENT_3D('',#1322,#1078,#1079);
#849=AXIS2_PLACEMENT_3D('',#1325,#1081,#1082);
#850=AXIS2_PLACEMENT_3D('',#1326,#1083,#1084);
#851=AXIS2_PLACEMENT_3D('',#1329,#1086,#1087);
#852=AXIS2_PLACEMENT_3D('',#1330,#1088,#1089);
#853=AXIS2_PLACEMENT_3D('',#1333,#1091,#1092);
#854=AXIS2_PLACEMENT_3D('',#1334,#1093,#1094);
#855=AXIS2_PLACEMENT_3D('',#1337,#1096,#1097);
#856=AXIS2_PLACEMENT_3D('',#1338,#1098,#1099);
#857=AXIS2_PLACEMENT_3D('',#1341,#1101,#1102);
#858=AXIS2_PLACEMENT_3D('',#1342,#1103,#1104);
#859=AXIS2_PLACEMENT_3D('',#1345,#1106,#1107);
#860=AXIS2_PLACEMENT_3D('',#1346,#1108,#1109);
#861=AXIS2_PLACEMENT_3D('',#1347,#1110,#1111);
#862=AXIS2_PLACEMENT_3D('',#1350,#1113,#1114);
#863=AXIS2_PLACEMENT_3D('',#1351,#1115,#1116);
#864=AXIS2_PLACEMENT_3D('',#1353,#1117,#1118);
#865=AXIS2_PLACEMENT_3D('',#1354,#1119,#1120);
#866=AXIS2_PLACEMENT_3D('',#1356,#1121,#1122);
#867=AXIS2_PLACEMENT_3D('',#1357,#1123,#1124);
#868=AXIS2_PLACEMENT_3D('',#1358,#1125,#1126);
#869=AXIS2_PLACEMENT_3D('',#1360,#1127,#1128);
#870=AXIS2_PLACEMENT_3D('',#1361,#1129,#1130);
#871=AXIS2_PLACEMENT_3D('',#1363,#1131,#1132);
#872=AXIS2_PLACEMENT_3D('',#1365,#1134,#1135);
#873=AXIS2_PLACEMENT_3D('',#1366,#1136,#1137);
#874=AXIS2_PLACEMENT_3D('',#1368,#1138,#1139);
#875=AXIS2_PLACEMENT_3D('',#1370,#1141,#1142);
#876=AXIS2_PLACEMENT_3D('',#1372,#1143,#1144);
#877=AXIS2_PLACEMENT_3D('',#1374,#1146,#1147);
#878=AXIS2_PLACEMENT_3D('',#1377,#1149,#1150);
#879=AXIS2_PLACEMENT_3D('',#1378,#1151,#1152);
#880=AXIS2_PLACEMENT_3D('',#1381,#1154,#1155);
#881=AXIS2_PLACEMENT_3D('',#1382,#1156,#1157);
#882=AXIS2_PLACEMENT_3D('',#1383,#1158,#1159);
#883=AXIS2_PLACEMENT_3D('',#1384,#1160,#1161);
#884=AXIS2_PLACEMENT_3D('',#1389,#1163,#1164);
#885=AXIS2_PLACEMENT_3D('',#1390,#1165,#1166);
#886=AXIS2_PLACEMENT_3D('',#1391,#1167,#1168);
#887=AXIS2_PLACEMENT_3D('',#1393,#1170,#1171);
#888=DIRECTION('axis',(0.,0.,1.));
#889=DIRECTION('refdir',(1.,0.,0.));
#890=DIRECTION('axis',(0.,0.,1.));
#891=DIRECTION('refdir',(1.,0.,0.));
#892=DIRECTION('center_axis',(0.,0.,-1.));
#893=DIRECTION('ref_axis',(1.83697019872103E-16,-1.,0.));
#894=DIRECTION('',(-5.24863595569308E-17,0.85716730070211,-0.515038074910058));
#895=DIRECTION('center_axis',(0.,0.,1.));
#896=DIRECTION('ref_axis',(-1.83697019872103E-16,1.,0.));
#897=DIRECTION('center_axis',(0.,0.,1.));
#898=DIRECTION('ref_axis',(-1.83697019872103E-16,1.,0.));
#899=DIRECTION('center_axis',(0.,0.,1.));
#900=DIRECTION('ref_axis',(-1.83697019872103E-16,1.,0.));
#901=DIRECTION('center_axis',(0.,0.,1.));
#902=DIRECTION('ref_axis',(-1.83697019872103E-16,1.,0.));
#903=DIRECTION('',(0.,0.,1.));
#904=DIRECTION('center_axis',(0.,0.,-1.));
#905=DIRECTION('ref_axis',(1.,1.22464679914735E-16,0.));
#906=DIRECTION('',(-0.85716730070211,2.7340142285082E-31,-0.515038074910058));
#907=DIRECTION('center_axis',(0.,0.,1.));
#908=DIRECTION('ref_axis',(-1.,-1.22464679914735E-16,0.));
#909=DIRECTION('center_axis',(0.,0.,1.));
#910=DIRECTION('ref_axis',(-1.,-1.22464679914735E-16,0.));
#911=DIRECTION('center_axis',(0.,0.,1.));
#912=DIRECTION('ref_axis',(-1.,-1.22464679914735E-16,0.));
#913=DIRECTION('center_axis',(0.,0.,1.));
#914=DIRECTION('ref_axis',(-1.,-1.22464679914735E-16,0.));
#915=DIRECTION('',(0.,0.,1.));
#916=DIRECTION('center_axis',(0.,0.,-1.));
#917=DIRECTION('ref_axis',(-6.12323399573677E-17,1.,0.));
#918=DIRECTION('',(-5.24863595569307E-17,-0.85716730070211,-0.515038074910058));
#919=DIRECTION('center_axis',(0.,0.,1.));
#920=DIRECTION('ref_axis',(6.12323399573677E-17,-1.,0.));
#921=DIRECTION('center_axis',(0.,0.,1.));
#922=DIRECTION('ref_axis',(6.12323399573677E-17,-1.,0.));
#923=DIRECTION('center_axis',(0.,0.,1.));
#924=DIRECTION('ref_axis',(6.12323399573677E-17,-1.,0.));
#925=DIRECTION('center_axis',(0.,0.,1.));
#926=DIRECTION('ref_axis',(6.12323399573677E-17,-1.,0.));
#927=DIRECTION('',(0.,0.,1.));
#928=DIRECTION('center_axis',(0.,0.,-1.));
#929=DIRECTION('ref_axis',(-1.,0.,0.));
#930=DIRECTION('center_axis',(0.,0.,-1.));
#931=DIRECTION('ref_axis',(-1.,0.,0.));
#932=DIRECTION('center_axis',(0.,0.,-1.));
#933=DIRECTION('ref_axis',(-1.,0.,0.));
#934=DIRECTION('center_axis',(0.,0.,-1.));
#935=DIRECTION('ref_axis',(-1.,0.,0.));
#936=DIRECTION('center_axis',(0.,0.,-1.));
#937=DIRECTION('ref_axis',(-1.,0.,0.));
#938=DIRECTION('center_axis',(0.,0.,-1.));
#939=DIRECTION('ref_axis',(-1.,0.,0.));
#940=DIRECTION('center_axis',(0.,0.,-1.));
#941=DIRECTION('ref_axis',(-1.,0.,0.));
#942=DIRECTION('center_axis',(0.,0.,1.));
#943=DIRECTION('ref_axis',(1.,0.,0.));
#944=DIRECTION('center_axis',(0.,0.,1.));
#945=DIRECTION('ref_axis',(1.,0.,0.));
#946=DIRECTION('center_axis',(0.,0.,-1.));
#947=DIRECTION('ref_axis',(-1.,0.,0.));
#948=DIRECTION('center_axis',(0.,0.,1.));
#949=DIRECTION('ref_axis',(1.,0.,0.));
#950=DIRECTION('center_axis',(0.,0.,1.));
#951=DIRECTION('ref_axis',(1.,0.,0.));
#952=DIRECTION('center_axis',(0.,0.,-1.));
#953=DIRECTION('ref_axis',(-1.,0.,0.));
#954=DIRECTION('center_axis',(0.,0.,1.));
#955=DIRECTION('ref_axis',(1.,0.,0.));
#956=DIRECTION('center_axis',(0.,0.,1.));
#957=DIRECTION('ref_axis',(1.,0.,0.));
#958=DIRECTION('center_axis',(0.,0.,-1.));
#959=DIRECTION('ref_axis',(-1.,0.,0.));
#960=DIRECTION('center_axis',(0.,0.,1.));
#961=DIRECTION('ref_axis',(1.,0.,0.));
#962=DIRECTION('center_axis',(0.,0.,-1.));
#963=DIRECTION('ref_axis',(-1.,0.,0.));
#964=DIRECTION('center_axis',(0.,0.,1.));
#965=DIRECTION('ref_axis',(1.,0.,0.));
#966=DIRECTION('center_axis',(0.,0.,1.));
#967=DIRECTION('ref_axis',(1.,0.,0.));
#968=DIRECTION('center_axis',(0.,0.,1.));
#969=DIRECTION('ref_axis',(1.,0.,0.));
#970=DIRECTION('center_axis',(0.,0.,-1.));
#971=DIRECTION('ref_axis',(-1.,0.,0.));
#972=DIRECTION('center_axis',(0.,0.,1.));
#973=DIRECTION('ref_axis',(1.,0.,0.));
#974=DIRECTION('center_axis',(0.,0.,-1.));
#975=DIRECTION('ref_axis',(-1.,0.,0.));
#976=DIRECTION('center_axis',(0.,0.,1.));
#977=DIRECTION('ref_axis',(1.,0.,0.));
#978=DIRECTION('center_axis',(0.,0.,1.));
#979=DIRECTION('ref_axis',(1.,0.,0.));
#980=DIRECTION('center_axis',(0.,0.,1.));
#981=DIRECTION('ref_axis',(1.,0.,0.));
#982=DIRECTION('center_axis',(0.,0.,-1.));
#983=DIRECTION('ref_axis',(-1.,0.,0.));
#984=DIRECTION('center_axis',(0.,0.,1.));
#985=DIRECTION('ref_axis',(1.,0.,0.));
#986=DIRECTION('center_axis',(0.,0.,-1.));
#987=DIRECTION('ref_axis',(-1.,0.,0.));
#988=DIRECTION('center_axis',(0.,0.,1.));
#989=DIRECTION('ref_axis',(1.,0.,0.));
#990=DIRECTION('center_axis',(0.,0.,1.));
#991=DIRECTION('ref_axis',(1.,0.,0.));
#992=DIRECTION('center_axis',(0.,0.,1.));
#993=DIRECTION('ref_axis',(1.,0.,0.));
#994=DIRECTION('center_axis',(0.,0.,-1.));
#995=DIRECTION('ref_axis',(-1.,0.,0.));
#996=DIRECTION('center_axis',(0.,0.,1.));
#997=DIRECTION('ref_axis',(1.,0.,0.));
#998=DIRECTION('center_axis',(0.,0.,-1.));
#999=DIRECTION('ref_axis',(-1.,0.,0.));
#1000=DIRECTION('center_axis',(0.,0.,1.));
#1001=DIRECTION('ref_axis',(1.,0.,0.));
#1002=DIRECTION('center_axis',(0.,0.,1.));
#1003=DIRECTION('ref_axis',(1.,0.,0.));
#1004=DIRECTION('center_axis',(0.,0.,1.));
#1005=DIRECTION('ref_axis',(1.,0.,0.));
#1006=DIRECTION('center_axis',(0.,0.,-1.));
#1007=DIRECTION('ref_axis',(-1.,0.,0.));
#1008=DIRECTION('center_axis',(0.,0.,1.));
#1009=DIRECTION('ref_axis',(1.,0.,0.));
#1010=DIRECTION('center_axis',(0.,0.,-1.));
#1011=DIRECTION('ref_axis',(-1.,0.,0.));
#1012=DIRECTION('center_axis',(0.,0.,1.));
#1013=DIRECTION('ref_axis',(1.,0.,0.));
#1014=DIRECTION('center_axis',(0.,0.,1.));
#1015=DIRECTION('ref_axis',(1.,0.,0.));
#1016=DIRECTION('center_axis',(0.,0.,-1.));
#1017=DIRECTION('ref_axis',(-1.,0.,0.));
#1018=DIRECTION('center_axis',(0.,0.,1.));
#1019=DIRECTION('ref_axis',(1.,0.,0.));
#1020=DIRECTION('center_axis',(0.,0.,1.));
#1021=DIRECTION('ref_axis',(1.,0.,0.));
#1022=DIRECTION('center_axis',(0.,0.,-1.));
#1023=DIRECTION('ref_axis',(-1.,0.,0.));
#1024=DIRECTION('center_axis',(0.,0.,1.));
#1025=DIRECTION('ref_axis',(1.,0.,0.));
#1026=DIRECTION('center_axis',(0.,0.,1.));
#1027=DIRECTION('ref_axis',(1.,0.,0.));
#1028=DIRECTION('center_axis',(0.,0.,-1.));
#1029=DIRECTION('ref_axis',(-1.,0.,0.));
#1030=DIRECTION('center_axis',(0.,0.,1.));
#1031=DIRECTION('ref_axis',(1.,0.,0.));
#1032=DIRECTION('center_axis',(0.,0.,1.));
#1033=DIRECTION('ref_axis',(1.,0.,0.));
#1034=DIRECTION('center_axis',(0.,0.,-1.));
#1035=DIRECTION('ref_axis',(-1.,0.,0.));
#1036=DIRECTION('center_axis',(0.,0.,1.));
#1037=DIRECTION('ref_axis',(1.,0.,0.));
#1038=DIRECTION('center_axis',(0.,0.,1.));
#1039=DIRECTION('ref_axis',(1.,0.,0.));
#1040=DIRECTION('center_axis',(0.,0.,1.));
#1041=DIRECTION('ref_axis',(1.,0.,0.));
#1042=DIRECTION('center_axis',(0.,0.,-1.));
#1043=DIRECTION('ref_axis',(-1.,0.,0.));
#1044=DIRECTION('center_axis',(0.,0.,-1.));
#1045=DIRECTION('ref_axis',(-1.,0.,0.));
#1046=DIRECTION('center_axis',(0.,0.,1.));
#1047=DIRECTION('ref_axis',(1.,0.,0.));
#1048=DIRECTION('center_axis',(0.,0.,-1.));
#1049=DIRECTION('ref_axis',(-1.,0.,0.));
#1050=DIRECTION('center_axis',(0.,0.,-1.));
#1051=DIRECTION('ref_axis',(-1.,0.,0.));
#1052=DIRECTION('center_axis',(0.,0.,-1.));
#1053=DIRECTION('ref_axis',(-1.,0.,0.));
#1054=DIRECTION('center_axis',(0.,0.,-1.));
#1055=DIRECTION('ref_axis',(-1.,0.,0.));
#1056=DIRECTION('',(0.,0.,-1.));
#1057=DIRECTION('center_axis',(0.,0.,1.));
#1058=DIRECTION('ref_axis',(1.,0.,0.));
#1059=DIRECTION('center_axis',(0.,0.,-1.));
#1060=DIRECTION('ref_axis',(-1.,0.,0.));
#1061=DIRECTION('center_axis',(0.,0.,1.));
#1062=DIRECTION('ref_axis',(1.,0.,0.));
#1063=DIRECTION('center_axis',(0.,0.,1.));
#1064=DIRECTION('ref_axis',(1.,0.,0.));
#1065=DIRECTION('center_axis',(0.,0.,-1.));
#1066=DIRECTION('ref_axis',(-1.,0.,0.));
#1067=DIRECTION('',(0.,0.,1.));
#1068=DIRECTION('center_axis',(0.,0.,1.));
#1069=DIRECTION('ref_axis',(1.,0.,0.));
#1070=DIRECTION('',(0.,0.,1.));
#1071=DIRECTION('center_axis',(0.,0.,1.));
#1072=DIRECTION('ref_axis',(1.,0.,0.));
#1073=DIRECTION('center_axis',(0.,0.,1.));
#1074=DIRECTION('ref_axis',(1.,0.,0.));
#1075=DIRECTION('',(0.,0.,1.));
#1076=DIRECTION('center_axis',(0.,0.,1.));
#1077=DIRECTION('ref_axis',(1.,0.,0.));
#1078=DIRECTION('center_axis',(0.,0.,1.));
#1079=DIRECTION('ref_axis',(1.,0.,0.));
#1080=DIRECTION('',(0.,0.,1.));
#1081=DIRECTION('center_axis',(0.,0.,1.));
#1082=DIRECTION('ref_axis',(1.,0.,0.));
#1083=DIRECTION('center_axis',(0.,0.,1.));
#1084=DIRECTION('ref_axis',(1.,0.,0.));
#1085=DIRECTION('',(0.,0.,1.));
#1086=DIRECTION('center_axis',(0.,0.,1.));
#1087=DIRECTION('ref_axis',(1.,0.,0.));
#1088=DIRECTION('center_axis',(0.,0.,1.));
#1089=DIRECTION('ref_axis',(1.,0.,0.));
#1090=DIRECTION('',(0.,0.,1.));
#1091=DIRECTION('center_axis',(0.,0.,1.));
#1092=DIRECTION('ref_axis',(1.,0.,0.));
#1093=DIRECTION('center_axis',(0.,0.,1.));
#1094=DIRECTION('ref_axis',(1.,0.,0.));
#1095=DIRECTION('',(0.,0.,1.));
#1096=DIRECTION('center_axis',(0.,0.,1.));
#1097=DIRECTION('ref_axis',(1.,0.,0.));
#1098=DIRECTION('center_axis',(0.,0.,1.));
#1099=DIRECTION('ref_axis',(1.,0.,0.));
#1100=DIRECTION('',(0.,0.,1.));
#1101=DIRECTION('center_axis',(0.,0.,1.));
#1102=DIRECTION('ref_axis',(1.,0.,0.));
#1103=DIRECTION('center_axis',(0.,0.,1.));
#1104=DIRECTION('ref_axis',(1.,0.,0.));
#1105=DIRECTION('',(0.,0.,1.));
#1106=DIRECTION('center_axis',(0.,0.,1.));
#1107=DIRECTION('ref_axis',(1.,0.,0.));
#1108=DIRECTION('center_axis',(0.,0.,-1.));
#1109=DIRECTION('ref_axis',(-1.,0.,0.));
#1110=DIRECTION('center_axis',(0.,0.,-1.));
#1111=DIRECTION('ref_axis',(-1.,0.,0.));
#1112=DIRECTION('',(0.,0.,1.));
#1113=DIRECTION('center_axis',(0.,0.,-1.));
#1114=DIRECTION('ref_axis',(-1.,0.,0.));
#1115=DIRECTION('center_axis',(0.,0.,-1.));
#1116=DIRECTION('ref_axis',(-1.,0.,0.));
#1117=DIRECTION('center_axis',(0.,0.,-1.));
#1118=DIRECTION('ref_axis',(-1.,0.,0.));
#1119=DIRECTION('center_axis',(0.,0.,-1.));
#1120=DIRECTION('ref_axis',(-1.,0.,0.));
#1121=DIRECTION('center_axis',(0.,0.,-1.));
#1122=DIRECTION('ref_axis',(-1.,0.,0.));
#1123=DIRECTION('center_axis',(0.,0.,-1.));
#1124=DIRECTION('ref_axis',(-1.,0.,0.));
#1125=DIRECTION('center_axis',(0.,0.,-1.));
#1126=DIRECTION('ref_axis',(-1.,0.,0.));
#1127=DIRECTION('center_axis',(0.,0.,1.));
#1128=DIRECTION('ref_axis',(1.,0.,0.));
#1129=DIRECTION('center_axis',(0.,0.,-1.));
#1130=DIRECTION('ref_axis',(-1.,0.,0.));
#1131=DIRECTION('center_axis',(0.,0.,-1.));
#1132=DIRECTION('ref_axis',(-1.,0.,0.));
#1133=DIRECTION('',(0.,0.,-1.));
#1134=DIRECTION('center_axis',(0.,0.,1.));
#1135=DIRECTION('ref_axis',(1.,0.,0.));
#1136=DIRECTION('center_axis',(0.,0.,1.));
#1137=DIRECTION('ref_axis',(1.,0.,0.));
#1138=DIRECTION('center_axis',(0.,0.,-1.));
#1139=DIRECTION('ref_axis',(-1.,0.,0.));
#1140=DIRECTION('',(0.,0.,1.));
#1141=DIRECTION('center_axis',(0.,0.,1.));
#1142=DIRECTION('ref_axis',(1.,0.,0.));
#1143=DIRECTION('center_axis',(0.,0.,-1.));
#1144=DIRECTION('ref_axis',(-1.,0.,0.));
#1145=DIRECTION('',(0.,0.,1.));
#1146=DIRECTION('center_axis',(0.,0.,1.));
#1147=DIRECTION('ref_axis',(1.,0.,0.));
#1148=DIRECTION('',(0.,0.,-1.));
#1149=DIRECTION('center_axis',(0.,0.,-1.));
#1150=DIRECTION('ref_axis',(-1.,0.,0.));
#1151=DIRECTION('center_axis',(0.,0.,1.));
#1152=DIRECTION('ref_axis',(1.,0.,0.));
#1153=DIRECTION('',(0.,0.,-1.));
#1154=DIRECTION('center_axis',(0.,0.,-1.));
#1155=DIRECTION('ref_axis',(-1.,0.,0.));
#1156=DIRECTION('center_axis',(0.,0.,-1.));
#1157=DIRECTION('ref_axis',(1.,0.,0.));
#1158=DIRECTION('center_axis',(0.,0.,-1.));
#1159=DIRECTION('ref_axis',(1.,0.,0.));
#1160=DIRECTION('center_axis',(0.,0.,-1.));
#1161=DIRECTION('ref_axis',(-1.,0.,0.));
#1162=DIRECTION('',(0.85716730070211,-1.04972719113862E-16,-0.515038074910058));
#1163=DIRECTION('center_axis',(0.,0.,1.));
#1164=DIRECTION('ref_axis',(1.,0.,0.));
#1165=DIRECTION('center_axis',(0.,0.,1.));
#1166=DIRECTION('ref_axis',(1.,0.,0.));
#1167=DIRECTION('center_axis',(0.,0.,1.));
#1168=DIRECTION('ref_axis',(1.,0.,0.));
#1169=DIRECTION('',(0.,0.,1.));
#1170=DIRECTION('',(0.,-1.,0.));
#1171=DIRECTION('',(1.,0.,0.));
#1172=CARTESIAN_POINT('',(0.,0.,0.));
#1173=CARTESIAN_POINT('',(0.,0.,0.));
#1174=CARTESIAN_POINT('Origin',(-0.0165242706095246,-0.0398931182138373,
0.005715));
#1175=CARTESIAN_POINT('',(-0.0165242706095246,-0.0398931182138373,0.00652769403026572));
#1176=CARTESIAN_POINT('',(-0.0165242706095246,-0.0385405682138373,0.005715));
#1177=CARTESIAN_POINT('',(-0.0165242706095246,-0.0385405682138373,0.005715));
#1178=CARTESIAN_POINT('',(-0.0165242706095246,-0.0412456682138373,0.005715));
#1179=CARTESIAN_POINT('Origin',(-0.0165242706095246,-0.0398931182138373,
0.005715));
#1180=CARTESIAN_POINT('Origin',(-0.0165242706095246,-0.0398931182138373,
0.005715));
#1181=CARTESIAN_POINT('Origin',(-0.0165242706095246,-0.0398931182138373,
-3.29295319576493E-18));
#1182=CARTESIAN_POINT('',(-0.0165242706095246,-0.0412456682138373,-6.76240014771855E-18));
#1183=CARTESIAN_POINT('Origin',(-0.0165242706095246,-0.0398931182138373,
-6.76240014771855E-18));
#1184=CARTESIAN_POINT('',(-0.0165242706095246,-0.0412456682138373,-3.29295319576493E-18));
#1185=CARTESIAN_POINT('Origin',(0.0398931182138373,-0.0165242706095246,
0.005715));
#1186=CARTESIAN_POINT('',(0.0398931182138373,-0.0165242706095246,0.00652769403026572));
#1187=CARTESIAN_POINT('',(0.0385405682138373,-0.0165242706095246,0.005715));
#1188=CARTESIAN_POINT('',(0.0385405682138373,-0.0165242706095246,0.005715));
#1189=CARTESIAN_POINT('',(0.0412456682138373,-0.0165242706095246,0.005715));
#1190=CARTESIAN_POINT('Origin',(0.0398931182138373,-0.0165242706095246,
0.005715));
#1191=CARTESIAN_POINT('Origin',(0.0398931182138373,-0.0165242706095246,
0.005715));
#1192=CARTESIAN_POINT('Origin',(0.0398931182138373,-0.0165242706095246,
-3.29295319576493E-18));
#1193=CARTESIAN_POINT('',(0.0412456682138373,-0.0165242706095246,-6.76240014771855E-18));
#1194=CARTESIAN_POINT('Origin',(0.0398931182138373,-0.0165242706095246,
-6.76240014771855E-18));
#1195=CARTESIAN_POINT('',(0.0412456682138373,-0.0165242706095246,-3.29295319576493E-18));
#1196=CARTESIAN_POINT('Origin',(0.0165242706095246,0.0398931182138373,0.005715));
#1197=CARTESIAN_POINT('',(0.0165242706095246,0.0398931182138373,0.00652769403026572));
#1198=CARTESIAN_POINT('',(0.0165242706095246,0.0385405682138373,0.005715));
#1199=CARTESIAN_POINT('',(0.0165242706095246,0.0385405682138373,0.005715));
#1200=CARTESIAN_POINT('',(0.0165242706095246,0.0412456682138373,0.005715));
#1201=CARTESIAN_POINT('Origin',(0.0165242706095246,0.0398931182138373,0.005715));
#1202=CARTESIAN_POINT('Origin',(0.0165242706095246,0.0398931182138373,0.005715));
#1203=CARTESIAN_POINT('Origin',(0.0165242706095246,0.0398931182138373,-3.29295319576493E-18));
#1204=CARTESIAN_POINT('',(0.0165242706095246,0.0412456682138373,-6.76240014771855E-18));
#1205=CARTESIAN_POINT('Origin',(0.0165242706095246,0.0398931182138373,-6.76240014771855E-18));
#1206=CARTESIAN_POINT('',(0.0165242706095246,0.0412456682138373,-3.29295319576493E-18));
#1207=CARTESIAN_POINT('Origin',(-0.040005,0.,-3.29295319576493E-18));
#1208=CARTESIAN_POINT('',(0.045759753245284,0.0189543104050429,-3.29295319576493E-18));
#1209=CARTESIAN_POINT('',(0.0340264831823907,0.0140942308140063,-2.80869537285833E-18));
#1210=CARTESIAN_POINT('Origin',(0.0398931182138373,0.0165242706095246,-3.29295319576493E-18));
#1211=CARTESIAN_POINT('',(0.04953,-6.06567559617684E-18,-6.58590639152987E-18));
#1212=CARTESIAN_POINT('Origin',(0.,0.,-6.58590639152987E-18));
#1213=CARTESIAN_POINT('',(-0.045759753245284,-0.0189543104050429,-2.80869537285833E-18));
#1214=CARTESIAN_POINT('Origin',(0.,0.,-6.58590639152987E-18));
#1215=CARTESIAN_POINT('',(-0.0340264831823907,-0.0140942308140063,-3.29295319576493E-18));
#1216=CARTESIAN_POINT('Origin',(-0.0398931182138373,-0.0165242706095246,
-3.29295319576493E-18));
#1217=CARTESIAN_POINT('',(0.03683,-4.5103741612597E-18,0.));
#1218=CARTESIAN_POINT('Origin',(0.,0.,0.));
#1219=CARTESIAN_POINT('Origin',(0.,0.,0.));
#1220=CARTESIAN_POINT('Origin',(-0.04238625,0.,0.00889));
#1221=CARTESIAN_POINT('',(-0.0384264594559757,-0.0159167606606451,0.00889));
#1222=CARTESIAN_POINT('',(-0.0414806182138373,-0.0165242706095246,0.00889));
#1223=CARTESIAN_POINT('Origin',(-0.0398931182138373,-0.0165242706095246,
0.00889));
#1224=CARTESIAN_POINT('',(0.0384264594559757,0.015916760660645,0.00889));
#1225=CARTESIAN_POINT('Origin',(0.,0.,0.00889));
#1226=CARTESIAN_POINT('',(0.0383056182138373,0.0165242706095246,0.00889));
#1227=CARTESIAN_POINT('Origin',(0.0398931182138373,0.0165242706095246,0.00889));
#1228=CARTESIAN_POINT('',(0.041359776971699,0.0171317805584042,0.00889));
#1229=CARTESIAN_POINT('Origin',(0.0398931182138373,0.0165242706095246,0.00889));
#1230=CARTESIAN_POINT('',(-0.041359776971699,-0.0171317805584042,0.00889));
#1231=CARTESIAN_POINT('Origin',(0.,0.,0.00889));
#1232=CARTESIAN_POINT('Origin',(-0.0398931182138373,-0.0165242706095246,
0.00889));
#1233=CARTESIAN_POINT('Origin',(-0.04238625,0.,0.012065));
#1234=CARTESIAN_POINT('',(-0.0415925,0.,0.012065));
#1235=CARTESIAN_POINT('',(-0.0294103387965015,0.0294103387965015,0.012065));
#1236=CARTESIAN_POINT('Origin',(0.,0.,0.012065));
#1237=CARTESIAN_POINT('',(-0.0447675,1.00780102170642E-19,0.012065));
#1238=CARTESIAN_POINT('Origin',(-0.04318,9.72063396823212E-20,0.012065));
#1239=CARTESIAN_POINT('',(-0.0316554028267687,0.0316554028267688,0.012065));
#1240=CARTESIAN_POINT('Origin',(0.,0.,0.012065));
#1241=CARTESIAN_POINT('',(-0.0321203708116351,0.0305328708116352,0.012065));
#1242=CARTESIAN_POINT('Origin',(-0.0305328708116351,0.0305328708116352,
0.012065));
#1243=CARTESIAN_POINT('Origin',(-0.0305328708116351,0.0305328708116352,
0.012065));
#1244=CARTESIAN_POINT('Origin',(-0.04238625,0.,0.012065));
#1245=CARTESIAN_POINT('',(-0.0316554028267687,-0.0316554028267687,0.012065));
#1246=CARTESIAN_POINT('Origin',(0.,0.,0.012065));
#1247=CARTESIAN_POINT('Origin',(-0.04318,9.72063396823212E-20,0.012065));
#1248=CARTESIAN_POINT('',(-0.0294103387965015,-0.0294103387965015,0.012065));
#1249=CARTESIAN_POINT('Origin',(0.,0.,0.012065));
#1250=CARTESIAN_POINT('',(-0.0321203708116352,-0.0305328708116351,0.012065));
#1251=CARTESIAN_POINT('Origin',(-0.0305328708116352,-0.0305328708116351,
0.012065));
#1252=CARTESIAN_POINT('Origin',(-0.0305328708116352,-0.0305328708116351,
0.012065));
#1253=CARTESIAN_POINT('Origin',(-0.04238625,0.,0.012065));
#1254=CARTESIAN_POINT('',(6.68858413066755E-18,0.0415925,0.012065));
#1255=CARTESIAN_POINT('Origin',(0.,0.,0.012065));
#1256=CARTESIAN_POINT('Origin',(-0.0305328708116351,0.0305328708116352,
0.012065));
#1257=CARTESIAN_POINT('',(8.32443643929501E-18,0.0447675,0.012065));
#1258=CARTESIAN_POINT('Origin',(0.,0.,0.012065));
#1259=CARTESIAN_POINT('',(-0.00158749999999999,0.04318,0.012065));
#1260=CARTESIAN_POINT('Origin',(8.02924365775973E-18,0.04318,0.012065));
#1261=CARTESIAN_POINT('Origin',(8.02924365775973E-18,0.04318,0.012065));
#1262=CARTESIAN_POINT('Origin',(-0.04238625,0.,0.012065));
#1263=CARTESIAN_POINT('',(0.0294103387965015,0.0294103387965014,0.012065));
#1264=CARTESIAN_POINT('Origin',(0.,0.,0.012065));
#1265=CARTESIAN_POINT('Origin',(8.02924365775973E-18,0.04318,0.012065));
#1266=CARTESIAN_POINT('',(0.0316554028267688,0.0316554028267687,0.012065));
#1267=CARTESIAN_POINT('Origin',(0.,0.,0.012065));
#1268=CARTESIAN_POINT('',(0.0289453708116352,0.0305328708116351,0.012065));
#1269=CARTESIAN_POINT('Origin',(0.0305328708116352,0.0305328708116351,0.012065));
#1270=CARTESIAN_POINT('Origin',(0.0305328708116352,0.0305328708116351,0.012065));
#1271=CARTESIAN_POINT('Origin',(-0.04238625,0.,0.012065));
#1272=CARTESIAN_POINT('',(0.0415925,5.09361219935363E-18,0.012065));
#1273=CARTESIAN_POINT('Origin',(0.,0.,0.012065));
#1274=CARTESIAN_POINT('Origin',(0.0305328708116352,0.0305328708116351,0.012065));
#1275=CARTESIAN_POINT('',(0.0447675,-5.58321766025356E-18,0.012065));
#1276=CARTESIAN_POINT('Origin',(0.,0.,0.012065));
#1277=CARTESIAN_POINT('Origin',(0.04318,-5.38523121840059E-18,0.012065));
#1278=CARTESIAN_POINT('Origin',(-0.04238625,0.,0.012065));
#1279=CARTESIAN_POINT('',(0.0294103387965015,-0.0294103387965015,0.012065));
#1280=CARTESIAN_POINT('',(2.49820292983565E-18,-0.0415925,0.012065));
#1281=CARTESIAN_POINT('Origin',(0.,0.,0.012065));
#1282=CARTESIAN_POINT('',(0.0289453708116351,-0.0305328708116352,0.012065));
#1283=CARTESIAN_POINT('Origin',(0.0305328708116351,-0.0305328708116352,
0.012065));
#1284=CARTESIAN_POINT('',(0.0316554028267687,-0.0316554028267687,0.012065));
#1285=CARTESIAN_POINT('Origin',(0.0305328708116351,-0.0305328708116352,
0.012065));
#1286=CARTESIAN_POINT('',(-2.8419988812121E-18,-0.0447675,0.012065));
#1287=CARTESIAN_POINT('Origin',(0.,0.,0.012065));
#1288=CARTESIAN_POINT('Origin',(-2.74121877904145E-18,-0.04318,0.012065));
#1289=CARTESIAN_POINT('Origin',(-0.04238625,0.,0.012065));
#1290=CARTESIAN_POINT('Origin',(0.,0.,0.012065));
#1291=CARTESIAN_POINT('',(-0.0015875,-0.04318,0.012065));
#1292=CARTESIAN_POINT('Origin',(-2.74121877904145E-18,-0.04318,0.012065));
#1293=CARTESIAN_POINT('Origin',(-2.74121877904145E-18,-0.04318,0.012065));
#1294=CARTESIAN_POINT('Origin',(0.,0.,0.012065));
#1295=CARTESIAN_POINT('Origin',(-0.0305328708116352,-0.0305328708116351,
0.012065));
#1296=CARTESIAN_POINT('Origin',(-0.04238625,0.,0.00889));
#1297=CARTESIAN_POINT('Origin',(-0.0398931182138373,-0.0165242706095246,
0.00889));
#1298=CARTESIAN_POINT('',(0.0447675,-5.48243755808291E-18,0.00889));
#1299=CARTESIAN_POINT('Origin',(0.,0.,0.00889));
#1300=CARTESIAN_POINT('Origin',(0.,0.,0.00889));
#1301=CARTESIAN_POINT('Origin',(0.0398931182138373,0.0165242706095246,0.00889));
#1302=CARTESIAN_POINT('',(0.0415925,-5.09361219935363E-18,0.00889));
#1303=CARTESIAN_POINT('Origin',(0.,0.,0.00889));
#1304=CARTESIAN_POINT('Origin',(0.,0.,0.00889));
#1305=CARTESIAN_POINT('Origin',(0.,0.,0.));
#1306=CARTESIAN_POINT('Origin',(0.,0.,0.012065));
#1307=CARTESIAN_POINT('',(0.0447675,-5.48243755808291E-18,0.));
#1308=CARTESIAN_POINT('Origin',(-0.04238625,0.,0.012065));
#1309=CARTESIAN_POINT('Origin',(0.,0.,0.012065));
#1310=CARTESIAN_POINT('Origin',(0.04318,-5.38523121840059E-18,0.012065));
#1311=CARTESIAN_POINT('Origin',(0.0305328708116351,-0.0305328708116352,
0.012065));
#1312=CARTESIAN_POINT('Origin',(0.,0.,0.));
#1313=CARTESIAN_POINT('',(0.0415925,-5.09361219935363E-18,0.));
#1314=CARTESIAN_POINT('Origin',(-0.0305328708116352,-0.0305328708116351,
0.01016));
#1315=CARTESIAN_POINT('',(-0.0321203708116352,-0.0305328708116351,0.0127));
#1316=CARTESIAN_POINT('',(-0.0321203708116352,-0.0305328708116351,0.01016));
#1317=CARTESIAN_POINT('Origin',(-0.0305328708116352,-0.0305328708116351,
0.0127));
#1318=CARTESIAN_POINT('Origin',(-2.74121877904145E-18,-0.04318,0.01016));
#1319=CARTESIAN_POINT('',(-0.0015875,-0.04318,0.0127));
#1320=CARTESIAN_POINT('',(-0.0015875,-0.04318,0.01016));
#1321=CARTESIAN_POINT('Origin',(-2.74121877904145E-18,-0.04318,0.0127));
#1322=CARTESIAN_POINT('Origin',(0.0305328708116351,-0.0305328708116352,
0.01016));
#1323=CARTESIAN_POINT('',(0.0289453708116351,-0.0305328708116352,0.0127));
#1324=CARTESIAN_POINT('',(0.0289453708116351,-0.0305328708116352,0.01016));
#1325=CARTESIAN_POINT('Origin',(0.0305328708116351,-0.0305328708116352,
0.0127));
#1326=CARTESIAN_POINT('Origin',(0.04318,-5.38523121840059E-18,0.01016));
#1327=CARTESIAN_POINT('',(0.0415925,-5.57964389776523E-18,0.0127));
#1328=CARTESIAN_POINT('',(0.0415925,-5.57964389776523E-18,0.01016));
#1329=CARTESIAN_POINT('Origin',(0.04318,-5.38523121840059E-18,0.0127));
#1330=CARTESIAN_POINT('Origin',(0.0305328708116352,0.0305328708116351,0.01016));
#1331=CARTESIAN_POINT('',(0.0289453708116352,0.0305328708116351,0.0127));
#1332=CARTESIAN_POINT('',(0.0289453708116352,0.0305328708116351,0.01016));
#1333=CARTESIAN_POINT('Origin',(0.0305328708116352,0.0305328708116351,0.0127));
#1334=CARTESIAN_POINT('Origin',(8.02924365775973E-18,0.04318,0.01016));
#1335=CARTESIAN_POINT('',(-0.00158749999999999,0.04318,0.0127));
#1336=CARTESIAN_POINT('',(-0.00158749999999999,0.04318,0.01016));
#1337=CARTESIAN_POINT('Origin',(8.02924365775973E-18,0.04318,0.0127));
#1338=CARTESIAN_POINT('Origin',(-0.0305328708116351,0.0305328708116352,
0.01016));
#1339=CARTESIAN_POINT('',(-0.0321203708116351,0.0305328708116352,0.0127));
#1340=CARTESIAN_POINT('',(-0.0321203708116351,0.0305328708116352,0.01016));
#1341=CARTESIAN_POINT('Origin',(-0.0305328708116351,0.0305328708116352,
0.0127));
#1342=CARTESIAN_POINT('Origin',(-0.04318,9.72063396823212E-20,0.01016));
#1343=CARTESIAN_POINT('',(-0.0447675,-9.72063396823211E-20,0.0127));
#1344=CARTESIAN_POINT('',(-0.0447675,-9.72063396823211E-20,0.01016));
#1345=CARTESIAN_POINT('Origin',(-0.04318,9.72063396823212E-20,0.0127));
#1346=CARTESIAN_POINT('Origin',(0.,0.,0.));
#1347=CARTESIAN_POINT('Origin',(0.,0.,-6.58590639152987E-18));
#1348=CARTESIAN_POINT('',(0.04953,-6.06567559617684E-18,0.0127));
#1349=CARTESIAN_POINT('',(0.04953,-6.06567559617684E-18,0.));
#1350=CARTESIAN_POINT('Origin',(0.,0.,0.0127));
#1351=CARTESIAN_POINT('Origin',(-0.040005,0.,-3.29295319576493E-18));
#1352=CARTESIAN_POINT('',(0.0335431182138373,0.0165242706095246,-3.33066907387547E-18));
#1353=CARTESIAN_POINT('Origin',(0.0398931182138373,0.0165242706095246,-3.29295319576493E-18));
#1354=CARTESIAN_POINT('Origin',(0.,0.,0.));
#1355=CARTESIAN_POINT('',(-0.0462431182138373,-0.0165242706095246,-3.33066907387547E-18));
#1356=CARTESIAN_POINT('Origin',(-0.0398931182138373,-0.0165242706095246,
-3.29295319576493E-18));
#1357=CARTESIAN_POINT('Origin',(-0.0398931182138373,-0.0165242706095246,
-3.29295319576493E-18));
#1358=CARTESIAN_POINT('Origin',(0.0398931182138373,0.0165242706095246,-3.29295319576493E-18));
#1359=CARTESIAN_POINT('',(-0.0412456682138373,0.0165242706095246,-6.76240014771855E-18));
#1360=CARTESIAN_POINT('Origin',(-0.0398931182138373,0.0165242706095246,
-6.76240014771855E-18));
#1361=CARTESIAN_POINT('Origin',(0.,0.,0.));
#1362=CARTESIAN_POINT('',(0.03683,-4.5103741612597E-18,0.0127));
#1363=CARTESIAN_POINT('Origin',(0.,0.,0.0127));
#1364=CARTESIAN_POINT('',(0.03683,-4.5103741612597E-18,0.));
#1365=CARTESIAN_POINT('Origin',(-0.040005,0.,0.0127));
#1366=CARTESIAN_POINT('Origin',(0.0398931182138373,0.0165242706095246,-0.01651));
#1367=CARTESIAN_POINT('',(0.0383056182138374,0.0165242706095246,-0.047625));
#1368=CARTESIAN_POINT('Origin',(0.0398931182138373,0.0165242706095246,-0.047625));
#1369=CARTESIAN_POINT('',(0.0383056182138373,0.0165242706095246,-0.01651));
#1370=CARTESIAN_POINT('Origin',(-0.0398931182138373,-0.0165242706095246,
-0.01651));
#1371=CARTESIAN_POINT('',(-0.0414806182138373,-0.0165242706095246,-0.047625));
#1372=CARTESIAN_POINT('Origin',(-0.0398931182138373,-0.0165242706095246,
-0.047625));
#1373=CARTESIAN_POINT('',(-0.0414806182138373,-0.0165242706095246,-0.01651));
#1374=CARTESIAN_POINT('Origin',(-0.0398931182138373,-0.0165242706095246,
-0.009525));
#1375=CARTESIAN_POINT('',(-0.0462431182138374,-0.0165242706095246,-0.047625));
#1376=CARTESIAN_POINT('',(-0.0462431182138373,-0.0165242706095246,-0.009525));
#1377=CARTESIAN_POINT('Origin',(-0.0398931182138373,-0.0165242706095246,
-0.047625));
#1378=CARTESIAN_POINT('Origin',(0.0398931182138373,0.0165242706095246,-0.009525));
#1379=CARTESIAN_POINT('',(0.0335431182138373,0.0165242706095246,-0.047625));
#1380=CARTESIAN_POINT('',(0.0335431182138373,0.0165242706095246,-0.009525));
#1381=CARTESIAN_POINT('Origin',(0.0398931182138373,0.0165242706095246,-0.047625));
#1382=CARTESIAN_POINT('Origin',(0.,0.,-0.047625));
#1383=CARTESIAN_POINT('Origin',(0.,0.,-0.047625));
#1384=CARTESIAN_POINT('Origin',(-0.0398931182138373,0.0165242706095246,
0.005715));
#1385=CARTESIAN_POINT('',(-0.0398931182138373,0.0165242706095246,0.00652769403026572));
#1386=CARTESIAN_POINT('',(-0.0385405682138373,0.0165242706095246,0.005715));
#1387=CARTESIAN_POINT('',(-0.0385405682138373,0.0165242706095246,0.005715));
#1388=CARTESIAN_POINT('',(-0.0412456682138373,0.0165242706095246,0.005715));
#1389=CARTESIAN_POINT('Origin',(-0.0398931182138373,0.0165242706095246,
0.005715));
#1390=CARTESIAN_POINT('Origin',(-0.0398931182138373,0.0165242706095246,
0.005715));
#1391=CARTESIAN_POINT('Origin',(-0.0398931182138373,0.0165242706095246,
-3.29295319576493E-18));
#1392=CARTESIAN_POINT('',(-0.0412456682138373,0.0165242706095246,-3.29295319576493E-18));
#1393=CARTESIAN_POINT('',(-0.0615926647537434,0.0766816981732846,0.0135553813794385));
#1394=UNCERTAINTY_MEASURE_WITH_UNIT(LENGTH_MEASURE(1.E-5),#1400,
'DISTANCE_ACCURACY_VALUE',
'Maximum model space distance between geometric entities at asserted c
onnectivities');
#1395=UNCERTAINTY_MEASURE_WITH_UNIT(LENGTH_MEASURE(1.E-5),#1400,
'DISTANCE_ACCURACY_VALUE',
'Maximum model space distance between geometric entities at asserted c
onnectivities');
#1396=UNCERTAINTY_MEASURE_WITH_UNIT(LENGTH_MEASURE(1.E-5),#1400,
'DISTANCE_ACCURACY_VALUE',
'Maximum model space distance between geometric entities at asserted c
onnectivities');
#1397=(
GEOMETRIC_REPRESENTATION_CONTEXT(3)
GLOBAL_UNCERTAINTY_ASSIGNED_CONTEXT((#1394))
GLOBAL_UNIT_ASSIGNED_CONTEXT((#1400,#1401,#1402))
REPRESENTATION_CONTEXT('','3D')
);
#1398=(
GEOMETRIC_REPRESENTATION_CONTEXT(3)
GLOBAL_UNCERTAINTY_ASSIGNED_CONTEXT((#1395))
GLOBAL_UNIT_ASSIGNED_CONTEXT((#1400,#1401,#1402))
REPRESENTATION_CONTEXT('','3D')
);
#1399=(
GEOMETRIC_REPRESENTATION_CONTEXT(3)
GLOBAL_UNCERTAINTY_ASSIGNED_CONTEXT((#1396))
GLOBAL_UNIT_ASSIGNED_CONTEXT((#1400,#1401,#1402))
REPRESENTATION_CONTEXT('','3D')
);
#1400=(
LENGTH_UNIT()
NAMED_UNIT(*)
SI_UNIT($,.METRE.)
);
#1401=(
NAMED_UNIT(*)
PLANE_ANGLE_UNIT()
SI_UNIT($,.RADIAN.)
);
#1402=(
NAMED_UNIT(*)
SI_UNIT($,.STERADIAN.)
SOLID_ANGLE_UNIT()
);
#1403=SHAPE_DEFINITION_REPRESENTATION(#1405,#1408);
#1404=SHAPE_DEFINITION_REPRESENTATION(#1406,#1409);
#1405=PRODUCT_DEFINITION_SHAPE('',$,#1411);
#1406=PRODUCT_DEFINITION_SHAPE('',$,#1412);
#1407=PRODUCT_DEFINITION_SHAPE($,$,#14);
#1408=SHAPE_REPRESENTATION('',(#758,#887),#1397);
#1409=SHAPE_REPRESENTATION('',(#759),#1398);
#1410=PRODUCT_DEFINITION_CONTEXT('part definition',#1418,'design');
#1411=PRODUCT_DEFINITION('BPL-700 Assembly','(Unsaved)',#1413,#1410);
#1412=PRODUCT_DEFINITION('Part 1','injector',#1414,#1410);
#1413=PRODUCT_DEFINITION_FORMATION('',$,#1420);
#1414=PRODUCT_DEFINITION_FORMATION('',$,#1421);
#1415=PRODUCT_RELATED_PRODUCT_CATEGORY('(Unsaved)','(Unsaved)',(#1420));
#1416=PRODUCT_RELATED_PRODUCT_CATEGORY('injector','injector',(#1421));
#1417=APPLICATION_PROTOCOL_DEFINITION('international standard',
'automotive_design',2009,#1418);
#1418=APPLICATION_CONTEXT(
'Core Data for Automotive Mechanical Design Process');
#1419=PRODUCT_CONTEXT('part definition',#1418,'mechanical');
#1420=PRODUCT('BPL-700 Assembly','(Unsaved)','STEP AP242 Edition 2',(#1419));
#1421=PRODUCT('Part 1','injector','Part 1',(#1419));
#1422=PRESENTATION_STYLE_ASSIGNMENT((#1424));
#1423=PRESENTATION_STYLE_ASSIGNMENT((#1425));
#1424=SURFACE_STYLE_USAGE(.BOTH.,#1426);
#1425=SURFACE_STYLE_USAGE(.BOTH.,#1427);
#1426=SURFACE_SIDE_STYLE('',(#1428));
#1427=SURFACE_SIDE_STYLE('',(#1429));
#1428=SURFACE_STYLE_FILL_AREA(#1430);
#1429=SURFACE_STYLE_FILL_AREA(#1431);
#1430=FILL_AREA_STYLE('Steel - Satin',(#1432));
#1431=FILL_AREA_STYLE('Opaque(179,179,179)',(#1433));
#1432=FILL_AREA_STYLE_COLOUR('Steel - Satin',#1434);
#1433=FILL_AREA_STYLE_COLOUR('Opaque(179,179,179)',#1435);
#1434=COLOUR_RGB('Steel - Satin',0.627450980392157,0.627450980392157,0.627450980392157);
#1435=COLOUR_RGB('Opaque(179,179,179)',0.701960784313725,0.701960784313725,
0.701960784313725);
ENDSEC;
END-ISO-10303-21;
