ISO-10303-21;
HEADER;
/* Generated by software containing ST-Developer
 * from STEP Tools, Inc. (www.steptools.com) 
 */

FILE_DESCRIPTION(
/* description */ ('STEP AP242 Edition 2'),
/* implementation_level */ '2;1');

FILE_NAME(
/* name */ 'BPL-700-part-chamber.step',
/* time_stamp */ '2026-09-05T13:53:29-07:00',
/* author */ (''),
/* organization */ (''),
/* preprocessor_version */ 'ST-DEVELOPER v20.1',
/* originating_system */ 'Autodesk Translation Framework v15.8.0.0',
/* authorisation */ '');

FILE_SCHEMA (('AUTOMOTIVE_DESIGN { 1 0 10303 214 3 1 1 }'));
ENDSEC;

DATA;
#10=MECHANICAL_DESIGN_GEOMETRIC_PRESENTATION_REPRESENTATION('',(#17),#508);
#11=ITEM_DEFINED_TRANSFORMATION($,$,#296,#335);
#12=(
REPRESENTATION_RELATIONSHIP($,$,#518,#517)
REPRESENTATION_RELATIONSHIP_WITH_TRANSFORMATION(#11)
SHAPE_REPRESENTATION_RELATIONSHIP()
);
#13=CONTEXT_DEPENDENT_SHAPE_REPRESENTATION(#12,#516);
#14=NEXT_ASSEMBLY_USAGE_OCCURRENCE('chamber:1','chamber:1','chamber:1',
#520,#521,'chamber:1');
#15=SHAPE_REPRESENTATION_RELATIONSHIP('SRR','None',#518,#16);
#16=ADVANCED_BREP_SHAPE_REPRESENTATION('',(#18),#507);
#17=STYLED_ITEM('',(#532),#18);
#18=MANIFOLD_SOLID_BREP('Body1',#282);
#19=FACE_BOUND('',#59,.T.);
#20=FACE_BOUND('',#61,.T.);
#21=FACE_BOUND('',#62,.T.);
#22=FACE_BOUND('',#63,.T.);
#23=FACE_BOUND('',#64,.T.);
#24=FACE_BOUND('',#65,.T.);
#25=FACE_BOUND('',#66,.T.);
#26=FACE_BOUND('',#67,.T.);
#27=FACE_BOUND('',#71,.T.);
#28=FACE_BOUND('',#72,.T.);
#29=FACE_BOUND('',#73,.T.);
#30=FACE_BOUND('',#74,.T.);
#31=FACE_BOUND('',#75,.T.);
#32=FACE_BOUND('',#76,.T.);
#33=FACE_BOUND('',#77,.T.);
#34=FACE_BOUND('',#79,.T.);
#35=FACE_BOUND('',#83,.T.);
#36=PLANE('',#300);
#37=PLANE('',#302);
#38=PLANE('',#316);
#39=PLANE('',#323);
#40=PLANE('',#328);
#41=FACE_OUTER_BOUND('',#57,.T.);
#42=FACE_OUTER_BOUND('',#58,.T.);
#43=FACE_OUTER_BOUND('',#60,.T.);
#44=FACE_OUTER_BOUND('',#68,.T.);
#45=FACE_OUTER_BOUND('',#69,.T.);
#46=FACE_OUTER_BOUND('',#70,.T.);
#47=FACE_OUTER_BOUND('',#78,.T.);
#48=FACE_OUTER_BOUND('',#80,.T.);
#49=FACE_OUTER_BOUND('',#81,.T.);
#50=FACE_OUTER_BOUND('',#82,.T.);
#51=FACE_OUTER_BOUND('',#84,.T.);
#52=FACE_OUTER_BOUND('',#85,.T.);
#53=FACE_OUTER_BOUND('',#86,.T.);
#54=FACE_OUTER_BOUND('',#87,.T.);
#55=FACE_OUTER_BOUND('',#88,.T.);
#56=FACE_OUTER_BOUND('',#89,.T.);
#57=EDGE_LOOP('',(#189,#190,#191,#192));
#58=EDGE_LOOP('',(#193));
#59=EDGE_LOOP('',(#194));
#60=EDGE_LOOP('',(#195));
#61=EDGE_LOOP('',(#196));
#62=EDGE_LOOP('',(#197));
#63=EDGE_LOOP('',(#198));
#64=EDGE_LOOP('',(#199));
#65=EDGE_LOOP('',(#200));
#66=EDGE_LOOP('',(#201));
#67=EDGE_LOOP('',(#202));
#68=EDGE_LOOP('',(#203,#204,#205,#206));
#69=EDGE_LOOP('',(#207,#208,#209,#210));
#70=EDGE_LOOP('',(#211));
#71=EDGE_LOOP('',(#212));
#72=EDGE_LOOP('',(#213));
#73=EDGE_LOOP('',(#214));
#74=EDGE_LOOP('',(#215));
#75=EDGE_LOOP('',(#216));
#76=EDGE_LOOP('',(#217));
#77=EDGE_LOOP('',(#218));
#78=EDGE_LOOP('',(#219));
#79=EDGE_LOOP('',(#220));
#80=EDGE_LOOP('',(#221,#222,#223,#224));
#81=EDGE_LOOP('',(#225,#226,#227,#228));
#82=EDGE_LOOP('',(#229));
#83=EDGE_LOOP('',(#230));
#84=EDGE_LOOP('',(#231,#232,#233,#234));
#85=EDGE_LOOP('',(#235,#236,#237,#238));
#86=EDGE_LOOP('',(#239,#240,#241,#242));
#87=EDGE_LOOP('',(#243,#244,#245,#246));
#88=EDGE_LOOP('',(#247,#248,#249,#250));
#89=EDGE_LOOP('',(#251,#252,#253,#254));
#90=LINE('',#435,#101);
#91=LINE('',#461,#102);
#92=LINE('',#466,#103);
#93=LINE('',#484,#104);
#94=LINE('',#487,#105);
#95=LINE('',#491,#106);
#96=LINE('',#493,#107);
#97=LINE('',#495,#108);
#98=LINE('',#497,#109);
#99=LINE('',#499,#110);
#100=LINE('',#501,#111);
#101=VECTOR('',#344,0.0555625);
#102=VECTOR('',#373,0.03556);
#103=VECTOR('',#380,0.0508);
#104=VECTOR('',#401,0.0307975);
#105=VECTOR('',#404,0.0619125);
#106=VECTOR('',#411,0.00635);
#107=VECTOR('',#414,0.00635);
#108=VECTOR('',#417,0.0018288);
#109=VECTOR('',#420,0.0018288);
#110=VECTOR('',#423,0.0018288);
#111=VECTOR('',#426,0.0018288);
#112=CIRCLE('',#298,0.0555625);
#113=CIRCLE('',#299,0.0555625);
#114=CIRCLE('',#301,0.0508);
#115=CIRCLE('',#303,0.0619125);
#116=CIRCLE('',#304,0.0018288);
#117=CIRCLE('',#305,0.0018288);
#118=CIRCLE('',#306,0.0018288);
#119=CIRCLE('',#307,0.0018288);
#120=CIRCLE('',#308,0.00635);
#121=CIRCLE('',#309,0.00635);
#122=CIRCLE('',#310,0.0307975);
#123=CIRCLE('',#312,0.03556);
#124=CIRCLE('',#313,0.03556);
#125=CIRCLE('',#315,0.0508);
#126=CIRCLE('',#317,0.0018288);
#127=CIRCLE('',#318,0.0018288);
#128=CIRCLE('',#319,0.0018288);
#129=CIRCLE('',#320,0.0018288);
#130=CIRCLE('',#321,0.00635);
#131=CIRCLE('',#322,0.00635);
#132=CIRCLE('',#324,0.0307975);
#133=CIRCLE('',#327,0.0619125);
#134=VERTEX_POINT('',#432);
#135=VERTEX_POINT('',#434);
#136=VERTEX_POINT('',#438);
#137=VERTEX_POINT('',#441);
#138=VERTEX_POINT('',#443);
#139=VERTEX_POINT('',#445);
#140=VERTEX_POINT('',#447);
#141=VERTEX_POINT('',#449);
#142=VERTEX_POINT('',#451);
#143=VERTEX_POINT('',#453);
#144=VERTEX_POINT('',#455);
#145=VERTEX_POINT('',#458);
#146=VERTEX_POINT('',#460);
#147=VERTEX_POINT('',#464);
#148=VERTEX_POINT('',#468);
#149=VERTEX_POINT('',#470);
#150=VERTEX_POINT('',#472);
#151=VERTEX_POINT('',#474);
#152=VERTEX_POINT('',#476);
#153=VERTEX_POINT('',#478);
#154=VERTEX_POINT('',#481);
#155=VERTEX_POINT('',#486);
#156=EDGE_CURVE('',#134,#134,#112,.T.);
#157=EDGE_CURVE('',#134,#135,#90,.T.);
#158=EDGE_CURVE('',#135,#135,#113,.T.);
#159=EDGE_CURVE('',#136,#136,#114,.T.);
#160=EDGE_CURVE('',#137,#137,#115,.T.);
#161=EDGE_CURVE('',#138,#138,#116,.T.);
#162=EDGE_CURVE('',#139,#139,#117,.T.);
#163=EDGE_CURVE('',#140,#140,#118,.T.);
#164=EDGE_CURVE('',#141,#141,#119,.T.);
#165=EDGE_CURVE('',#142,#142,#120,.T.);
#166=EDGE_CURVE('',#143,#143,#121,.T.);
#167=EDGE_CURVE('',#144,#144,#122,.T.);
#168=EDGE_CURVE('',#145,#145,#123,.T.);
#169=EDGE_CURVE('',#145,#146,#91,.T.);
#170=EDGE_CURVE('',#146,#146,#124,.T.);
#171=EDGE_CURVE('',#147,#147,#125,.T.);
#172=EDGE_CURVE('',#147,#136,#92,.T.);
#173=EDGE_CURVE('',#148,#148,#126,.T.);
#174=EDGE_CURVE('',#149,#149,#127,.T.);
#175=EDGE_CURVE('',#150,#150,#128,.T.);
#176=EDGE_CURVE('',#151,#151,#129,.T.);
#177=EDGE_CURVE('',#152,#152,#130,.T.);
#178=EDGE_CURVE('',#153,#153,#131,.T.);
#179=EDGE_CURVE('',#154,#154,#132,.T.);
#180=EDGE_CURVE('',#144,#154,#93,.T.);
#181=EDGE_CURVE('',#137,#155,#94,.T.);
#182=EDGE_CURVE('',#155,#155,#133,.T.);
#183=EDGE_CURVE('',#153,#143,#95,.T.);
#184=EDGE_CURVE('',#152,#142,#96,.T.);
#185=EDGE_CURVE('',#151,#141,#97,.T.);
#186=EDGE_CURVE('',#150,#140,#98,.T.);
#187=EDGE_CURVE('',#149,#139,#99,.T.);
#188=EDGE_CURVE('',#148,#138,#100,.T.);
#189=ORIENTED_EDGE('',*,*,#156,.F.);
#190=ORIENTED_EDGE('',*,*,#157,.T.);
#191=ORIENTED_EDGE('',*,*,#158,.F.);
#192=ORIENTED_EDGE('',*,*,#157,.F.);
#193=ORIENTED_EDGE('',*,*,#158,.T.);
#194=ORIENTED_EDGE('',*,*,#159,.F.);
#195=ORIENTED_EDGE('',*,*,#160,.T.);
#196=ORIENTED_EDGE('',*,*,#161,.F.);
#197=ORIENTED_EDGE('',*,*,#162,.F.);
#198=ORIENTED_EDGE('',*,*,#163,.F.);
#199=ORIENTED_EDGE('',*,*,#164,.F.);
#200=ORIENTED_EDGE('',*,*,#165,.F.);
#201=ORIENTED_EDGE('',*,*,#166,.F.);
#202=ORIENTED_EDGE('',*,*,#167,.T.);
#203=ORIENTED_EDGE('',*,*,#168,.F.);
#204=ORIENTED_EDGE('',*,*,#169,.T.);
#205=ORIENTED_EDGE('',*,*,#170,.T.);
#206=ORIENTED_EDGE('',*,*,#169,.F.);
#207=ORIENTED_EDGE('',*,*,#171,.F.);
#208=ORIENTED_EDGE('',*,*,#172,.T.);
#209=ORIENTED_EDGE('',*,*,#159,.T.);
#210=ORIENTED_EDGE('',*,*,#172,.F.);
#211=ORIENTED_EDGE('',*,*,#171,.T.);
#212=ORIENTED_EDGE('',*,*,#173,.T.);
#213=ORIENTED_EDGE('',*,*,#174,.T.);
#214=ORIENTED_EDGE('',*,*,#175,.T.);
#215=ORIENTED_EDGE('',*,*,#176,.T.);
#216=ORIENTED_EDGE('',*,*,#177,.F.);
#217=ORIENTED_EDGE('',*,*,#178,.F.);
#218=ORIENTED_EDGE('',*,*,#170,.F.);
#219=ORIENTED_EDGE('',*,*,#168,.T.);
#220=ORIENTED_EDGE('',*,*,#179,.F.);
#221=ORIENTED_EDGE('',*,*,#167,.F.);
#222=ORIENTED_EDGE('',*,*,#180,.T.);
#223=ORIENTED_EDGE('',*,*,#179,.T.);
#224=ORIENTED_EDGE('',*,*,#180,.F.);
#225=ORIENTED_EDGE('',*,*,#160,.F.);
#226=ORIENTED_EDGE('',*,*,#181,.T.);
#227=ORIENTED_EDGE('',*,*,#182,.T.);
#228=ORIENTED_EDGE('',*,*,#181,.F.);
#229=ORIENTED_EDGE('',*,*,#182,.F.);
#230=ORIENTED_EDGE('',*,*,#156,.T.);
#231=ORIENTED_EDGE('',*,*,#178,.T.);
#232=ORIENTED_EDGE('',*,*,#183,.T.);
#233=ORIENTED_EDGE('',*,*,#166,.T.);
#234=ORIENTED_EDGE('',*,*,#183,.F.);
#235=ORIENTED_EDGE('',*,*,#177,.T.);
#236=ORIENTED_EDGE('',*,*,#184,.T.);
#237=ORIENTED_EDGE('',*,*,#165,.T.);
#238=ORIENTED_EDGE('',*,*,#184,.F.);
#239=ORIENTED_EDGE('',*,*,#176,.F.);
#240=ORIENTED_EDGE('',*,*,#185,.T.);
#241=ORIENTED_EDGE('',*,*,#164,.T.);
#242=ORIENTED_EDGE('',*,*,#185,.F.);
#243=ORIENTED_EDGE('',*,*,#175,.F.);
#244=ORIENTED_EDGE('',*,*,#186,.T.);
#245=ORIENTED_EDGE('',*,*,#163,.T.);
#246=ORIENTED_EDGE('',*,*,#186,.F.);
#247=ORIENTED_EDGE('',*,*,#174,.F.);
#248=ORIENTED_EDGE('',*,*,#187,.T.);
#249=ORIENTED_EDGE('',*,*,#162,.T.);
#250=ORIENTED_EDGE('',*,*,#187,.F.);
#251=ORIENTED_EDGE('',*,*,#173,.F.);
#252=ORIENTED_EDGE('',*,*,#188,.T.);
#253=ORIENTED_EDGE('',*,*,#161,.T.);
#254=ORIENTED_EDGE('',*,*,#188,.F.);
#255=CYLINDRICAL_SURFACE('',#297,0.0555625);
#256=CYLINDRICAL_SURFACE('',#311,0.03556);
#257=CYLINDRICAL_SURFACE('',#314,0.0508);
#258=CYLINDRICAL_SURFACE('',#325,0.0307975);
#259=CYLINDRICAL_SURFACE('',#326,0.0619125);
#260=CYLINDRICAL_SURFACE('',#329,0.00635);
#261=CYLINDRICAL_SURFACE('',#330,0.00635);
#262=CYLINDRICAL_SURFACE('',#331,0.0018288);
#263=CYLINDRICAL_SURFACE('',#332,0.0018288);
#264=CYLINDRICAL_SURFACE('',#333,0.0018288);
#265=CYLINDRICAL_SURFACE('',#334,0.0018288);
#266=ADVANCED_FACE('',(#41),#255,.T.);
#267=ADVANCED_FACE('',(#42,#19),#36,.T.);
#268=ADVANCED_FACE('',(#43,#20,#21,#22,#23,#24,#25,#26),#37,.F.);
#269=ADVANCED_FACE('',(#44),#256,.T.);
#270=ADVANCED_FACE('',(#45),#257,.F.);
#271=ADVANCED_FACE('',(#46,#27,#28,#29,#30,#31,#32,#33),#38,.T.);
#272=ADVANCED_FACE('',(#47,#34),#39,.T.);
#273=ADVANCED_FACE('',(#48),#258,.F.);
#274=ADVANCED_FACE('',(#49),#259,.T.);
#275=ADVANCED_FACE('',(#50,#35),#40,.F.);
#276=ADVANCED_FACE('',(#51),#260,.F.);
#277=ADVANCED_FACE('',(#52),#261,.F.);
#278=ADVANCED_FACE('',(#53),#262,.F.);
#279=ADVANCED_FACE('',(#54),#263,.F.);
#280=ADVANCED_FACE('',(#55),#264,.F.);
#281=ADVANCED_FACE('',(#56),#265,.F.);
#282=CLOSED_SHELL('',(#266,#267,#268,#269,#270,#271,#272,#273,#274,#275,
#276,#277,#278,#279,#280,#281));
#283=DERIVED_UNIT_ELEMENT(#285,1.);
#284=DERIVED_UNIT_ELEMENT(#509,-3.);
#285=(
MASS_UNIT()
NAMED_UNIT(*)
SI_UNIT(.KILO.,.GRAM.)
);
#286=DERIVED_UNIT((#283,#284));
#287=MEASURE_REPRESENTATION_ITEM('density measure',
POSITIVE_RATIO_MEASURE(7850.),#286);
#288=PROPERTY_DEFINITION_REPRESENTATION(#293,#290);
#289=PROPERTY_DEFINITION_REPRESENTATION(#294,#291);
#290=REPRESENTATION('material name',(#292),#507);
#291=REPRESENTATION('density',(#287),#507);
#292=DESCRIPTIVE_REPRESENTATION_ITEM('Steel','Steel');
#293=PROPERTY_DEFINITION('material property','material name',#521);
#294=PROPERTY_DEFINITION('material property','density of part',#521);
#295=AXIS2_PLACEMENT_3D('',#429,#336,#337);
#296=AXIS2_PLACEMENT_3D('',#430,#338,#339);
#297=AXIS2_PLACEMENT_3D('',#431,#340,#341);
#298=AXIS2_PLACEMENT_3D('',#433,#342,#343);
#299=AXIS2_PLACEMENT_3D('',#436,#345,#346);
#300=AXIS2_PLACEMENT_3D('',#437,#347,#348);
#301=AXIS2_PLACEMENT_3D('',#439,#349,#350);
#302=AXIS2_PLACEMENT_3D('',#440,#351,#352);
#303=AXIS2_PLACEMENT_3D('',#442,#353,#354);
#304=AXIS2_PLACEMENT_3D('',#444,#355,#356);
#305=AXIS2_PLACEMENT_3D('',#446,#357,#358);
#306=AXIS2_PLACEMENT_3D('',#448,#359,#360);
#307=AXIS2_PLACEMENT_3D('',#450,#361,#362);
#308=AXIS2_PLACEMENT_3D('',#452,#363,#364);
#309=AXIS2_PLACEMENT_3D('',#454,#365,#366);
#310=AXIS2_PLACEMENT_3D('',#456,#367,#368);
#311=AXIS2_PLACEMENT_3D('',#457,#369,#370);
#312=AXIS2_PLACEMENT_3D('',#459,#371,#372);
#313=AXIS2_PLACEMENT_3D('',#462,#374,#375);
#314=AXIS2_PLACEMENT_3D('',#463,#376,#377);
#315=AXIS2_PLACEMENT_3D('',#465,#378,#379);
#316=AXIS2_PLACEMENT_3D('',#467,#381,#382);
#317=AXIS2_PLACEMENT_3D('',#469,#383,#384);
#318=AXIS2_PLACEMENT_3D('',#471,#385,#386);
#319=AXIS2_PLACEMENT_3D('',#473,#387,#388);
#320=AXIS2_PLACEMENT_3D('',#475,#389,#390);
#321=AXIS2_PLACEMENT_3D('',#477,#391,#392);
#322=AXIS2_PLACEMENT_3D('',#479,#393,#394);
#323=AXIS2_PLACEMENT_3D('',#480,#395,#396);
#324=AXIS2_PLACEMENT_3D('',#482,#397,#398);
#325=AXIS2_PLACEMENT_3D('',#483,#399,#400);
#326=AXIS2_PLACEMENT_3D('',#485,#402,#403);
#327=AXIS2_PLACEMENT_3D('',#488,#405,#406);
#328=AXIS2_PLACEMENT_3D('',#489,#407,#408);
#329=AXIS2_PLACEMENT_3D('',#490,#409,#410);
#330=AXIS2_PLACEMENT_3D('',#492,#412,#413);
#331=AXIS2_PLACEMENT_3D('',#494,#415,#416);
#332=AXIS2_PLACEMENT_3D('',#496,#418,#419);
#333=AXIS2_PLACEMENT_3D('',#498,#421,#422);
#334=AXIS2_PLACEMENT_3D('',#500,#424,#425);
#335=AXIS2_PLACEMENT_3D('',#502,#427,#428);
#336=DIRECTION('axis',(0.,0.,1.));
#337=DIRECTION('refdir',(1.,0.,0.));
#338=DIRECTION('axis',(0.,0.,1.));
#339=DIRECTION('refdir',(1.,0.,0.));
#340=DIRECTION('center_axis',(0.,0.,-1.));
#341=DIRECTION('ref_axis',(-1.,0.,0.));
#342=DIRECTION('center_axis',(0.,0.,-1.));
#343=DIRECTION('ref_axis',(-1.,0.,0.));
#344=DIRECTION('',(0.,0.,1.));
#345=DIRECTION('center_axis',(0.,0.,1.));
#346=DIRECTION('ref_axis',(1.,0.,0.));
#347=DIRECTION('center_axis',(0.,0.,1.));
#348=DIRECTION('ref_axis',(1.,0.,0.));
#349=DIRECTION('center_axis',(0.,0.,1.));
#350=DIRECTION('ref_axis',(1.,0.,0.));
#351=DIRECTION('center_axis',(0.,0.,1.));
#352=DIRECTION('ref_axis',(1.,0.,0.));
#353=DIRECTION('center_axis',(0.,0.,-1.));
#354=DIRECTION('ref_axis',(-1.,0.,0.));
#355=DIRECTION('center_axis',(0.,0.,-1.));
#356=DIRECTION('ref_axis',(-1.,0.,0.));
#357=DIRECTION('center_axis',(0.,0.,-1.));
#358=DIRECTION('ref_axis',(-1.,0.,0.));
#359=DIRECTION('center_axis',(0.,0.,-1.));
#360=DIRECTION('ref_axis',(-1.,0.,0.));
#361=DIRECTION('center_axis',(0.,0.,-1.));
#362=DIRECTION('ref_axis',(-1.,0.,0.));
#363=DIRECTION('center_axis',(0.,0.,-1.));
#364=DIRECTION('ref_axis',(-1.,0.,0.));
#365=DIRECTION('center_axis',(0.,0.,-1.));
#366=DIRECTION('ref_axis',(-1.,0.,0.));
#367=DIRECTION('center_axis',(0.,0.,1.));
#368=DIRECTION('ref_axis',(1.,0.,0.));
#369=DIRECTION('center_axis',(0.,0.,1.));
#370=DIRECTION('ref_axis',(1.,0.,0.));
#371=DIRECTION('center_axis',(0.,0.,1.));
#372=DIRECTION('ref_axis',(1.,0.,0.));
#373=DIRECTION('',(0.,0.,-1.));
#374=DIRECTION('center_axis',(0.,0.,1.));
#375=DIRECTION('ref_axis',(1.,0.,0.));
#376=DIRECTION('center_axis',(0.,0.,1.));
#377=DIRECTION('ref_axis',(1.,0.,0.));
#378=DIRECTION('center_axis',(0.,0.,1.));
#379=DIRECTION('ref_axis',(1.,0.,0.));
#380=DIRECTION('',(0.,0.,1.));
#381=DIRECTION('center_axis',(0.,0.,1.));
#382=DIRECTION('ref_axis',(1.,0.,0.));
#383=DIRECTION('center_axis',(0.,0.,-1.));
#384=DIRECTION('ref_axis',(-1.,0.,0.));
#385=DIRECTION('center_axis',(0.,0.,-1.));
#386=DIRECTION('ref_axis',(-1.,0.,0.));
#387=DIRECTION('center_axis',(0.,0.,-1.));
#388=DIRECTION('ref_axis',(-1.,0.,0.));
#389=DIRECTION('center_axis',(0.,0.,-1.));
#390=DIRECTION('ref_axis',(-1.,0.,0.));
#391=DIRECTION('center_axis',(0.,0.,1.));
#392=DIRECTION('ref_axis',(1.,0.,0.));
#393=DIRECTION('center_axis',(0.,0.,1.));
#394=DIRECTION('ref_axis',(1.,0.,0.));
#395=DIRECTION('center_axis',(0.,0.,1.));
#396=DIRECTION('ref_axis',(1.,0.,0.));
#397=DIRECTION('center_axis',(0.,0.,1.));
#398=DIRECTION('ref_axis',(1.,0.,0.));
#399=DIRECTION('center_axis',(0.,0.,1.));
#400=DIRECTION('ref_axis',(1.,0.,0.));
#401=DIRECTION('',(0.,0.,1.));
#402=DIRECTION('center_axis',(0.,0.,-1.));
#403=DIRECTION('ref_axis',(-1.,0.,0.));
#404=DIRECTION('',(0.,0.,1.));
#405=DIRECTION('center_axis',(0.,0.,-1.));
#406=DIRECTION('ref_axis',(-1.,0.,0.));
#407=DIRECTION('center_axis',(0.,0.,-1.));
#408=DIRECTION('ref_axis',(1.,0.,0.));
#409=DIRECTION('center_axis',(0.,0.,-1.));
#410=DIRECTION('ref_axis',(-1.,0.,0.));
#411=DIRECTION('',(0.,0.,-1.));
#412=DIRECTION('center_axis',(0.,0.,-1.));
#413=DIRECTION('ref_axis',(-1.,0.,0.));
#414=DIRECTION('',(0.,0.,-1.));
#415=DIRECTION('center_axis',(0.,0.,-1.));
#416=DIRECTION('ref_axis',(-1.,0.,0.));
#417=DIRECTION('',(0.,0.,-1.));
#418=DIRECTION('center_axis',(0.,0.,-1.));
#419=DIRECTION('ref_axis',(-1.,0.,0.));
#420=DIRECTION('',(0.,0.,-1.));
#421=DIRECTION('center_axis',(0.,0.,-1.));
#422=DIRECTION('ref_axis',(-1.,0.,0.));
#423=DIRECTION('',(0.,0.,-1.));
#424=DIRECTION('center_axis',(0.,0.,-1.));
#425=DIRECTION('ref_axis',(-1.,0.,0.));
#426=DIRECTION('',(0.,0.,-1.));
#427=DIRECTION('',(0.,-1.,0.));
#428=DIRECTION('',(1.,0.,0.));
#429=CARTESIAN_POINT('',(0.,0.,0.));
#430=CARTESIAN_POINT('',(0.,0.,0.));
#431=CARTESIAN_POINT('Origin',(0.,3.40222188888124E-18,0.111125));
#432=CARTESIAN_POINT('',(0.0555625,-3.40222188888124E-18,0.1016));
#433=CARTESIAN_POINT('Origin',(0.,3.40222188888124E-18,0.1016));
#434=CARTESIAN_POINT('',(0.0555625,3.40222188888124E-18,0.111125));
#435=CARTESIAN_POINT('',(0.0555625,-3.40222188888124E-18,0.111125));
#436=CARTESIAN_POINT('Origin',(0.,3.40222188888124E-18,0.111125));
#437=CARTESIAN_POINT('Origin',(0.,0.,0.111125));
#438=CARTESIAN_POINT('',(-0.0508,-3.11060286983427E-18,0.111125));
#439=CARTESIAN_POINT('Origin',(0.,3.11060286983428E-18,0.111125));
#440=CARTESIAN_POINT('Origin',(0.,0.,0.));
#441=CARTESIAN_POINT('',(0.0619125,-1.13731417428316E-17,0.));
#442=CARTESIAN_POINT('Origin',(0.,-3.79104724761052E-18,0.));
#443=CARTESIAN_POINT('',(0.0183530706095246,0.0398931182138373,0.));
#444=CARTESIAN_POINT('Origin',(0.0165242706095246,0.0398931182138373,0.));
#445=CARTESIAN_POINT('',(0.0417219182138373,-0.0165242706095246,0.));
#446=CARTESIAN_POINT('Origin',(0.0398931182138373,-0.0165242706095246,0.));
#447=CARTESIAN_POINT('',(-0.0146954706095246,-0.0398931182138373,0.));
#448=CARTESIAN_POINT('Origin',(-0.0165242706095246,-0.0398931182138373,
0.));
#449=CARTESIAN_POINT('',(-0.0380643182138373,0.0165242706095246,0.));
#450=CARTESIAN_POINT('Origin',(-0.0398931182138373,0.0165242706095246,0.));
#451=CARTESIAN_POINT('',(0.0462431182138374,0.0165242706095246,0.));
#452=CARTESIAN_POINT('Origin',(0.0398931182138374,0.0165242706095246,0.));
#453=CARTESIAN_POINT('',(-0.0335431182138373,-0.0165242706095246,0.));
#454=CARTESIAN_POINT('Origin',(-0.0398931182138373,-0.0165242706095246,
0.));
#455=CARTESIAN_POINT('',(-0.0307975,-1.88580298983703E-18,0.));
#456=CARTESIAN_POINT('Origin',(0.,1.88580298983703E-18,0.));
#457=CARTESIAN_POINT('Origin',(0.,2.17742200888399E-18,0.003175));
#458=CARTESIAN_POINT('',(-0.03556,-2.177422008884E-18,0.111125));
#459=CARTESIAN_POINT('Origin',(0.,2.17742200888399E-18,0.111125));
#460=CARTESIAN_POINT('',(-0.03556,-2.177422008884E-18,0.003175));
#461=CARTESIAN_POINT('',(-0.03556,-2.177422008884E-18,0.003175));
#462=CARTESIAN_POINT('Origin',(0.,2.17742200888399E-18,0.003175));
#463=CARTESIAN_POINT('Origin',(0.,3.11060286983428E-18,0.003175));
#464=CARTESIAN_POINT('',(-0.0508,-3.11060286983427E-18,0.003175));
#465=CARTESIAN_POINT('Origin',(0.,3.11060286983428E-18,0.003175));
#466=CARTESIAN_POINT('',(-0.0508,-3.11060286983427E-18,0.003175));
#467=CARTESIAN_POINT('Origin',(0.,0.,0.003175));
#468=CARTESIAN_POINT('',(0.0183530706095246,0.0398931182138373,0.003175));
#469=CARTESIAN_POINT('Origin',(0.0165242706095246,0.0398931182138373,0.003175));
#470=CARTESIAN_POINT('',(0.0417219182138373,-0.0165242706095246,0.003175));
#471=CARTESIAN_POINT('Origin',(0.0398931182138373,-0.0165242706095246,0.003175));
#472=CARTESIAN_POINT('',(-0.0146954706095246,-0.0398931182138373,0.003175));
#473=CARTESIAN_POINT('Origin',(-0.0165242706095246,-0.0398931182138373,
0.003175));
#474=CARTESIAN_POINT('',(-0.0380643182138373,0.0165242706095246,0.003175));
#475=CARTESIAN_POINT('Origin',(-0.0398931182138373,0.0165242706095246,0.003175));
#476=CARTESIAN_POINT('',(0.0462431182138374,0.0165242706095246,0.003175));
#477=CARTESIAN_POINT('Origin',(0.0398931182138374,0.0165242706095246,0.003175));
#478=CARTESIAN_POINT('',(-0.0335431182138373,-0.0165242706095246,0.003175));
#479=CARTESIAN_POINT('Origin',(-0.0398931182138373,-0.0165242706095246,
0.003175));
#480=CARTESIAN_POINT('Origin',(0.,0.,0.111125));
#481=CARTESIAN_POINT('',(-0.0307975,-1.88580298983703E-18,0.111125));
#482=CARTESIAN_POINT('Origin',(0.,1.88580298983703E-18,0.111125));
#483=CARTESIAN_POINT('Origin',(0.,1.88580298983703E-18,0.003175));
#484=CARTESIAN_POINT('',(-0.0307975,-1.88580298983703E-18,0.003175));
#485=CARTESIAN_POINT('Origin',(0.,-3.79104724761052E-18,0.1016));
#486=CARTESIAN_POINT('',(0.0619125,-1.13731417428316E-17,0.1016));
#487=CARTESIAN_POINT('',(0.0619125,-1.13731417428316E-17,0.1016));
#488=CARTESIAN_POINT('Origin',(0.,-3.79104724761052E-18,0.1016));
#489=CARTESIAN_POINT('Origin',(0.,0.,0.1016));
#490=CARTESIAN_POINT('Origin',(-0.0398931182138373,-0.0165242706095246,
0.025908));
#491=CARTESIAN_POINT('',(-0.0335431182138373,-0.0165242706095246,0.025908));
#492=CARTESIAN_POINT('Origin',(0.0398931182138374,0.0165242706095246,0.025908));
#493=CARTESIAN_POINT('',(0.0462431182138374,0.0165242706095246,0.025908));
#494=CARTESIAN_POINT('Origin',(-0.0398931182138373,0.0165242706095246,0.003175));
#495=CARTESIAN_POINT('',(-0.0380643182138373,0.0165242706095246,0.003175));
#496=CARTESIAN_POINT('Origin',(-0.0165242706095246,-0.0398931182138373,
0.003175));
#497=CARTESIAN_POINT('',(-0.0146954706095246,-0.0398931182138373,0.003175));
#498=CARTESIAN_POINT('Origin',(0.0398931182138373,-0.0165242706095246,0.003175));
#499=CARTESIAN_POINT('',(0.0417219182138373,-0.0165242706095246,0.003175));
#500=CARTESIAN_POINT('Origin',(0.0165242706095246,0.0398931182138373,0.003175));
#501=CARTESIAN_POINT('',(0.0183530706095246,0.0398931182138373,0.003175));
#502=CARTESIAN_POINT('',(-0.0615926647537434,0.0798566981732845,0.0135553813794386));
#503=UNCERTAINTY_MEASURE_WITH_UNIT(LENGTH_MEASURE(1.E-5),#509,
'DISTANCE_ACCURACY_VALUE',
'Maximum model space distance between geometric entities at asserted c
onnectivities');
#504=UNCERTAINTY_MEASURE_WITH_UNIT(LENGTH_MEASURE(1.E-5),#509,
'DISTANCE_ACCURACY_VALUE',
'Maximum model space distance between geometric entities at asserted c
onnectivities');
#505=UNCERTAINTY_MEASURE_WITH_UNIT(LENGTH_MEASURE(1.E-5),#509,
'DISTANCE_ACCURACY_VALUE',
'Maximum model space distance between geometric entities at asserted c
onnectivities');
#506=(
GEOMETRIC_REPRESENTATION_CONTEXT(3)
GLOBAL_UNCERTAINTY_ASSIGNED_CONTEXT((#503))
GLOBAL_UNIT_ASSIGNED_CONTEXT((#509,#510,#511))
REPRESENTATION_CONTEXT('','3D')
);
#507=(
GEOMETRIC_REPRESENTATION_CONTEXT(3)
GLOBAL_UNCERTAINTY_ASSIGNED_CONTEXT((#504))
GLOBAL_UNIT_ASSIGNED_CONTEXT((#509,#510,#511))
REPRESENTATION_CONTEXT('','3D')
);
#508=(
GEOMETRIC_REPRESENTATION_CONTEXT(3)
GLOBAL_UNCERTAINTY_ASSIGNED_CONTEXT((#505))
GLOBAL_UNIT_ASSIGNED_CONTEXT((#509,#510,#511))
REPRESENTATION_CONTEXT('','3D')
);
#509=(
LENGTH_UNIT()
NAMED_UNIT(*)
SI_UNIT($,.METRE.)
);
#510=(
NAMED_UNIT(*)
PLANE_ANGLE_UNIT()
SI_UNIT($,.RADIAN.)
);
#511=(
NAMED_UNIT(*)
SI_UNIT($,.STERADIAN.)
SOLID_ANGLE_UNIT()
);
#512=SHAPE_DEFINITION_REPRESENTATION(#514,#517);
#513=SHAPE_DEFINITION_REPRESENTATION(#515,#518);
#514=PRODUCT_DEFINITION_SHAPE('',$,#520);
#515=PRODUCT_DEFINITION_SHAPE('',$,#521);
#516=PRODUCT_DEFINITION_SHAPE($,$,#14);
#517=SHAPE_REPRESENTATION('',(#295,#335),#506);
#518=SHAPE_REPRESENTATION('',(#296),#507);
#519=PRODUCT_DEFINITION_CONTEXT('part definition',#527,'design');
#520=PRODUCT_DEFINITION('BPL-700 Assembly','(Unsaved)',#522,#519);
#521=PRODUCT_DEFINITION('Part 1','chamber',#523,#519);
#522=PRODUCT_DEFINITION_FORMATION('',$,#529);
#523=PRODUCT_DEFINITION_FORMATION('',$,#530);
#524=PRODUCT_RELATED_PRODUCT_CATEGORY('(Unsaved)','(Unsaved)',(#529));
#525=PRODUCT_RELATED_PRODUCT_CATEGORY('chamber','chamber',(#530));
#526=APPLICATION_PROTOCOL_DEFINITION('international standard',
'automotive_design',2009,#527);
#527=APPLICATION_CONTEXT(
'Core Data for Automotive Mechanical Design Process');
#528=PRODUCT_CONTEXT('part definition',#527,'mechanical');
#529=PRODUCT('BPL-700 Assembly','(Unsaved)','STEP AP242 Edition 2',(#528));
#530=PRODUCT('Part 1','chamber','Part 1',(#528));
#531=PRESENTATION_STYLE_ASSIGNMENT((#533));
#532=PRESENTATION_STYLE_ASSIGNMENT((#534));
#533=SURFACE_STYLE_USAGE(.BOTH.,#535);
#534=SURFACE_STYLE_USAGE(.BOTH.,#536);
#535=SURFACE_SIDE_STYLE('',(#537));
#536=SURFACE_SIDE_STYLE('',(#538));
#537=SURFACE_STYLE_FILL_AREA(#539);
#538=SURFACE_STYLE_FILL_AREA(#540);
#539=FILL_AREA_STYLE('Steel - Satin',(#541));
#540=FILL_AREA_STYLE('Opaque(234,234,234)',(#542));
#541=FILL_AREA_STYLE_COLOUR('Steel - Satin',#543);
#542=FILL_AREA_STYLE_COLOUR('Opaque(234,234,234)',#544);
#543=COLOUR_RGB('Steel - Satin',0.627450980392157,0.627450980392157,0.627450980392157);
#544=COLOUR_RGB('Opaque(234,234,234)',0.917647058823529,0.917647058823529,
0.917647058823529);
ENDSEC;
END-ISO-10303-21;
